<?xml version="1.0" encoding="UTF-8"?>
<svg id="_002" data-name="002" xmlns="http://www.w3.org/2000/svg" viewBox="0 0 250 207.69">
  <defs>
    <style>
      .cls-1 {
        fill: #85754e;
      }
    </style>
  </defs>
  <path class="cls-1" d="m46.16,124.82c-.55-.03-1.09-.13-1.47-.3-.97-.43-1.31-1.51-1.31-1.51-1.36-4.76,3.4-10.6,5.22-13.13,5.52-7.67,11.5-14.88,17.26-22.28,2.96-3.62,6.38-7.45,8.87-10.81.19-.36-.34-.53-.59-.48-.03,0-.06,0-.08.01-.89.1-9.11,1.21-17.03,7.98-5.18,4.42-14.32,13.8-20.65,20.43h-7.03s-.05.13-.05.22.05.22.05.22h6.6c-3.02,3.16-5.33,5.63-6.15,6.5l-.49.53c-.98,1.08-4.89,5.24-9.25,7.62-2.69,1.47-5.58,2.2-9.56,1.67-3.97-.53-6.2-2.26-6.94-3.07-.05-.05-.1-.11-.15-.16-.15-.17-.3-.34-.44-.52-.64-.81-1.17-1.72-1.54-2.92-2.58-8.44,4.63-15,10.28-16.77,5.91-1.85,12.52.35,13.48,5.34.3,1.55.09,2.87-.29,4,0,0,0,0,0,.01-.02.08-.05.16-.08.24-.1.28-.21.56-.33.81-1.11,2.23-3.26,3.22-3.29,3.23-2.75,1.31-6.51.36-7.74-1.94-.64-1.2-.71-2.48-.21-3.69.59-1.41,1.84-2.43,2.51-2.63.09-.03.14-.12.12-.21-.03-.09-.12-.14-.21-.12-.71.21-2.08,1.26-2.73,2.83-.55,1.31-.47,2.69.22,3.98,1.34,2.5,5.24,3.49,8.19,2.09.12-.05,2.99-1.38,3.88-4.5,0-.02,0-.03,0-.05.58-1.71.6-3.99-.12-5.79-1.53-3.81-5.4-5.62-10.85-5.51-1.26.07-1.5.09-3.95.74-3.96,1.24-7.63,4.27-9.21,7.89-1.52,3.47-1.49,8.2.12,11.46h0s.02.04.05.1c.26.51.56.98.9,1.4.4.54.92,1.13,1.54,1.62.61.48,7.72,5.43,16.81.82,0,0,5.5-3.02,10.21-8.26l1.07-1.13c1.23-1.31,3.12-3.3,5.34-5.63h10.49c-.88,1.16-1.72,2.29-2.57,3.46,0,0-2.22,3.04-3.5,5.79,0,0-3.57,7.55,1.35,9.92.94.45,2.41.6,3.22.5.09-.01,0-.04,0-.04Zm-8.58-20.08c7.27-7.59,17.87-18.45,21.82-21.38,1.43-1.06,8.9-5.87,14.48-6.78.05,0,.08.02.1.06.03.05-.02.12-.11.22l-1.18,1.08c-1.6,1.53-3.45,3.01-5,4.54-5.36,5.27-9.76,9.81-14.09,15.16-2.2,2.72-3.98,4.96-5.61,7.1h-10.4Zm128.03,53.83c-.07-.04-.16-.04-.16-.04-.59.82-2.53,3.34-3.75,4.6-1.57,1.62-3.93,1.14-3.93,1.14-.43-.06-.81-.16-1.14-.29,1.5-2.45,2.93-4.97,3.23-5.5h0s.01-.02.02-.03c.03-.05.04-.08.04-.08h0c1.68-3.17-1.74-4.74-3.66-3.09-2.21,1.9-2.43,4.19-2.43,4.19-.41,2.85.5,4.35,1.77,5.12-1.25,1.96-3.21,4.84-4.51,5.86-.91.71-1.78,1.16-2.52,1.43-1.46.44-3.13.6-4.16-.51-1.36-1.77,3.55-7.5,4.84-9.43,5.29-7.86,10.58-15.73,15.87-23.59h-1.97c-4.49,6.55-8.99,13.1-13.48,19.65-2.6,3.75-4.01,5.77-6.82,9.29l-1.13,1.26-2.43,2.52c-1.37,1.44-4.11,1.94-3.75.06.37-1.38,1.73-3.51,2.54-4.83,2.28-3.72,4.5-7.45,6.73-11.2-.79-.03-1.63.03-2.42,0-.82,1.32-1.63,2.6-2.45,3.92-1.58,2.51-3.21,4.9-4.84,7.3-.06.07-2.4,2.98-4.68,4.33-2.43,1.43-5.31,2.31-4.43-.03.53-1.2,1.54-2.8,1.95-3.46,2.47-4.03,4.93-8.06,7.4-12.08h-2.38c-.76,1.33-1.08,1.92-2.7,4.54l-2.55,3.8c-.22.29-.38.5-.38.5-2.59,3.55-7.21,7.37-7.21,7.37-.47.38-1.19,1.11-2.55.96-1.47-.17-1.63-1.65-1.63-1.65h0c-.06-.55.04-1.14.54-1.85.26-.45,4.43-6.76,4.43-6.76,5.2-7.93,10.41-15.85,15.61-23.78.05-.05.11-.11.16-.16-.74-.03-1.48-.05-2.22-.08-5.48,8.3-10.96,16.61-16.44,24.91-.87,1.32-3.3,4.53-3.18,6.85h0c0,.06.01.12.02.18,0,.02,0,.05,0,.07.27,2.33,2.04,3.14,3.92,2.54.27-.09.53-.17.84-.36.67-.42,2.07-1.67,2.33-1.94,0,0,2.61-2.22,4.68-4.75-.88,1.47-1.89,3.08-2.1,3.43-.46.77-.97,1.91-.41,2.67h0c.07.1.97,1.84,4.51.47,3.01-1.16,4.54-2.89,5.8-4.35.15-.18.28-.33.39-.47.36-.37.63-.61-.04.77-.72,1.48-.98,2.67-.69,3.56h0s.04.16.16.36c0,0,0,.01,0,.01h0c.17.27.49.62,1.09.8,1.07.31,2.61-.01,3.6-.77.49-.37,2.13-2.11,3.68-3.77.05-.01.07,0,.03.19-.17,1.26-.4,2.16.29,3.28.48.77,1.62,1.14,2.81,1.18h0s.01,0,.02,0c.17,0,.35,0,.52,0,3.83-.06,5.84-2.32,7.75-4.87.6-.79,1.33-1.91,2.08-3.11.19.08.39.16.59.22,0,0,.74.24,2.05.18,1.08-.05,2.16-.61,3.16-1.63l.05-.05c1.5-1.64,3.11-4.01,3.75-4.88,0,0-.02-.07-.09-.11Zm-11.34.81c.17-1.82,2.32-5.06,4.43-4.28,1.83.68.92,2.71.51,3.45l-2.41,4.07s-.26.44-.68,1.12c-2.47-1.32-1.85-4.36-1.85-4.36Zm-44.75-5.83c-5.39-1.15-12.12,5.99-12.19,6.08,0,0-.05.23.18.2l.54-.47c2.29-2.15,4.29-3.37,4.29-3.37,3.33-2.33,6.3-1.91,6.3-1.91,1.29.18,2.27.68,2.88,1.46,1.38,1.75.85,4.55-.08,6.33-1.54,2.95-3.67,5.96-6.16,7.98-8.87,7.25-18.02,5.14-18.02,5.14-2.27-.66-4.33-1.82-5.58-3.42-1.18-1.53-1.91-3.55-1.81-6.25.2-5.23,4.35-11.13,7.72-15.07,2,.09,3.96.06,5.74.02,6.41-.12,13.24-2.3,14.39-2.68,0,0,6.93-2.2,12.42-6.01.87-.6,1.68-1.26,2.4-1.99.39-.4,1.09-1.15,1.51-1.93,2.89-4.89-2.32-5.93-5.06-6.15-9.51-.94-19.57,4.08-26.11,8.97,0,0-3.34,2.67-5.23,4.62-1.52,1.39-2.61,2.69-3.24,3.41,0,0-.29.32-.76.9-2.45-.48-3.75-1.13-4.49-1.49-1.59-.77-9.55-6.64-3.55-15.03,5.99-8.39,17.34-2.35,17.34-2.35,0,0,.1.05.28.14,0,0,.08-.04.13-.12.06-.12.02-.18.02-.18,0,0-.3-.16-.46-.25-14.43-7.84-23.25,4.65-20.18,12.02,2.02,4.84,6.14,6.85,10.6,7.66-2.75,3.49-9.49,13.37-4.55,20.82,1.42,2.14,3.71,3.57,6.1,4.32.71.22,1.59.47,2.44.58,11.01,1.59,18.28-5.36,18.28-5.36,0,0,.16-.13.45-.39,2.83-2.35,5.64-6,6.62-8.47,1.39-3.52.35-7.15-3.15-7.74Zm-17.67-7.82c1.24-1.2,2.91-2.53,2.91-2.53,0,0,2.1-1.75,4.6-3.48,1.8-1.24,3.78-2.39,4.82-2.99l2.01-1.06c3.54-1.66,7.21-3.45,12.02-3.8,9.78.11,5.09,5.8,5.09,5.8,0,0-.01.02-.03.05-1.1,1.31-2.75,2.78-5.41,4.46-2.67,1.97-10.26,4.98-10.26,4.98-1.3.5-6.3,2.45-14.32,2.78-2.08.09-3.86.07-5.4-.02,2.19-2.53,3.97-4.17,3.97-4.17Zm63.04-76.31c.67-1.18,1.03-2.48.85-3.74-.36-2.54-1.46-4.77-1.55-7.49.78-.93,4.73-5.65,2.01-5.72-3.11-.08-3.35,5.87-3.35,5.87h0c-.01.2-.01.44,0,.77-3.9,4.48-10.56,10.61-12.96,12.48-3.37,2.62-5.52,2.02-5.52,2.02,0,0-.11-.02-.25-.07-.37-.17-.68-.37-.89-.79-.86-1.69.54-4.52,2.61-7.35,1.69-.03,5.26-.26,7.26-1.69,0,0,.02-.01.03-.02,2-1.21,4.04-3.45,4.66-4.42.44-.7.86-1.9.71-2.64-.35-2.91-5.38-.71-5.38-.71h0c-.58.23-1.13.49-1.67.81-3.72,2.17-6.82,5.56-8.88,9.37-1.12,2.08-1.91,5.55-.24,7.07,0,0,.02.02.04.04,0,0,0,0,.01.01.1.09.27.23.38.28.11.05.22.1.32.14.03.01.05.02.08.03.08.03.17.06.25.08.02,0,.04.01.07.02,2.17.64,4.6-.54,6.18-1.57.62-.41,1.77-1.36,3.2-2.66-.2.65-.14,1.39.2,2.13.65,1.42,2.4,2.79,4.83,2.64,1.09-.07,2.09-.38,3.06-.97,1.33-.76,2.69-1.99,3.63-3.41,2.95-1.48,6.53-3.9,12.29-9.56.29-.28.01-.36.01-.36-.05-.02-.14.02-.17.05-.13.13-.41.49-2.57,2.47-.47.43-1.3,1.16-2,1.78-2.73,2.46-5.52,4.15-7.26,5.09Zm-16.66-7.03c2.21-2.56,3.84-4.54,6.65-6.33,2.67-1.45,2.99-.29,3.03.08.02,2.87-3.83,6.54-6.62,7.9-.47.2-1.95.7-5.16.95.66-.88,1.38-1.76,2.11-2.6Zm12.07,9.84h0s-2.41,2.58-5.1,1.19c-.88-.47-1.51-1.17-1.84-1.89-.46-1.01-.35-2.02.3-2.73.12-.11.23-.21.35-.32,1.42-1.07,3.29-.05,5.27,1.02.77.42,1.55.83,2.3,1.11-.4.57-.83,1.11-1.28,1.61Zm1.47-1.9c-.75-.28-1.55-.71-2.33-1.13-1.6-.87-3.24-1.76-4.64-1.46,2.31-2.16,5-4.8,7.44-7.31.22-.23.44-.46.64-.68,0,.06,0,.11.01.17.2,1.23.24,1.51.47,2.63.67,3.26-.23,5.75-1.58,7.78Zm-50.4,6.27c2.51-.06,4.79-.43,6.99-.97,0,0,1.56-.41,2.78-.83,1.23-.42,2.24-.86,2.24-.86.73-.3,1.46-.65,2.14-1l.94.51,4.99,2.73c4.61,2.34,9.17,4.58,15.14,5.51,1.99.31,3.86.05,5.43-.49,0-.01.02,0,.02-.04s-.02-.03-.02-.04c-5.19,1.14-22.66-9.39-22.66-9.39l-.86-.51c.15-.09.23-.15.23-.15,3.69-2.28,8.54-5.89,12.14-10.81,1.18-1.44,2.3-2.92,3.34-4.3.45-.6,1.84-2.5,3.4-4.66,6.8-1.14,12.49-5.04,14.82-6.83,3.17-2.38,6.5-6.42,8-8.9.53-.88,1.78-2.8,1.82-4.4.18-2.56-1.51-3.27-1.64-3.33-.08-.04-.43-.22-1.24-.21-.32,0-.64.03-.97.09-.17.03-.28.05-.34.07-1.35.33-2.7,1.08-3.48,1.54-8.68,5.07-15.73,14.02-21.62,21.95,0,0-.6,0-1.37-.01-8.99-.2-19.52-2.87-17.29-12.98,2.5-11.34,17.2-9.32,17.2-9.32.3.04.6.08.9.13.1.02.2.03.3.05.2.03.39.07.59.1.11.02.23.04.34.06.2.04.4.08.6.12.09.02.19.04.28.06h0s.05.01.07.02c2.06.49,3.8,1.41,4,1.51.22.11,1.77.99.19,0-1.88-1.18-4.22-1.87-4.22-1.87,0,0,0,0-.02,0-3.04-1-6.5-1.21-9.82-.64-.02,0-.03,0-.05,0-.2.03-.4.07-.6.11-.04,0-.09.02-.13.03-.18.04-.36.08-.54.12-.06.01-.13.03-.19.04-.17.04-.33.08-.49.13-.08.02-.15.04-.23.06-.15.04-.31.09-.46.14-.08.03-.17.05-.25.08-.14.05-.29.1-.43.15-.09.03-.18.06-.27.1-.13.05-.27.1-.4.15-.1.04-.19.08-.29.11-.13.05-.25.11-.38.16-.1.04-.2.09-.29.13-.12.06-.24.11-.36.17-.1.05-.2.1-.3.15-.11.06-.23.12-.34.18-.1.05-.2.11-.3.17-.11.06-.22.12-.32.18-.1.06-.2.12-.31.19-.1.06-.2.13-.3.19-.1.07-.2.14-.31.2-.1.07-.19.13-.29.2-.1.07-.2.15-.3.22-.09.07-.18.13-.27.2-.1.08-.2.16-.3.24-.08.07-.17.14-.25.21-.1.09-.2.18-.3.27-.08.07-.16.14-.23.21-.1.1-.2.2-.3.3-.07.07-.14.14-.21.21-.11.11-.21.23-.32.35-.05.06-.11.12-.16.18-.15.18-.31.36-.45.55-1.17,1.51-2.43,4.06-1.97,6.91,1.36,8.47,11.09,10.47,20.85,10.22-.34.41-.38.46-.87,1.04-3.09,3.83-6.81,8.73-9.32,11.59,0,0-2.36,2.83-5.7,5.67l-.15.12-2.65-1.56c-8.2-4.49-13.76-4.22-13.76-4.22-1.32,0-2.64.15-3.93.56-4.12,1.28-5.66,3.83-5.21,6.21,0,0,.85,5.69,10.28,5.46Zm41.82-33.03c3.15-4.42,6.54-9.2,10.73-12.58,1.71-1.38,3.16-2.81,5.83-2.83.6.03,1,.23,1.23.39,1.3,1.05.93,2.75.93,2.75h0c-.89,3.91-5.83,9.24-8.81,11.94h0s-.01.01-.04.03c-.06.05-.11.1-.17.15-1.15,1.01-7.11,5.97-14.99,7.45,2.16-2.98,4.56-6.3,5.27-7.31Zm-47.14,24.57c4.25-1.76,10.33.04,13.32,1.52.98.48,1.64.83,1.99,1.02l1.42.77,1.29.7-.09.07c-2.21,1.49-3.84,2.45-5.81,3.08-1.66.53-3.96.81-6.08.95-.34.02-.88.04-1.53.02-1.02-.03-2.29-.14-3.4-.42-1.55-.4-2.68-.94-3.26-1.5-.35-.33-.6-.86-.6-.86-.95-2.06.76-4.53,2.75-5.35Zm24.53,50.92h0s-.02.02-.04.03c.01-.01.03-.03.04-.03Zm2.75-11.3s0,0,0-.01c0,0,0-.02,0-.03,0,.01,0,.03,0,.04Zm0-.06s0,.01,0,.02c0-.01,0-.02,0-.03,0,0,0,.01,0,.02Zm-.05-.29c.02.1.03.18.04.27-.01-.09-.03-.18-.04-.28,0,0,0,0,0,0Zm.07.4s.01.06.02.09c0-.04-.01-.09-.02-.13,0,.01,0,.02,0,.04Zm-.07-.45s0,.03,0,.04c-.01-.08-.03-.17-.04-.26.01.07.02.15.03.21Zm126.6-.5c-.05-.02-.14.02-.17.05-.13.13-.41.49-2.57,2.47-.47.43-1.3,1.16-2,1.78-2.73,2.46-5.52,4.15-7.26,5.1.67-1.18,1.03-2.48.85-3.74-.37-2.62-1.53-4.9-1.56-7.73,1.01-1.4,2.38-3.01,2.38-5.34-.02-.04-.06-.07-.1-.07s-.13,0-.19.05c-1.67,1.27-2.7,2.26-3.23,4.64-.18.8-.23.99-.2,1.79l-9.01,9.11-3.39,3.43c-.76.79-1.71,1.32-1.71,1.32-2.45,1.4-3.2.27-3.35-.05-.49-1.56.78-3.07,1.57-4.11,1.95-2.63,3.89-5.24,5.83-7.87.24-.33.53-.67.8-1,2.05-2.65-.08-2.89-.08-2.89-1.28-.05-2.06.77-3.5.95-.73.09-.87-.3-.87-.3-.43-.96.33-1.92.34-2.8.03-1.46-1.16-.64-1.16-.64-1.21.72-2.75,3.17-1.06,4.34,0,0,.01,0,.03,0l-6.47,7.3-.16.18-3.25,3.63-2.43,2.52c-1.37,1.44-4.11,1.94-3.75.06.37-1.38,1.73-3.51,2.54-4.83,2.28-3.72,4.48-7.39,6.71-11.14-.79-.03-1.59-.05-2.38-.08-.82,1.32-1.64,2.63-2.47,3.95-1.58,2.51-3.21,4.9-4.84,7.3-.06.07-2.4,2.98-4.68,4.33-2.43,1.43-5.31,2.31-4.43-.03.53-1.2,1.54-2.8,1.95-3.46,2.47-4.03,4.93-8.06,7.4-12.08h-2.38c-1.19,2.09-1.46,2.59-5.27,8.66-2.92,2.83-5.78,5.38-7.19,6.48-3.37,2.62-5.52,2.02-5.52,2.02,0,0-.11-.02-.26-.07-.37-.17-.68-.37-.89-.79-.86-1.69.54-4.52,2.61-7.35,1.69-.03,5.26-.26,7.26-1.69,0,0,.02-.01.03-.02,2-1.21,4.04-3.45,4.66-4.42.44-.7.86-1.9.71-2.64-.35-2.92-5.38-.71-5.38-.71h0c-.58.23-1.13.49-1.67.81-3.63,2.12-6.67,5.4-8.73,9.11-1.96,1.76-3.74,3.3-4.35,3.89-.63.61-1.47,1.42-2.21,2.08-.83.75-1.53,1.33-1.53,1.33-1.15.82-3.12.57-.4-3.85h-.01c.15-.2.28-.39.4-.58,2.6-4.09,19.28-28.53,19.28-28.53h-2.88l-11.13,16.11c-.42.62-.83,1.24-1.24,1.87-.04.05-.08.1-.14.17-.72.93-.89.03-.92-.28-.27-3.68-5.33-1.65-5.33-1.65h0c-.35.13-.68.28-.99.47-1.82,1.09-2.9,2.42-4.78,5.16-.35.5-1.19,1.83-1.86,2.9-2.33,2.13-4.65,4.11-5.36,4.8-.63.61-1.47,1.42-2.21,2.08-.83.75-1.53,1.33-1.53,1.33-1.15.82-3.12.57-.4-3.85h-.01c.15-.2.28-.39.4-.58,2.63-4.14,5.26-8.28,7.89-12.41h-2.63c-.41.62-.83,1.24-1.24,1.87-.04.05-.08.1-.14.17-.72.93-.89.03-.92-.28-.27-3.68-5.33-1.65-5.33-1.65h0c-.35.13-.68.28-.99.47-1.82,1.09-2.9,2.42-4.78,5.16-.39.57-1.43,2.22-2.13,3.32-2.45,2.07-4.86,3.52-6.42,4.37.67-1.18,1.03-2.48.85-3.74-.36-2.54-1.46-4.77-1.55-7.49.79-.93,4.73-5.65,2.01-5.72-3.11-.08-3.35,5.87-3.35,5.87h0c-.02.24-.01.52.01.95-.26.32-.58.69-.96,1.15-.41.48-1.15,1.31-1.76,2.02-2.12,2.46-4.37,4.33-5.97,5.52-.2.11-.39.25-.58.42-.82.59-1.4.95-1.59,1.06.69-1.2,1.07-2.51.88-3.79-.36-2.54-1.46-4.77-1.55-7.49.78-.93,4.73-5.65,2.01-5.72-3.11-.08-3.35,5.87-3.35,5.87h0c-.02.28,0,.61.03,1.19-2.21,2.83-9.11,8.61-10.44,9.9-.63.61-1.47,1.42-2.21,2.08-.83.75-1.53,1.33-1.53,1.33-1.15.82-3.12.57-.4-3.85h-.01c.15-.2.28-.39.4-.58,2.63-4.14,5.26-8.28,7.89-12.41h-2.63c-.41.62-.83,1.24-1.24,1.87-.04.05-.08.1-.14.17-.71.93-.88.05-.92-.28-.26-3.69-5.34-1.65-5.34-1.65h0c-.35.13-.68.28-.99.47-1.82,1.09-2.9,2.42-4.78,5.16-.49.72-2,3.11-2.57,4.03-1.69,0-2.95-.21-2.95-.21-.43-.06-.81-.16-1.14-.29,1.5-2.45,2.93-4.97,3.23-5.5h0s.01-.02.02-.03c.03-.05.04-.08.04-.08h0c1.68-3.17-1.74-4.74-3.66-3.09-2.21,1.9-2.43,4.19-2.43,4.19-.41,2.85.5,4.35,1.77,5.12-1.25,1.96-3.21,4.84-4.51,5.86-.91.71-1.78,1.16-2.52,1.43-1.46.44-3.13.6-4.16-.51-1.36-1.77,3.55-7.5,4.84-9.43,5.29-7.86,10.58-15.73,15.87-23.59h-1.97c-4.49,6.55-8.99,13.1-13.48,19.65-2.04,2.94-3.35,4.82-5.17,7.19-1.41,1.47-6.19,6.27-8.35,6.03-.35-.07-.58-.22-.78-.39-1.76-1.55,4.1-8.25,6.15-11.33.85-1.28,2.7-3.14,1.82-4.53-.17-.22-.37-.39-.64-.51h0c-2.5-1.46-7.71,2.92-8.62,3.71h-.03c-.92,0,.06-2.08-.41-2.96-.21-.43-.65-.63-1.22-.71h0s-2.02-.3-3.49.3c-1.39.57-3.15,1.55-4.92,2.86-.02.02-.03.02-.03.02-.01.01-.05.04-.16.11-.06.04-.16.04-.27.03-1.13-.37.7-2.49,1.28-3.35h-2.71c-3.67,5.73-7.33,11.44-11,17.16-.06.11-.09.14-.17.27h2.37c2.23-3.5,4.64-6.81,7.15-10.03,1.16-1.35,2.25-2.43,3.26-3.48.12-.12.21-.21.27-.27,0,0,5.61-4.38,6.86-3.05,0,0,.33.24.22,1.27-.28,1.56-1.25,2.76-2.34,4.36-2.61,3.98-4.3,6.33-7.37,10.96-.06.1-.09.16-.15.25h2.29c1.67-2.22,3.34-4.44,5.01-6.66,2.91-3.74,4.14-4.72,6.21-6.95,2.67-2.46,3.89-2.96,5.09-3.33,2.12-.65,1.53.71,1.53.71h0s0,0,0,0c-.27.87-.96,1.88-1.5,2.65l-5.82,8.31c-.97,1.54-2.51,4.08-1.48,5.51.42.71,1.73.62,2.9.23.39-.12,3.64-1.15,7.02-4.45.17-.05.21.07.14.44-.17,1.26-.4,2.16.29,3.28.48.77,1.62,1.14,2.81,1.18h0s.01,0,.02,0c.18,0,.35,0,.52,0,3.83-.06,5.84-2.32,7.75-4.87.59-.79,1.33-1.91,2.08-3.11.19.08.39.16.59.22,0,0,.63.21,3.59.2l-.96,1.78c-.49,1.05-.88,2.24-.63,3.23h0s.01.04.03.11c.03.09.08.22.16.38.3.61,1,1.62,2.51,1.9,2.18.4,4.35-1.87,5.11-2.75.49-.57,1.13-1.33,1.53-1.82.15-.15.3-.25.42-.22.36.02-.15,1.52-.12,2.7,0,.02,0,.04,0,.06,0,.43.12,1.66,1.07,1.97.49.16,1.36.26,2.2-.43,1.2-.99,2.28-2.37,4.08-4.04-.25.68-.21,1.48.15,2.26.65,1.42,2.4,2.79,4.83,2.64,1.09-.07,2.09-.38,3.06-.97,1.31-.75,2.64-1.94,3.57-3.33.25-.13.67-.39,1.34-.83-.35.73-.34,1.61.06,2.48.65,1.42,2.4,2.79,4.83,2.64,1.09-.07,2.09-.38,3.06-.97,1.33-.76,2.69-1.99,3.63-3.41,1.75-.88,3.73-2.09,6.26-4.12-.12.19-.19.3-.19.3l-1.18,2.2c-.49,1.05-.88,2.24-.63,3.23h0s.01.04.03.11c.04.13.09.25.16.38.3.61,1,1.62,2.51,1.9,2.18.4,4.35-1.87,5.11-2.75.49-.57,1.13-1.33,1.53-1.82.15-.15.3-.25.42-.22.37.02-.17,1.58-.12,2.77,0,.43.12,1.66,1.07,1.97.49.16,1.36.26,2.2-.43,1.41-1.16,2.65-2.86,5.08-4.94,1.17-1,2.25-1.95,3.22-2.82-.17.26-.27.43-.27.43l-1.18,2.2c-.49,1.05-.88,2.24-.63,3.23h0s.01.04.03.11c.04.13.09.25.16.38.3.61,1,1.62,2.51,1.9,2.18.4,4.35-1.87,5.11-2.75.49-.57,1.13-1.33,1.53-1.82.15-.15.3-.25.42-.22.37.02-.17,1.58-.12,2.77,0,.43.12,1.66,1.07,1.97.49.16,1.36.26,2.2-.43,1.41-1.16,2.65-2.86,5.08-4.94.87-.74,1.68-1.45,2.44-2.13-.95,2.09-1.48,5.1.04,6.49,0,0,.02.02.03.03,0,0,.02.02.03.03.1.09.27.23.38.28.1.05.21.09.32.14.03.01.06.03.09.04.08.03.16.05.24.08.03,0,.05.02.08.02,2.17.63,4.59-.54,6.18-1.57,1.07-.7,3.7-3.04,6.69-5.91-.94,1.58-2.19,3.58-2.42,3.97-.46.77-.97,1.91-.41,2.67h0s.02.03.07.09c0,0,0,0,0,.01h0c.31.36,1.56,1.48,4.43.37,3.01-1.16,4.54-2.89,5.8-4.35.15-.18.28-.33.39-.47.36-.37.63-.61-.04.77-.72,1.48-.98,2.67-.69,3.56h0s.04.16.16.36c0,0,0,.01,0,.01h0c.17.27.49.62,1.09.8,1.07.31,2.61-.01,3.6-.77.91-.7,5.94-6.23,6.66-7.03l6.73-7.47c1.16,0,3.32,0,3.9-.01l-2.18,3.14c-1.75,2.56-3.6,5.01-5.4,7.48-1.05,1.44-1.28,3.1-.03,4.04,1.4,1.16,3.13,1.05,4.66.15,0,0,.65-.42,1.05-.78.19-.17.77-.73.77-.73l2.04-2.08c-.13.6-.05,1.26.25,1.92.65,1.42,2.4,2.79,4.83,2.64,1.09-.07,2.09-.38,3.05-.96,1.33-.76,2.69-1.99,3.63-3.41,2.95-1.48,6.53-3.9,12.29-9.56.29-.28.01-.36.01-.36Zm-62.38,2.08c2.22-2.56,3.84-4.54,6.65-6.33,2.69-1.46,3-.27,3.03.09,0,2.87-3.83,6.53-6.62,7.89-.47.2-1.95.7-5.16.94.66-.88,1.38-1.76,2.11-2.6Zm-93.58,2.46c-.08.14-.18.29-.28.46-.77-.41-1.24-.99-1.52-1.6-.06-.12-.11-.24-.15-.36-.13-.36-.19-.72-.23-1.05-.07-.76.04-1.34.04-1.34.07-.79.53-1.86,1.19-2.75.85-1.14,2.05-1.97,3.24-1.53,1.83.68.92,2.71.51,3.46l-2.41,4.06s-.02.03-.05.08c-.03.05-.08.13-.14.23-.06.1-.13.22-.21.35Zm11.71,3.97c-.11.15-.21.29-.29.41-.07.1-.13.18-.19.26-.07.1-.17.23-.28.38s-.25.32-.4.51c-.15.18-.32.38-.49.59-.36.41-.76.84-1.2,1.23-.22.2-.44.38-.66.55s-.45.32-.68.45c-.23.13-.45.23-.68.3-.4.13-.78.19-1.11.18-1,0-1.67-.54-1.9-1.22-.14-.68.04-1.37.34-2.01.1-.21.21-.42.33-.62l5.41-8.36c.18-.26.37-.52.56-.77s.38-.5.57-.74c.76-.97,1.55-1.84,2.3-2.51.19-.17.38-.32.56-.46.18-.14.37-.27.55-.38.18-.09.35-.16.52-.21.32-.11.61-.16.86-.17,1.64-.05,1.86,1.8,1.85,2.09,0,.02,0,.04,0,.07-.05,1.06-1,2.9-2.16,4.79-.33.54-.68,1.09-1.03,1.62-.35.53-.7,1.05-1.04,1.55-.68.98-1.3,1.85-1.74,2.46Zm14.96,3.69h0s0,0,0,0h0s0,0,0,0c0,0-2.41,2.57-5.09,1.2-.88-.47-1.52-1.17-1.85-1.89-.47-1.03-.34-2.07.35-2.79.09-.09.18-.18.28-.25.13-.1.26-.17.39-.24.03-.02.07-.03.1-.05.12-.05.23-.09.35-.12.34-.08.69-.09,1.06-.03.25.04.51.11.78.2.02,0,.04.02.07.02.25.08.5.19.76.3,0,0,0,0,0,0,.03.01.06.03.09.04.02,0,.04.02.06.03.24.11.48.23.72.35,0,0,0,0,0,0,.03.01.05.03.08.04.28.15.56.3.85.45.77.42,1.55.83,2.3,1.11-.4.57-.83,1.11-1.28,1.61Zm-5.82-4.02c.11-.05.23-.09.35-.12-.12.03-.24.07-.35.12Zm7.29,2.12s0,0,0,0c0,0,0,0,0,0,0,0,0,0,0,0-.75-.28-1.55-.71-2.33-1.13-1.6-.87-3.24-1.76-4.64-1.45,4.81-4.17,7.82-7.33,8.12-7.64.05.33.09.58.13.81.02.13.04.26.06.38,0,0,0,0,0,0,.02.1.04.21.06.31.05.27.11.56.19.96.67,3.26-.23,5.75-1.58,7.78Zm11.81,1.38c-.1.13-.2.25-.3.38-.04.05-.07.1-.11.14h0s-2.41,2.57-5.09,1.2c-.88-.47-1.52-1.17-1.85-1.89-.47-1.03-.34-2.07.35-2.79.07-.07.15-.14.22-.2.08-.05.15-.11.23-.17,1.4-.89,3.21.09,5.12,1.12.77.42,1.55.83,2.3,1.11-.27.39-.57.74-.87,1.1Zm1.06-1.38c-.75-.28-1.55-.71-2.33-1.13-1.5-.81-3.04-1.65-4.38-1.49,2.09-1.64,4.56-4.01,7.82-7.96,0,.06,0,.12.01.18.2,1.23.24,1.51.47,2.63.67,3.26-.23,5.75-1.58,7.78Zm16.48-1.79c-.11.15-.21.29-.29.41-.07.1-.13.18-.19.26-.15.2-.38.52-.68.89-.9,1.11-2.37,2.7-3.71,3.13-.2.06-.4.11-.58.14s-.36.04-.53.04c-1,0-1.67-.54-1.9-1.22-.18-.91.2-1.83.67-2.62l5.41-8.36c.18-.26.37-.52.56-.77.38-.5.76-.99,1.14-1.45.19-.23.39-.45.58-.66.77-.84,1.54-1.54,2.25-1.99.55-.26,1-.37,1.38-.38.38-.01.68.08.92.22.16.1.3.22.41.36.22.28.35.61.43.89.07.28.09.52.09.61,0,.02,0,.04,0,.07-.12,2.26-4.32,8.12-5.97,10.42Zm18.83.41c-.07.1-.13.18-.19.26-.59.81-2.61,3.44-4.39,4.02-1.62.52-2.71-.13-3.01-1.04-.18-.91.2-1.83.67-2.62l5.41-8.36c1.47-2.07,3.1-3.97,4.53-4.86,2.91-1.37,3.24,1.35,3.23,1.7,0,.02,0,.04,0,.07-.12,2.42-4.9,8.92-6.26,10.83Zm63.07,3.29h0s-2.41,2.57-5.09,1.2c-.88-.47-1.52-1.17-1.85-1.89-.4-.86-.36-1.72.06-2.4l.72-.73c1.4-.92,3.22.06,5.15,1.1.77.42,1.54.83,2.3,1.11-.4.57-.83,1.11-1.28,1.61Zm1.47-1.9c-.75-.28-1.55-.71-2.33-1.13-1.61-.87-3.26-1.77-4.67-1.45l8.09-8.23c0,.12.02.26.02.41.2,1.23.24,1.51.47,2.63.67,3.26-.23,5.75-1.58,7.78Zm-111.54-10.02c-.01-.07-.02-.14-.04-.22h0c.01.08.02.15.04.22Zm.16.97s0,0,0,0c0,0,0,0,0,0,0,0,0,0,0,0Z"/>
  <g>
    <path class="cls-1" d="m69.18,4.82l-.88-.53c-.55-.34-.94-.67-1.18-1s-.35-.7-.35-1.13c0-.64.22-1.15.66-1.55s1.02-.6,1.72-.6,1.3.19,1.86.57v1.31c-.58-.56-1.21-.84-1.88-.84-.38,0-.69.09-.93.26-.24.18-.37.4-.37.67,0,.24.09.47.27.68.18.21.47.43.86.67l.88.52c.99.59,1.48,1.34,1.48,2.25,0,.65-.22,1.18-.65,1.58-.43.4-1,.61-1.69.61-.8,0-1.53-.25-2.18-.74v-1.47c.63.79,1.35,1.19,2.17,1.19.36,0,.67-.1.91-.3.24-.2.36-.45.36-.76,0-.49-.35-.96-1.07-1.4Z"/>
    <path class="cls-1" d="m75.51,8.21V.1h2.57c.77,0,1.39.21,1.85.63.46.42.69.98.69,1.68,0,.47-.12.89-.35,1.25-.24.36-.56.63-.97.79s-1,.25-1.76.25h-.86v3.51h-1.16Zm2.36-7.07h-1.2v2.53h1.27c.47,0,.83-.11,1.09-.33s.38-.54.38-.95c0-.83-.51-1.24-1.54-1.24Z"/>
    <path class="cls-1" d="m88.55,0c1.25,0,2.29.4,3.12,1.19.83.79,1.25,1.78,1.25,2.98s-.42,2.18-1.26,2.96c-.84.78-1.9,1.17-3.17,1.17s-2.23-.39-3.05-1.17c-.81-.78-1.22-1.76-1.22-2.94s.41-2.21,1.23-3c.82-.79,1.85-1.19,3.1-1.19Zm.05,1.1c-.93,0-1.69.29-2.28.87-.6.58-.89,1.32-.89,2.22s.3,1.6.9,2.18c.6.58,1.35.87,2.24.87s1.66-.3,2.26-.89c.6-.59.91-1.33.91-2.21s-.3-1.58-.91-2.16c-.6-.58-1.35-.88-2.22-.88Z"/>
    <path class="cls-1" d="m103.74.12h1.1v8.09h-1l-5.41-6.23v6.23h-1.09V.12h.94l5.46,6.28V.12Z"/>
    <path class="cls-1" d="m111.54,4.82l-.88-.53c-.55-.34-.94-.67-1.18-1s-.35-.7-.35-1.13c0-.64.22-1.15.66-1.55s1.02-.6,1.72-.6,1.3.19,1.86.57v1.31c-.58-.56-1.21-.84-1.88-.84-.38,0-.69.09-.93.26-.24.18-.37.4-.37.67,0,.24.09.47.27.68.18.21.47.43.86.67l.88.52c.99.59,1.48,1.34,1.48,2.25,0,.65-.22,1.18-.65,1.58-.43.4-1,.61-1.69.61-.8,0-1.53-.25-2.18-.74v-1.47c.63.79,1.35,1.19,2.17,1.19.36,0,.67-.1.91-.3.24-.2.36-.45.36-.76,0-.49-.35-.96-1.07-1.4Z"/>
    <path class="cls-1" d="m121.9,0c1.25,0,2.29.4,3.12,1.19.83.79,1.25,1.78,1.25,2.98s-.42,2.18-1.26,2.96c-.84.78-1.9,1.17-3.17,1.17s-2.23-.39-3.05-1.17c-.81-.78-1.22-1.76-1.22-2.94s.41-2.21,1.23-3c.82-.79,1.85-1.19,3.1-1.19Zm.05,1.1c-.93,0-1.69.29-2.28.87-.6.58-.89,1.32-.89,2.22s.3,1.6.9,2.18c.6.58,1.35.87,2.24.87s1.66-.3,2.26-.89c.6-.59.91-1.33.91-2.21s-.3-1.58-.91-2.16c-.6-.58-1.35-.88-2.22-.88Z"/>
    <path class="cls-1" d="m130.7,8.21V.12h2.03c.82,0,1.47.2,1.95.61.48.41.72.95.72,1.64,0,.47-.12.88-.35,1.22-.24.34-.57.6-1.01.77.26.17.51.4.76.69s.59.81,1.04,1.53c.28.46.51.81.68,1.04l.43.58h-1.38l-.35-.53s-.03-.05-.07-.1l-.23-.32-.36-.59-.39-.63c-.24-.33-.46-.6-.66-.79-.2-.2-.38-.34-.54-.43-.16-.09-.43-.13-.81-.13h-.3v3.52h-1.16Zm1.51-7.11h-.35v2.55h.44c.59,0,.99-.05,1.21-.15s.39-.25.51-.45c.12-.2.18-.43.18-.69s-.07-.49-.2-.69c-.13-.21-.32-.35-.57-.44-.25-.09-.65-.13-1.22-.13Z"/>
    <path class="cls-1" d="m140.79.12h4.59v1.03h-3.43v2.47h3.31v1.04h-3.31v2.51h3.54v1.03h-4.7V.12Z"/>
    <path class="cls-1" d="m149.7,8.19V.12h2.73c1.1,0,1.97.16,2.61.49.64.33,1.15.82,1.53,1.46s.57,1.34.57,2.1c0,.54-.1,1.06-.31,1.55s-.51.93-.89,1.3c-.39.39-.85.68-1.37.87-.31.12-.59.2-.84.24-.25.04-.74.06-1.46.06h-2.56Zm2.61-7.05h-1.45v6.02h1.48c.58,0,1.03-.04,1.35-.12.32-.08.59-.18.8-.3.21-.12.41-.27.59-.45.57-.58.86-1.31.86-2.19s-.29-1.58-.88-2.13c-.22-.2-.46-.37-.74-.5-.28-.13-.55-.22-.8-.26-.25-.04-.65-.06-1.21-.06Z"/>
    <path class="cls-1" d="m170.54,8.21h-2.74V.12h2.12c.67,0,1.19.09,1.56.27.37.18.66.43.86.74s.3.68.3,1.09c0,.8-.41,1.36-1.23,1.71.59.11,1.06.36,1.41.73.35.37.52.82.52,1.34,0,.41-.11.78-.32,1.11-.21.32-.52.59-.94.79-.41.2-.93.31-1.54.31Zm-.59-7.06h-1v2.43h.77c.62,0,1.06-.12,1.32-.35.26-.24.39-.54.39-.92,0-.78-.49-1.16-1.48-1.16Zm.09,3.46h-1.08v2.57h1.14c.63,0,1.06-.05,1.29-.15.23-.1.41-.25.54-.46s.21-.43.21-.67-.07-.47-.22-.68c-.15-.2-.35-.36-.62-.46-.27-.1-.69-.15-1.26-.15Z"/>
    <path class="cls-1" d="m182.31.12h1.41l-2.99,3.81v4.28h-1.19V3.93l-2.99-3.81h1.4l2.17,2.79,2.19-2.79Z"/>
  </g>
  <g>
    <path class="cls-1" d="m29.85,202.17h2.24v2.82c-.82.36-1.63.53-2.44.53-1.1,0-1.98-.32-2.64-.97-.66-.64-.99-1.44-.99-2.38,0-1,.34-1.82,1.03-2.48s1.54-.99,2.57-.99c.38,0,.73.04,1.07.12.34.08.76.23,1.28.45v.97c-.8-.46-1.58-.69-2.37-.69-.73,0-1.34.25-1.84.74s-.75,1.11-.75,1.83c0,.76.25,1.37.75,1.86s1.14.72,1.93.72c.38,0,.84-.09,1.37-.26l.09-.03v-1.39h-1.28v-.85Z"/>
    <path class="cls-1" d="m36.36,202.82v1.86c0,.15.05.22.15.22s.27-.08.49-.23v.53c-.2.13-.36.21-.47.26-.12.05-.24.07-.37.07-.37,0-.59-.15-.66-.44-.37.29-.76.43-1.18.43-.31,0-.56-.1-.76-.3-.2-.2-.31-.46-.31-.76,0-.28.1-.52.3-.74.2-.22.48-.39.85-.52l1.11-.38v-.23c0-.53-.26-.79-.79-.79-.47,0-.93.24-1.38.73v-.95c.34-.4.82-.6,1.45-.6.47,0,.85.12,1.14.37.1.08.18.19.26.32.08.13.12.26.15.4.02.13.03.38.03.75Zm-.85,1.77v-1.3l-.58.22c-.3.12-.5.24-.63.36-.12.12-.18.27-.18.45s.06.33.17.44c.12.11.27.17.45.17.28,0,.53-.11.77-.34Z"/>
    <path class="cls-1" d="m41.61,202.27v3.19h-.87v-2.44c0-.49-.07-.83-.2-1.02-.13-.19-.36-.29-.68-.29-.18,0-.35.04-.5.12-.15.08-.32.23-.52.44v3.19h-.87v-4.39h.87v.58c.44-.44.87-.66,1.3-.66.56,0,.99.26,1.29.79.46-.53.95-.8,1.45-.8.43,0,.78.16,1.05.47.28.31.41.79.41,1.43v2.59h-.87v-2.6c0-.37-.07-.65-.22-.84s-.36-.29-.64-.29c-.36,0-.69.18-1.01.54Z"/>
    <path class="cls-1" d="m45.75,198.79h.87v2.59c.38-.27.78-.41,1.2-.41.56,0,1.01.21,1.36.63s.53.96.53,1.62c0,.71-.21,1.27-.63,1.69-.42.42-.98.63-1.69.63-.28,0-.58-.03-.89-.09-.31-.06-.56-.14-.75-.23v-6.42Zm.87,3.42v2.38c.3.09.6.13.91.13.38,0,.7-.14.94-.41.24-.27.37-.62.37-1.05s-.11-.79-.34-1.06c-.23-.27-.52-.41-.89-.41-.32,0-.65.14-.99.43Z"/>
    <path class="cls-1" d="m50.94,198.79h.87v6.66h-.87v-6.66Z"/>
    <path class="cls-1" d="m57.05,203.34h-3.09c.02.42.16.75.42,1,.26.25.59.37,1,.37.57,0,1.1-.18,1.58-.53v.85c-.27.18-.53.31-.79.38-.26.08-.57.11-.92.11-.48,0-.87-.1-1.17-.3s-.54-.47-.72-.81c-.18-.34-.27-.73-.27-1.18,0-.67.19-1.21.57-1.63.38-.42.87-.63,1.47-.63s1.05.2,1.39.61.52.95.52,1.64v.11Zm-3.07-.52h2.21c-.02-.35-.13-.61-.31-.8s-.43-.28-.74-.28-.57.09-.77.28c-.2.19-.33.45-.39.8Z"/>
    <path class="cls-1" d="m61.33,205.45v-6.66h1.67c.67,0,1.21.17,1.61.5.4.33.59.79.59,1.35,0,.39-.1.72-.29,1.01s-.47.49-.83.63c.21.14.42.33.62.57s.49.66.86,1.26c.23.38.42.66.56.85l.35.48h-1.14l-.29-.44s-.03-.04-.06-.08l-.19-.26-.3-.49-.32-.52c-.2-.27-.38-.49-.54-.65-.16-.16-.31-.28-.44-.35s-.35-.11-.67-.11h-.25v2.9h-.95Zm1.24-5.85h-.29v2.1h.36c.48,0,.81-.04.99-.12.18-.08.32-.21.42-.37.1-.17.15-.36.15-.57s-.06-.4-.17-.57c-.11-.17-.27-.29-.47-.36-.2-.07-.54-.1-1-.1Z"/>
    <path class="cls-1" d="m71.07,203.34h-3.09c.02.42.16.75.42,1,.26.25.59.37,1,.37.57,0,1.1-.18,1.58-.53v.85c-.27.18-.53.31-.79.38-.26.08-.57.11-.92.11-.48,0-.87-.1-1.17-.3s-.54-.47-.72-.81c-.18-.34-.27-.73-.27-1.18,0-.67.19-1.21.57-1.63.38-.42.87-.63,1.47-.63s1.05.2,1.39.61.52.95.52,1.64v.11Zm-3.07-.52h2.21c-.02-.35-.13-.61-.31-.8s-.43-.28-.74-.28-.57.09-.77.28c-.2.19-.33.45-.39.8Z"/>
    <path class="cls-1" d="m72.04,205.14v-.93c.24.17.5.31.75.42.26.11.47.16.65.16s.34-.04.47-.13.2-.2.2-.32-.04-.23-.13-.32-.27-.21-.55-.36c-.56-.31-.93-.58-1.1-.8-.17-.22-.26-.46-.26-.72,0-.34.13-.61.39-.83.26-.21.6-.32,1.01-.32s.87.12,1.32.36v.86c-.52-.31-.94-.47-1.26-.47-.17,0-.3.04-.41.11-.1.07-.15.17-.15.28,0,.1.05.2.14.29.09.09.26.2.49.33l.31.18c.73.41,1.1.87,1.1,1.37,0,.36-.14.65-.42.88-.28.23-.64.35-1.09.35-.26,0-.49-.03-.7-.08-.2-.06-.46-.16-.77-.31Z"/>
    <path class="cls-1" d="m76.2,207.69v-6.62h1.52c.78,0,1.38.19,1.82.58.43.39.65.93.65,1.63,0,.66-.2,1.2-.61,1.62s-.93.63-1.56.63c-.28,0-.59-.06-.93-.19v2.35h-.89Zm1.5-5.81h-.61v2.7c.27.14.55.21.84.21.41,0,.74-.14,1-.42.26-.28.39-.65.39-1.09,0-.29-.06-.54-.18-.76s-.29-.38-.5-.48c-.21-.1-.52-.15-.93-.15Z"/>
    <path class="cls-1" d="m83.48,201.06c.67,0,1.22.22,1.66.65.44.43.66.97.66,1.62s-.22,1.16-.67,1.58c-.45.42-1.01.63-1.69.63s-1.21-.21-1.65-.64c-.44-.43-.66-.96-.66-1.59s.22-1.18.67-1.6c.45-.43,1.01-.64,1.68-.64Zm-.05.78c-.42,0-.76.14-1.03.41s-.4.62-.4,1.04.14.76.41,1.03c.27.27.62.4,1.05.4s.77-.13,1.05-.4c.27-.27.41-.61.41-1.03s-.14-.76-.42-1.03-.64-.41-1.07-.41Z"/>
    <path class="cls-1" d="m87.88,201.07v.56c.39-.43.83-.64,1.32-.64.27,0,.53.07.76.21.24.14.41.34.54.58.12.25.18.64.18,1.17v2.51h-.87v-2.5c0-.45-.07-.77-.21-.96-.14-.19-.37-.29-.69-.29-.41,0-.76.21-1.04.62v3.13h-.89v-4.39h.89Z"/>
    <path class="cls-1" d="m91.93,205.14v-.93c.24.17.5.31.75.42.26.11.47.16.65.16s.34-.04.47-.13.2-.2.2-.32-.04-.23-.13-.32-.27-.21-.55-.36c-.56-.31-.93-.58-1.1-.8-.17-.22-.26-.46-.26-.72,0-.34.13-.61.39-.83.26-.21.6-.32,1.01-.32s.87.12,1.32.36v.86c-.52-.31-.94-.47-1.26-.47-.17,0-.3.04-.41.11-.1.07-.15.17-.15.28,0,.1.05.2.14.29.09.09.26.2.49.33l.31.18c.73.41,1.1.87,1.1,1.37,0,.36-.14.65-.42.88-.28.23-.64.35-1.09.35-.26,0-.49-.03-.7-.08-.2-.06-.46-.16-.77-.31Z"/>
    <path class="cls-1" d="m96.6,199.22c.14,0,.27.05.37.15s.15.22.15.36-.05.26-.15.36-.22.15-.37.15c-.13,0-.25-.05-.35-.16-.1-.1-.15-.22-.15-.36s.05-.25.15-.36c.1-.1.22-.15.35-.15Zm-.43,1.85h.87v4.39h-.87v-4.39Z"/>
    <path class="cls-1" d="m98.49,198.79h.87v2.59c.38-.27.78-.41,1.2-.41.56,0,1.01.21,1.36.63s.53.96.53,1.62c0,.71-.21,1.27-.63,1.69-.42.42-.98.63-1.69.63-.28,0-.58-.03-.89-.09-.31-.06-.56-.14-.75-.23v-6.42Zm.87,3.42v2.38c.3.09.6.13.91.13.38,0,.7-.14.94-.41.24-.27.37-.62.37-1.05s-.11-.79-.34-1.06c-.23-.27-.52-.41-.89-.41-.32,0-.65.14-.99.43Z"/>
    <path class="cls-1" d="m103.68,198.79h.87v6.66h-.87v-6.66Z"/>
    <path class="cls-1" d="m108.64,201.07h.97l-3.11,6.62h-.97l1.49-3.18-1.69-3.45h.99l1.18,2.48,1.14-2.48Z"/>
    <path class="cls-1" d="m113.45,202.11c0-.41.14-.75.43-1.04s.63-.43,1.03-.43.76.14,1.04.43.43.63.43,1.04-.14.75-.43,1.04-.63.43-1.04.43-.75-.14-1.03-.43c-.29-.29-.43-.63-.43-1.04Z"/>
    <path class="cls-1" d="m126.37,201.07h.93l-1.94,4.46h-.28l-1.3-3.06-1.28,3.06h-.28l-1.95-4.46h.93l1.15,2.66,1.12-2.66h.64l1.11,2.66,1.15-2.66Z"/>
    <path class="cls-1" d="m133.64,201.07h.93l-1.94,4.46h-.28l-1.3-3.06-1.28,3.06h-.28l-1.95-4.46h.93l1.15,2.66,1.12-2.66h.64l1.11,2.66,1.15-2.66Z"/>
    <path class="cls-1" d="m140.91,201.07h.93l-1.94,4.46h-.28l-1.3-3.06-1.28,3.06h-.28l-1.95-4.46h.93l1.15,2.66,1.12-2.66h.64l1.11,2.66,1.15-2.66Z"/>
    <path class="cls-1" d="m142.55,204.39c.16,0,.3.06.41.17s.17.25.17.41-.06.29-.17.4c-.11.11-.25.16-.42.16s-.3-.05-.41-.16-.17-.24-.17-.4.06-.3.17-.41.25-.17.41-.17Z"/>
    <path class="cls-1" d="m144.45,198.79h.87v2.59c.38-.27.78-.41,1.2-.41.56,0,1.01.21,1.36.63s.53.96.53,1.62c0,.71-.21,1.27-.63,1.69-.42.42-.98.63-1.69.63-.28,0-.58-.03-.89-.09-.31-.06-.56-.14-.75-.23v-6.42Zm.87,3.42v2.38c.3.09.6.13.91.13.38,0,.7-.14.94-.41.24-.27.37-.62.37-1.05s-.11-.79-.34-1.06c-.23-.27-.52-.41-.89-.41-.32,0-.65.14-.99.43Z"/>
    <path class="cls-1" d="m153.36,203.34h-3.09c.02.42.16.75.42,1,.26.25.59.37,1,.37.57,0,1.1-.18,1.58-.53v.85c-.27.18-.53.31-.79.38-.26.08-.57.11-.92.11-.48,0-.87-.1-1.17-.3s-.54-.47-.72-.81c-.18-.34-.27-.73-.27-1.18,0-.67.19-1.21.57-1.63.38-.42.87-.63,1.47-.63s1.05.2,1.39.61.52.95.52,1.64v.11Zm-3.07-.52h2.21c-.02-.35-.13-.61-.31-.8s-.43-.28-.74-.28-.57.09-.77.28c-.2.19-.33.45-.39.8Z"/>
    <path class="cls-1" d="m154.32,202.58c0-.47.17-.84.51-1.11.34-.27.81-.41,1.4-.41h1.81v.68h-.89c.17.18.29.33.36.48s.1.31.1.49c0,.23-.07.45-.2.68-.13.22-.3.39-.5.51-.2.12-.54.21-1.01.28-.33.05-.49.16-.49.34,0,.1.06.19.18.25.12.07.34.13.67.2.54.12.88.21,1.04.28.15.07.29.16.42.29.21.21.31.47.31.79,0,.42-.19.75-.56,1-.37.25-.87.37-1.49.37s-1.13-.12-1.5-.37c-.37-.25-.56-.58-.56-1,0-.59.37-.98,1.1-1.15-.29-.19-.44-.37-.44-.56,0-.14.06-.27.19-.38.13-.11.29-.2.51-.25-.65-.29-.97-.75-.97-1.39Zm1.43,3.08c-.29,0-.53.06-.72.19-.19.12-.28.28-.28.48,0,.45.41.68,1.22.68.38,0,.68-.06.89-.17.21-.11.32-.27.32-.48s-.13-.37-.4-.5c-.27-.13-.61-.19-1.03-.19Zm.21-3.84c-.24,0-.44.08-.6.24s-.25.35-.25.57.08.41.24.56c.16.15.37.22.62.22s.45-.08.61-.23c.16-.15.25-.34.25-.57s-.08-.42-.25-.57-.37-.23-.62-.23Z"/>
    <path class="cls-1" d="m161.71,202.82v1.86c0,.15.05.22.15.22s.27-.08.49-.23v.53c-.2.13-.36.21-.47.26-.12.05-.24.07-.37.07-.37,0-.59-.15-.66-.44-.37.29-.76.43-1.18.43-.31,0-.56-.1-.76-.3-.2-.2-.31-.46-.31-.76,0-.28.1-.52.3-.74.2-.22.48-.39.85-.52l1.11-.38v-.23c0-.53-.26-.79-.79-.79-.47,0-.93.24-1.38.73v-.95c.34-.4.82-.6,1.45-.6.47,0,.85.12,1.14.37.1.08.18.19.26.32.08.13.12.26.15.4.02.13.03.38.03.75Zm-.85,1.77v-1.3l-.58.22c-.3.12-.5.24-.63.36-.12.12-.18.27-.18.45s.06.33.17.44c.12.11.27.17.45.17.28,0,.53-.11.77-.34Z"/>
    <path class="cls-1" d="m166.96,202.27v3.19h-.87v-2.44c0-.49-.07-.83-.2-1.02-.13-.19-.36-.29-.68-.29-.18,0-.35.04-.5.12-.15.08-.32.23-.52.44v3.19h-.87v-4.39h.87v.58c.44-.44.87-.66,1.3-.66.56,0,.99.26,1.29.79.46-.53.95-.8,1.45-.8.43,0,.78.16,1.05.47.28.31.41.79.41,1.43v2.59h-.87v-2.6c0-.37-.07-.65-.22-.84s-.36-.29-.64-.29c-.36,0-.69.18-1.01.54Z"/>
    <path class="cls-1" d="m171.1,198.79h.87v2.59c.38-.27.78-.41,1.2-.41.56,0,1.01.21,1.36.63s.53.96.53,1.62c0,.71-.21,1.27-.63,1.69-.42.42-.98.63-1.69.63-.28,0-.58-.03-.89-.09-.31-.06-.56-.14-.75-.23v-6.42Zm.87,3.42v2.38c.3.09.6.13.91.13.38,0,.7-.14.94-.41.24-.27.37-.62.37-1.05s-.11-.79-.34-1.06c-.23-.27-.52-.41-.89-.41-.32,0-.65.14-.99.43Z"/>
    <path class="cls-1" d="m176.29,198.79h.87v6.66h-.87v-6.66Z"/>
    <path class="cls-1" d="m182.39,203.34h-3.09c.02.42.16.75.42,1,.26.25.59.37,1,.37.57,0,1.1-.18,1.58-.53v.85c-.27.18-.53.31-.79.38-.26.08-.57.11-.92.11-.48,0-.87-.1-1.17-.3s-.54-.47-.72-.81c-.18-.34-.27-.73-.27-1.18,0-.67.19-1.21.57-1.63.38-.42.87-.63,1.47-.63s1.05.2,1.39.61.52.95.52,1.64v.11Zm-3.07-.52h2.21c-.02-.35-.13-.61-.31-.8s-.43-.28-.74-.28-.57.09-.77.28c-.2.19-.33.45-.39.8Z"/>
    <path class="cls-1" d="m186.33,202.82v1.86c0,.15.05.22.15.22s.27-.08.49-.23v.53c-.2.13-.36.21-.47.26-.12.05-.24.07-.37.07-.37,0-.59-.15-.66-.44-.37.29-.76.43-1.18.43-.31,0-.56-.1-.76-.3-.2-.2-.31-.46-.31-.76,0-.28.1-.52.3-.74.2-.22.48-.39.85-.52l1.11-.38v-.23c0-.53-.26-.79-.79-.79-.47,0-.93.24-1.38.73v-.95c.34-.4.82-.6,1.45-.6.47,0,.85.12,1.14.37.1.08.18.19.26.32.08.13.12.26.15.4.02.13.03.38.03.75Zm-.85,1.77v-1.3l-.58.22c-.3.12-.5.24-.63.36-.12.12-.18.27-.18.45s.06.33.17.44c.12.11.27.17.45.17.28,0,.53-.11.77-.34Z"/>
    <path class="cls-1" d="m193.13,201.07h.93l-1.94,4.46h-.28l-1.3-3.06-1.28,3.06h-.28l-1.95-4.46h.93l1.15,2.66,1.12-2.66h.64l1.11,2.66,1.15-2.66Z"/>
    <path class="cls-1" d="m197.67,202.82v1.86c0,.15.05.22.15.22s.27-.08.49-.23v.53c-.2.13-.36.21-.47.26-.12.05-.24.07-.37.07-.37,0-.59-.15-.66-.44-.37.29-.76.43-1.18.43-.31,0-.56-.1-.76-.3-.2-.2-.31-.46-.31-.76,0-.28.1-.52.3-.74.2-.22.48-.39.85-.52l1.11-.38v-.23c0-.53-.26-.79-.79-.79-.47,0-.93.24-1.38.73v-.95c.34-.4.82-.6,1.45-.6.47,0,.85.12,1.14.37.1.08.18.19.26.32.08.13.12.26.15.4.02.13.03.38.03.75Zm-.85,1.77v-1.3l-.58.22c-.3.12-.5.24-.63.36-.12.12-.18.27-.18.45s.06.33.17.44c.12.11.27.17.45.17.28,0,.53-.11.77-.34Z"/>
    <path class="cls-1" d="m200.26,201.07v1.01l.05-.08c.42-.68.84-1.02,1.26-1.02.33,0,.67.17,1.03.5l-.46.76c-.3-.29-.58-.43-.84-.43-.28,0-.52.13-.73.4-.21.27-.31.58-.31.95v2.29h-.87v-4.39h.87Z"/>
    <path class="cls-1" d="m206.98,203.34h-3.09c.02.42.16.75.42,1,.26.25.59.37,1,.37.57,0,1.1-.18,1.58-.53v.85c-.27.18-.53.31-.79.38-.26.08-.57.11-.92.11-.48,0-.87-.1-1.17-.3s-.54-.47-.72-.81c-.18-.34-.27-.73-.27-1.18,0-.67.19-1.21.57-1.63.38-.42.87-.63,1.47-.63s1.05.2,1.39.61.52.95.52,1.64v.11Zm-3.07-.52h2.21c-.02-.35-.13-.61-.31-.8s-.43-.28-.74-.28-.57.09-.77.28c-.2.19-.33.45-.39.8Z"/>
    <path class="cls-1" d="m208.81,204.39c.16,0,.3.06.41.17s.17.25.17.41-.06.29-.17.4c-.11.11-.25.16-.42.16s-.3-.05-.41-.16-.17-.24-.17-.4.06-.3.17-.41.25-.17.41-.17Z"/>
    <path class="cls-1" d="m212.85,201.06c.67,0,1.22.22,1.66.65.44.43.66.97.66,1.62s-.22,1.16-.67,1.58c-.45.42-1.01.63-1.69.63s-1.21-.21-1.65-.64c-.44-.43-.66-.96-.66-1.59s.22-1.18.67-1.6c.45-.43,1.01-.64,1.68-.64Zm-.05.78c-.42,0-.76.14-1.03.41s-.4.62-.4,1.04.14.76.41,1.03c.27.27.62.4,1.05.4s.77-.13,1.05-.4c.27-.27.41-.61.41-1.03s-.14-.76-.42-1.03-.64-.41-1.07-.41Z"/>
    <path class="cls-1" d="m217.31,201.07v1.01l.05-.08c.42-.68.84-1.02,1.26-1.02.33,0,.67.17,1.03.5l-.46.76c-.3-.29-.58-.43-.84-.43-.28,0-.52.13-.73.4-.21.27-.31.58-.31.95v2.29h-.87v-4.39h.87Z"/>
    <path class="cls-1" d="m220.27,202.58c0-.47.17-.84.51-1.11.34-.27.81-.41,1.4-.41h1.81v.68h-.89c.17.18.29.33.36.48s.1.31.1.49c0,.23-.07.45-.2.68-.13.22-.3.39-.5.51-.2.12-.54.21-1.01.28-.33.05-.49.16-.49.34,0,.1.06.19.18.25.12.07.34.13.67.2.54.12.88.21,1.04.28.15.07.29.16.42.29.21.21.31.47.31.79,0,.42-.19.75-.56,1-.37.25-.87.37-1.49.37s-1.13-.12-1.5-.37c-.37-.25-.56-.58-.56-1,0-.59.37-.98,1.1-1.15-.29-.19-.44-.37-.44-.56,0-.14.06-.27.19-.38.13-.11.29-.2.51-.25-.65-.29-.97-.75-.97-1.39Zm1.43,3.08c-.29,0-.53.06-.72.19-.19.12-.28.28-.28.48,0,.45.41.68,1.22.68.38,0,.68-.06.89-.17.21-.11.32-.27.32-.48s-.13-.37-.4-.5c-.27-.13-.61-.19-1.03-.19Zm.21-3.84c-.24,0-.44.08-.6.24s-.25.35-.25.57.08.41.24.56c.16.15.37.22.62.22s.45-.08.61-.23c.16-.15.25-.34.25-.57s-.08-.42-.25-.57-.37-.23-.62-.23Z"/>
  </g>
</svg>