<?xml version="1.0" encoding="utf-8"?>
<!-- Generator: Adobe Illustrator 27.6.1, SVG Export Plug-In . SVG Version: 6.00 Build 0)  -->
<svg version="1.1" id="Layer_1" xmlns="http://www.w3.org/2000/svg" xmlns:xlink="http://www.w3.org/1999/xlink" x="0px" y="0px"
	 viewBox="0 0 250 177.4" style="enable-background:new 0 0 250 177.4;" xml:space="preserve">
<style type="text/css">
	.st0{fill:#85754E;}
</style>
<g>
	<path class="st0" d="M47.93,97.58c-0.53-0.03-1.06-0.12-1.43-0.29c-0.95-0.42-1.28-1.48-1.28-1.48c-1.33-4.65,3.33-10.36,5.1-12.83
		c5.4-7.5,11.24-14.55,16.88-21.78c2.89-3.54,6.24-7.29,8.67-10.57c0.19-0.36-0.34-0.51-0.58-0.47c-0.03,0-0.05,0.01-0.08,0.01
		c-0.87,0.1-8.91,1.18-16.65,7.8c-5.06,4.32-14,13.49-20.18,19.97H31.5c0,0-0.05,0.13-0.05,0.22c0,0.09,0.05,0.22,0.05,0.22h6.45
		c-2.95,3.09-5.21,5.5-6.01,6.36l-0.48,0.52c-0.96,1.06-4.78,5.12-9.04,7.45c-2.63,1.44-5.45,2.15-9.34,1.63
		c-3.89-0.52-6.06-2.21-6.78-3c-0.05-0.05-0.1-0.1-0.15-0.16c-0.15-0.17-0.29-0.34-0.43-0.51c-0.62-0.79-1.15-1.68-1.51-2.86
		c-2.53-8.25,4.53-14.67,10.05-16.39c5.78-1.81,12.24,0.34,13.18,5.22c0.29,1.51,0.09,2.81-0.28,3.91c0,0,0,0.01-0.01,0.01
		c-0.02,0.08-0.05,0.15-0.08,0.23c-0.1,0.28-0.21,0.54-0.32,0.8c-1.08,2.18-3.19,3.15-3.21,3.16c-2.69,1.28-6.36,0.36-7.57-1.9
		c-0.63-1.18-0.7-2.42-0.2-3.61c0.57-1.37,1.8-2.38,2.46-2.57c0.09-0.03,0.14-0.12,0.11-0.21c-0.03-0.09-0.12-0.14-0.21-0.11
		c-0.7,0.21-2.03,1.23-2.67,2.77c-0.53,1.28-0.46,2.63,0.22,3.89c1.31,2.44,5.12,3.42,8.01,2.04c0.12-0.05,2.92-1.35,3.79-4.4
		c0-0.02,0-0.03,0-0.05c0.56-1.67,0.59-3.9-0.12-5.66c-1.49-3.72-5.28-5.5-10.61-5.38c-1.23,0.06-1.47,0.08-3.86,0.72
		c-3.87,1.21-7.45,4.18-9,7.71c-1.48,3.4-1.45,8.02,0.12,11.2c0,0-0.01,0-0.01,0s0.02,0.04,0.05,0.1c0.25,0.5,0.55,0.96,0.88,1.37
		c0.39,0.53,0.9,1.11,1.5,1.58c0.6,0.47,7.55,5.31,16.43,0.8c0,0,5.38-2.96,9.98-8.08l1.04-1.11c1.21-1.28,3.05-3.22,5.22-5.5h10.25
		c-0.86,1.13-1.68,2.24-2.51,3.38c0,0-2.17,2.97-3.42,5.66c0,0-3.49,7.38,1.32,9.7c0.91,0.44,2.35,0.59,3.15,0.49
		C48.01,97.62,47.93,97.58,47.93,97.58z M39.54,77.96c7.11-7.42,17.47-18.03,21.33-20.9c1.4-1.04,8.7-5.74,14.16-6.62
		c0.05,0,0.08,0.02,0.1,0.06c0.03,0.05-0.02,0.12-0.11,0.21l-1.16,1.06c-1.56,1.49-3.37,2.94-4.89,4.44
		c-5.24,5.15-9.54,9.59-13.77,14.82c-2.15,2.66-3.89,4.85-5.49,6.94H39.54z"/>
	<path class="st0" d="M109.87,125.67c-5.27-1.12-11.84,5.85-11.92,5.94c0,0-0.05,0.22,0.18,0.19l0.53-0.46
		c2.24-2.1,4.19-3.29,4.19-3.29c3.26-2.28,6.16-1.87,6.16-1.87c1.26,0.17,2.22,0.67,2.81,1.42c1.35,1.71,0.83,4.45-0.08,6.19
		c-1.51,2.88-3.58,5.82-6.02,7.8c-8.67,7.09-17.62,5.02-17.62,5.02c-2.22-0.65-4.23-1.78-5.45-3.35c-1.16-1.49-1.87-3.47-1.77-6.11
		c0.19-5.12,4.26-10.88,7.54-14.73c1.96,0.09,3.88,0.05,5.61,0.02c6.26-0.11,12.95-2.25,14.07-2.62c0,0,6.78-2.15,12.15-5.87
		c0.85-0.59,1.64-1.24,2.34-1.95c0.38-0.39,1.07-1.12,1.47-1.89c2.82-4.78-2.27-5.79-4.94-6.01c-9.3-0.92-19.13,3.99-25.52,8.77
		c0,0-3.26,2.61-5.11,4.51c-1.49,1.36-2.56,2.63-3.17,3.33c0,0-0.29,0.32-0.74,0.88c-2.39-0.47-3.67-1.1-4.39-1.45
		c-1.56-0.76-9.33-6.49-3.47-14.69c5.86-8.2,16.95-2.3,16.95-2.3s0.1,0.05,0.27,0.14c0,0,0.08-0.04,0.13-0.12
		c0.06-0.11,0.02-0.18,0.02-0.18s-0.3-0.16-0.45-0.24c-14.1-7.66-22.73,4.54-19.73,11.75c1.97,4.73,6,6.69,10.37,7.48
		c-2.68,3.41-9.27,13.07-4.44,20.35c1.39,2.09,3.62,3.49,5.96,4.23c0.69,0.22,1.55,0.46,2.39,0.57c10.76,1.55,17.87-5.24,17.87-5.24
		s0.15-0.13,0.44-0.38c2.76-2.29,5.52-5.86,6.47-8.28C114.3,129.8,113.28,126.25,109.87,125.67z M92.6,118.03
		c1.21-1.17,2.85-2.48,2.85-2.48s2.05-1.71,4.5-3.4c1.76-1.21,3.69-2.33,4.71-2.93l1.97-1.03c3.46-1.62,7.04-3.37,11.75-3.72
		c9.56,0.11,4.98,5.67,4.98,5.67s-0.01,0.02-0.03,0.05c-1.07,1.28-2.69,2.72-5.28,4.36c-2.61,1.93-10.03,4.87-10.03,4.87
		c-1.27,0.48-6.16,2.39-14,2.72c-2.03,0.08-3.78,0.07-5.28-0.02C90.85,119.64,92.6,118.03,92.6,118.03z"/>
	<path class="st0" d="M164.7,130.57c-0.07-0.04-0.15-0.04-0.15-0.04c-0.58,0.8-2.47,3.26-3.66,4.49c-1.53,1.58-3.84,1.11-3.84,1.11
		c-0.42-0.06-0.79-0.16-1.11-0.28c1.47-2.4,2.86-4.85,3.16-5.38l0,0c0.01-0.01,0.01-0.02,0.02-0.03c0.03-0.05,0.04-0.07,0.04-0.07
		l0,0c1.64-3.1-1.7-4.64-3.58-3.02c-2.16,1.86-2.38,4.09-2.38,4.09c-0.4,2.78,0.48,4.25,1.73,5.01c-1.23,1.92-3.14,4.73-4.41,5.73
		c-0.89,0.7-1.74,1.13-2.46,1.4c-1.43,0.43-3.06,0.58-4.07-0.5c-1.33-1.73,3.47-7.33,4.73-9.22c5.17-7.69,10.34-15.38,15.51-23.06
		c-0.64,0-1.29,0-1.93,0c-4.39,6.4-8.79,12.8-13.18,19.21c-2.54,3.67-3.92,5.64-6.66,9.09l-1.11,1.24l-2.38,2.46
		c-1.34,1.41-4.02,1.9-3.67,0.06c0.36-1.35,1.69-3.43,2.48-4.72c2.23-3.64,4.4-7.28,6.58-10.95c-0.78-0.03-1.59,0.03-2.37,0
		c-0.8,1.29-1.59,2.54-2.39,3.83c-1.54,2.45-3.14,4.79-4.74,7.13c-0.06,0.07-2.35,2.92-4.57,4.23c-2.37,1.4-5.19,2.26-4.33-0.03
		c0.52-1.18,1.51-2.74,1.91-3.38c2.41-3.94,4.82-7.88,7.23-11.81c-0.78,0-1.55,0-2.33,0c-0.74,1.3-1.06,1.88-2.64,4.44l-2.49,3.71
		c-0.22,0.29-0.37,0.49-0.37,0.49c-2.53,3.47-7.05,7.21-7.05,7.21c-0.46,0.37-1.16,1.09-2.49,0.94c-1.44-0.16-1.59-1.61-1.59-1.61
		s0-0.01,0-0.01c-0.06-0.54,0.04-1.11,0.52-1.8c0.26-0.44,4.33-6.61,4.33-6.61c5.09-7.75,10.17-15.5,15.26-23.24
		c0.05-0.05,0.11-0.11,0.16-0.16c-0.72-0.03-1.45-0.05-2.17-0.08c-5.36,8.12-10.72,16.23-16.07,24.35c-0.85,1.29-3.23,4.43-3.11,6.7
		l-0.01,0c0,0.06,0.01,0.11,0.02,0.17c0,0.02,0,0.05,0.01,0.07c0.26,2.28,1.99,3.07,3.83,2.48c0.27-0.09,0.52-0.17,0.82-0.35
		c0.66-0.41,2.02-1.64,2.28-1.9c0,0,2.55-2.17,4.57-4.64c-0.86,1.43-1.85,3.01-2.05,3.35c-0.45,0.76-0.95,1.86-0.4,2.61l0,0
		c0.06,0.1,0.95,1.8,4.41,0.46c2.94-1.14,4.43-2.83,5.67-4.25c0.15-0.17,0.27-0.32,0.38-0.46c0.35-0.36,0.61-0.59-0.04,0.75
		c-0.7,1.44-0.96,2.61-0.67,3.48l0,0c0,0,0.04,0.15,0.16,0.35c0,0,0,0.01,0.01,0.01c0,0,0,0,0,0c0.17,0.27,0.48,0.6,1.07,0.78
		c1.05,0.31,2.55-0.01,3.52-0.75c0.47-0.36,2.08-2.06,3.59-3.69c0.05-0.01,0.07,0.01,0.03,0.19c-0.17,1.24-0.39,2.11,0.29,3.2
		c0.47,0.76,1.59,1.12,2.75,1.16l0,0c0.01,0,0.01,0,0.02,0c0.17,0.01,0.34,0.01,0.51,0c3.74-0.06,5.71-2.27,7.58-4.76
		c0.58-0.78,1.3-1.87,2.03-3.04c0.19,0.08,0.38,0.15,0.57,0.21c0,0,0.72,0.23,2.01,0.18c1.06-0.04,2.11-0.59,3.09-1.59l0.05-0.05
		c1.46-1.6,3.04-3.92,3.67-4.77C164.79,130.69,164.77,130.62,164.7,130.57z M153.61,131.37c0.16-1.77,2.27-4.95,4.33-4.19
		c1.79,0.66,0.9,2.65,0.5,3.37l-2.35,3.97c0,0-0.26,0.43-0.67,1.09C153.01,134.33,153.61,131.37,153.61,131.37z"/>
	<path class="st0" d="M101.91,50.46c2.45-0.06,4.69-0.42,6.83-0.95c0,0,1.52-0.4,2.72-0.81c1.2-0.41,2.19-0.84,2.19-0.84
		c0.71-0.29,1.43-0.63,2.09-0.98l0.91,0.5l4.87,2.67c4.51,2.29,8.96,4.48,14.8,5.39c1.95,0.3,3.77,0.05,5.3-0.48
		c0-0.01,0.02,0,0.02-0.04s-0.02-0.03-0.02-0.04c-5.07,1.12-22.15-9.18-22.15-9.18l-0.84-0.49c0.14-0.09,0.23-0.15,0.23-0.15
		c3.61-2.23,8.35-5.76,11.87-10.56c1.15-1.41,2.24-2.85,3.27-4.21c0.44-0.58,1.8-2.44,3.33-4.56c6.65-1.11,12.21-4.92,14.48-6.67
		c3.09-2.33,6.35-6.27,7.82-8.7c0.52-0.86,1.74-2.74,1.78-4.3c0.18-2.5-1.48-3.2-1.6-3.26c-0.08-0.04-0.42-0.22-1.21-0.21
		c-0.31-0.01-0.63,0.03-0.95,0.09c-0.17,0.03-0.27,0.05-0.33,0.07c-1.32,0.32-2.64,1.06-3.4,1.5c-8.48,4.96-15.38,13.71-21.13,21.46
		c0,0-0.58-0.01-1.34-0.01c-8.79-0.2-19.08-2.8-16.9-12.68c2.45-11.09,16.81-9.11,16.81-9.11c0.3,0.04,0.59,0.08,0.88,0.12
		c0.1,0.02,0.2,0.03,0.29,0.05c0.19,0.03,0.39,0.06,0.58,0.1c0.11,0.02,0.22,0.04,0.33,0.06c0.2,0.04,0.39,0.08,0.59,0.12
		c0.09,0.02,0.18,0.04,0.28,0.06c0,0,0,0,0.01,0c0.02,0.01,0.04,0.01,0.07,0.02c2.01,0.48,3.71,1.38,3.91,1.47
		c0.22,0.11,1.73,0.97,0.18,0c-1.83-1.15-4.12-1.83-4.12-1.83s-0.01,0-0.02,0c-2.97-0.98-6.35-1.18-9.6-0.62
		c-0.01,0-0.03,0-0.04,0.01c-0.2,0.03-0.39,0.07-0.59,0.11c-0.04,0.01-0.09,0.02-0.13,0.03c-0.18,0.04-0.35,0.08-0.53,0.12
		c-0.06,0.01-0.12,0.03-0.18,0.04c-0.16,0.04-0.32,0.08-0.48,0.13c-0.07,0.02-0.15,0.04-0.22,0.06c-0.15,0.04-0.3,0.09-0.45,0.13
		c-0.08,0.03-0.17,0.05-0.25,0.08c-0.14,0.05-0.28,0.09-0.42,0.14c-0.09,0.03-0.18,0.06-0.27,0.09c-0.13,0.05-0.26,0.1-0.39,0.15
		c-0.09,0.04-0.19,0.07-0.28,0.11c-0.12,0.05-0.25,0.1-0.37,0.16c-0.1,0.04-0.19,0.09-0.29,0.13c-0.12,0.05-0.23,0.11-0.35,0.17
		c-0.1,0.05-0.2,0.1-0.3,0.15c-0.11,0.06-0.22,0.11-0.33,0.17c-0.1,0.05-0.2,0.11-0.3,0.16c-0.11,0.06-0.21,0.12-0.31,0.18
		c-0.1,0.06-0.2,0.12-0.3,0.18c-0.1,0.06-0.2,0.12-0.3,0.19c-0.1,0.07-0.2,0.13-0.3,0.2c-0.09,0.06-0.19,0.13-0.28,0.19
		c-0.1,0.07-0.2,0.14-0.29,0.22c-0.09,0.07-0.18,0.13-0.26,0.2c-0.1,0.08-0.2,0.16-0.29,0.24c-0.08,0.07-0.17,0.13-0.25,0.2
		c-0.1,0.09-0.19,0.17-0.29,0.26c-0.08,0.07-0.15,0.14-0.23,0.2c-0.1,0.09-0.2,0.19-0.29,0.29c-0.07,0.07-0.14,0.13-0.2,0.2
		c-0.11,0.11-0.21,0.22-0.31,0.34c-0.05,0.06-0.11,0.12-0.16,0.17c-0.15,0.18-0.3,0.35-0.44,0.54c-1.15,1.48-2.38,3.97-1.93,6.75
		c1.33,8.28,10.84,10.24,20.38,9.99c-0.33,0.4-0.37,0.45-0.85,1.02c-3.02,3.75-6.66,8.53-9.11,11.33c0,0-2.31,2.76-5.57,5.55
		l-0.15,0.11l-2.59-1.52c-8.02-4.39-13.45-4.12-13.45-4.12c-1.29-0.01-2.58,0.15-3.85,0.54c-4.02,1.25-5.53,3.75-5.09,6.07
		C91.86,45.12,92.69,50.69,101.91,50.46z M142.79,18.17c3.08-4.32,6.4-8.99,10.49-12.3c1.67-1.35,3.09-2.74,5.7-2.76
		c0.59,0.03,0.98,0.22,1.2,0.38c1.27,1.02,0.91,2.69,0.91,2.69s0,0,0,0.01c-0.87,3.82-5.7,9.03-8.61,11.67l0,0
		c0,0-0.01,0.01-0.04,0.03c-0.06,0.05-0.11,0.1-0.16,0.15c-1.12,0.99-6.95,5.84-14.65,7.28C139.75,22.39,142.09,19.15,142.79,18.17z
		 M96.71,42.19c4.15-1.72,10.1,0.04,13.02,1.48c0.95,0.47,1.6,0.82,1.95,1l1.39,0.75l1.26,0.69l-0.09,0.07
		c-2.16,1.45-3.75,2.39-5.68,3.01c-1.62,0.52-3.87,0.8-5.94,0.93c-0.33,0.02-0.86,0.04-1.49,0.02c-1-0.03-2.24-0.13-3.33-0.41
		c-1.52-0.39-2.61-0.92-3.19-1.47c-0.34-0.32-0.58-0.84-0.58-0.84C93.1,45.41,94.77,42.99,96.71,42.19z"/>
	<path class="st0" d="M154.22,43.43c0.66-1.16,1.01-2.42,0.83-3.66c-0.35-2.49-1.43-4.66-1.52-7.32c0.77-0.91,4.63-5.52,1.96-5.59
		c-3.04-0.08-3.28,5.73-3.28,5.73c0,0,0,0,0,0c-0.01,0.2-0.01,0.43,0,0.75c-3.81,4.38-10.32,10.37-12.67,12.2
		c-3.3,2.57-5.4,1.98-5.4,1.98s-0.11-0.02-0.25-0.06c-0.36-0.16-0.66-0.37-0.87-0.78c-0.85-1.65,0.53-4.42,2.55-7.19
		c1.65-0.03,5.14-0.25,7.1-1.65c0.01-0.01,0.02-0.01,0.02-0.02c1.96-1.19,3.95-3.37,4.55-4.32c0.43-0.68,0.84-1.85,0.69-2.58
		c-0.35-2.85-5.26-0.7-5.26-0.7l0.01,0c-0.57,0.22-1.11,0.48-1.63,0.79c-3.63,2.12-6.66,5.43-8.68,9.16
		c-1.1,2.03-1.87,5.42-0.24,6.91c0.01,0.01,0.02,0.02,0.04,0.04c0,0,0.01,0.01,0.01,0.01c0.1,0.09,0.27,0.23,0.37,0.28
		c0.1,0.05,0.21,0.1,0.32,0.14c0.02,0.01,0.05,0.02,0.07,0.03c0.08,0.03,0.16,0.06,0.25,0.08c0.02,0.01,0.04,0.01,0.07,0.02
		c2.12,0.62,4.49-0.53,6.04-1.54c0.61-0.4,1.73-1.33,3.13-2.6c-0.19,0.64-0.13,1.36,0.2,2.08c0.64,1.39,2.35,2.73,4.72,2.58
		c1.07-0.07,2.04-0.37,2.99-0.94c1.3-0.75,2.63-1.94,3.54-3.33c2.88-1.44,6.38-3.81,12.02-9.34c0.28-0.28,0.01-0.35,0.01-0.35
		c-0.05-0.02-0.14,0.02-0.16,0.05c-0.13,0.13-0.4,0.48-2.51,2.41c-0.46,0.42-1.27,1.13-1.95,1.74
		C158.65,40.86,155.92,42.51,154.22,43.43z M137.94,36.56c2.16-2.5,3.76-4.43,6.5-6.19c2.61-1.41,2.92-0.29,2.96,0.08
		c0.02,2.8-3.74,6.39-6.47,7.72c-0.46,0.19-1.91,0.68-5.05,0.92C136.53,38.24,137.23,37.38,137.94,36.56z M149.74,46.18
		L149.74,46.18c0,0-2.36,2.52-4.98,1.16c-0.86-0.46-1.48-1.14-1.8-1.85c-0.45-0.98-0.34-1.97,0.29-2.67
		c0.11-0.1,0.23-0.21,0.34-0.32c1.38-1.04,3.22-0.05,5.15,1c0.75,0.41,1.51,0.81,2.25,1.09C150.6,45.16,150.17,45.68,149.74,46.18z
		 M151.18,44.32c-0.74-0.27-1.51-0.69-2.28-1.11c-1.56-0.85-3.16-1.72-4.54-1.42c2.26-2.11,4.89-4.69,7.27-7.14
		c0.22-0.23,0.43-0.45,0.62-0.66c0,0.05,0.01,0.11,0.01,0.17c0.2,1.2,0.23,1.48,0.46,2.57C153.37,39.91,152.5,42.34,151.18,44.32z"
		/>
	<path class="st0" d="M247.08,80.05c-0.05-0.02-0.14,0.02-0.16,0.05c-0.13,0.13-0.4,0.48-2.51,2.41c-0.46,0.42-1.27,1.13-1.95,1.74
		c-2.67,2.4-5.39,4.06-7.09,4.98c0.66-1.16,1.01-2.42,0.83-3.66c-0.36-2.56-1.5-4.79-1.53-7.55c0.99-1.37,2.32-2.94,2.33-5.22
		c-0.02-0.04-0.05-0.06-0.1-0.06c-0.04,0-0.13,0.01-0.19,0.05c-1.63,1.24-2.64,2.21-3.16,4.54c-0.18,0.78-0.23,0.97-0.19,1.75
		l-8.81,8.9l-3.32,3.35c-0.75,0.77-1.67,1.29-1.67,1.29c-2.4,1.37-3.13,0.26-3.28-0.05c-0.48-1.53,0.76-3,1.54-4.02
		c1.9-2.57,3.8-5.12,5.7-7.69c0.24-0.32,0.52-0.66,0.78-0.97c2.01-2.59-0.08-2.83-0.08-2.83c-1.25-0.05-2.02,0.75-3.42,0.93
		c-0.71,0.08-0.85-0.3-0.85-0.3c-0.42-0.94,0.32-1.88,0.33-2.74c0.03-1.43-1.13-0.62-1.13-0.62c-1.18,0.7-2.68,3.09-1.04,4.24
		c0,0,0.01,0,0.03,0l-6.32,7.14l-0.16,0.17l-3.17,3.55l-2.38,2.46c-1.34,1.41-4.02,1.9-3.67,0.06c0.36-1.35,1.69-3.43,2.48-4.72
		c2.23-3.64,4.37-7.23,6.56-10.89c-0.78-0.03-1.55-0.05-2.33-0.08c-0.8,1.29-1.61,2.57-2.41,3.86c-1.54,2.45-3.14,4.79-4.74,7.13
		c-0.06,0.07-2.35,2.92-4.57,4.23c-2.37,1.4-5.19,2.26-4.33-0.03c0.52-1.18,1.51-2.74,1.91-3.38c2.41-3.94,4.82-7.88,7.23-11.81
		c-0.78,0-1.55,0-2.33,0c-1.16,2.04-1.43,2.53-5.16,8.47c-2.85,2.76-5.65,5.26-7.03,6.33c-3.3,2.57-5.4,1.98-5.4,1.98
		s-0.11-0.02-0.25-0.06c-0.36-0.16-0.66-0.37-0.87-0.78c-0.85-1.65,0.53-4.42,2.55-7.19c1.65-0.03,5.14-0.25,7.1-1.65
		c0.01-0.01,0.02-0.01,0.03-0.02c1.96-1.19,3.95-3.37,4.55-4.32c0.43-0.68,0.84-1.85,0.69-2.58c-0.35-2.85-5.26-0.7-5.26-0.7l0.01,0
		c-0.57,0.22-1.11,0.48-1.63,0.79c-3.55,2.07-6.52,5.28-8.53,8.9c-1.92,1.72-3.66,3.22-4.25,3.8c-0.62,0.6-1.44,1.38-2.16,2.03
		c-0.81,0.73-1.5,1.3-1.5,1.3c-1.13,0.8-3.05,0.56-0.39-3.76l-0.01,0.01c0.14-0.2,0.28-0.4,0.39-0.57
		c2.54-4,18.84-27.88,18.84-27.88h-2.82L177.92,76.1c-0.41,0.61-0.81,1.22-1.22,1.82c-0.04,0.05-0.08,0.1-0.13,0.17
		c-0.7,0.91-0.87,0.03-0.9-0.28c-0.26-3.6-5.21-1.61-5.21-1.61s0,0,0,0c-0.34,0.12-0.67,0.27-0.97,0.46
		c-1.78,1.07-2.84,2.36-4.67,5.04c-0.34,0.49-1.16,1.79-1.82,2.83c-2.28,2.08-4.55,4.02-5.24,4.69c-0.62,0.6-1.44,1.38-2.16,2.03
		c-0.81,0.73-1.5,1.3-1.5,1.3c-1.13,0.8-3.05,0.56-0.39-3.76l-0.01,0.01c0.14-0.2,0.28-0.4,0.39-0.57
		c2.57-4.04,5.14-8.09,7.71-12.13c-0.86,0-1.71,0-2.57,0c-0.41,0.61-0.81,1.22-1.22,1.82c-0.04,0.05-0.08,0.1-0.13,0.17
		c-0.7,0.91-0.87,0.03-0.9-0.28c-0.26-3.6-5.21-1.61-5.21-1.61s0,0,0,0c-0.34,0.12-0.67,0.27-0.97,0.46
		c-1.78,1.07-2.84,2.36-4.67,5.04c-0.38,0.56-1.4,2.17-2.08,3.25c-2.4,2.02-4.75,3.44-6.28,4.27c0.66-1.16,1.01-2.42,0.83-3.66
		c-0.35-2.49-1.43-4.67-1.52-7.32c0.77-0.91,4.62-5.52,1.96-5.59c-3.04-0.08-3.28,5.73-3.28,5.73c0,0,0,0,0,0
		c-0.02,0.24-0.01,0.51,0.01,0.93c-0.26,0.31-0.56,0.68-0.94,1.12c-0.4,0.47-1.12,1.28-1.72,1.97c-2.08,2.4-4.27,4.23-5.84,5.4
		c-0.2,0.1-0.39,0.24-0.57,0.41c-0.81,0.58-1.37,0.93-1.56,1.04c0.67-1.17,1.04-2.45,0.86-3.71c-0.35-2.49-1.43-4.67-1.52-7.32
		c0.77-0.91,4.63-5.52,1.96-5.59c-3.04-0.08-3.28,5.73-3.28,5.73c0,0,0,0,0,0c-0.02,0.28-0.01,0.6,0.03,1.16
		c-2.16,2.77-8.91,8.42-10.2,9.68c-0.62,0.6-1.44,1.38-2.16,2.03c-0.81,0.73-1.5,1.3-1.5,1.3c-1.13,0.8-3.05,0.56-0.39-3.76
		l-0.01,0.01c0.14-0.2,0.28-0.4,0.39-0.57c2.57-4.04,5.14-8.09,7.71-12.13c-0.86,0-1.71,0-2.57,0c-0.41,0.61-0.81,1.22-1.22,1.82
		c-0.04,0.05-0.08,0.1-0.13,0.17c-0.7,0.9-0.86,0.05-0.9-0.27c-0.25-3.61-5.22-1.62-5.22-1.62s0,0,0,0
		c-0.34,0.12-0.67,0.27-0.97,0.46c-1.78,1.07-2.84,2.36-4.67,5.04c-0.48,0.7-1.95,3.04-2.52,3.94c-1.65,0-2.89-0.2-2.89-0.2
		c-0.42-0.06-0.79-0.16-1.11-0.28c1.47-2.4,2.86-4.85,3.16-5.38l0,0c0.01-0.01,0.01-0.02,0.02-0.03c0.03-0.05,0.04-0.07,0.04-0.07
		l0,0c1.64-3.09-1.7-4.64-3.58-3.02c-2.16,1.86-2.38,4.09-2.38,4.09c-0.4,2.78,0.48,4.25,1.73,5.01c-1.23,1.92-3.14,4.73-4.41,5.73
		c-0.89,0.7-1.74,1.13-2.46,1.4c-1.43,0.43-3.06,0.58-4.06-0.5c-1.33-1.73,3.47-7.33,4.73-9.22c5.17-7.69,10.34-15.38,15.51-23.06
		c-0.64,0-1.29,0-1.93,0c-4.39,6.4-8.79,12.8-13.18,19.21c-1.99,2.88-3.27,4.71-5.05,7.03c-1.38,1.44-6.05,6.13-8.17,5.9
		c-0.34-0.07-0.56-0.21-0.76-0.38c-1.72-1.52,4-8.07,6.01-11.08c0.83-1.25,2.64-3.07,1.78-4.43c-0.16-0.22-0.36-0.39-0.63-0.49
		l0.01-0.01c-2.44-1.42-7.54,2.86-8.43,3.63c-0.01,0-0.02,0-0.03,0c-0.9,0,0.05-2.03-0.4-2.89c-0.2-0.42-0.64-0.62-1.19-0.7l0,0
		c0,0-1.98-0.29-3.41,0.29c-1.36,0.56-3.08,1.51-4.81,2.8C62.93,78.99,62.93,79,62.93,79c-0.01,0.01-0.05,0.04-0.15,0.11
		c-0.06,0.04-0.16,0.04-0.26,0.03c-1.11-0.36,0.68-2.43,1.25-3.28c-0.88,0-1.77,0-2.65,0c-3.59,5.6-7.16,11.18-10.75,16.78
		c-0.06,0.11-0.09,0.14-0.17,0.26c0.75,0,1.57,0,2.32,0c2.18-3.42,4.54-6.66,6.99-9.8c1.13-1.32,2.2-2.37,3.19-3.4
		c0.11-0.11,0.21-0.21,0.27-0.27c0,0,5.49-4.28,6.71-2.98c0,0,0.32,0.23,0.22,1.24c-0.27,1.52-1.22,2.7-2.29,4.26
		c-2.55,3.89-4.2,6.19-7.2,10.72c-0.06,0.1-0.09,0.15-0.14,0.24c0.72,0,1.51,0,2.23,0c1.63-2.17,3.27-4.34,4.9-6.51
		c2.85-3.65,4.05-4.61,6.08-6.79c2.61-2.4,3.81-2.89,4.98-3.25c2.07-0.64,1.49,0.69,1.49,0.69l0,0c0,0,0,0.01,0,0.01
		c-0.27,0.85-0.94,1.84-1.47,2.59l-5.69,8.12c-0.95,1.51-2.45,3.99-1.45,5.38c0.41,0.7,1.69,0.61,2.84,0.23
		c0.38-0.11,3.56-1.13,6.87-4.35c0.17-0.05,0.2,0.07,0.13,0.43c-0.17,1.24-0.39,2.11,0.29,3.2c0.47,0.76,1.59,1.11,2.75,1.16l0,0
		c0.01,0,0.01,0,0.02,0c0.17,0.01,0.34,0,0.51,0c3.74-0.06,5.71-2.27,7.58-4.76c0.58-0.78,1.3-1.87,2.03-3.04
		c0.19,0.08,0.38,0.15,0.57,0.21c0,0,0.62,0.21,3.51,0.19l-0.94,1.74c-0.48,1.03-0.86,2.19-0.62,3.16l0,0c0,0,0.01,0.04,0.03,0.11
		c0.03,0.08,0.08,0.21,0.15,0.37c0.29,0.6,0.98,1.58,2.45,1.86c2.13,0.39,4.25-1.83,5-2.69c0.48-0.56,1.1-1.3,1.5-1.78
		c0.15-0.15,0.3-0.25,0.41-0.22c0.36,0.02-0.15,1.49-0.12,2.64c0,0.02,0,0.04,0,0.06c0.01,0.42,0.11,1.62,1.05,1.92
		c0.48,0.16,1.33,0.25,2.15-0.42c1.17-0.96,2.23-2.32,3.99-3.95c-0.25,0.67-0.21,1.44,0.15,2.21c0.64,1.39,2.35,2.73,4.73,2.58
		c1.07-0.07,2.05-0.37,2.99-0.95c1.28-0.73,2.58-1.9,3.49-3.25c0.24-0.13,0.65-0.38,1.31-0.81c-0.34,0.71-0.33,1.58,0.06,2.43
		c0.64,1.39,2.35,2.73,4.73,2.58c1.07-0.07,2.05-0.37,2.99-0.94c1.3-0.75,2.63-1.94,3.54-3.33c1.71-0.86,3.65-2.05,6.12-4.03
		c-0.12,0.18-0.19,0.3-0.19,0.3l-1.16,2.15c-0.48,1.03-0.86,2.19-0.62,3.16l0,0c0,0,0.01,0.04,0.03,0.11
		c0.04,0.13,0.09,0.25,0.15,0.37c0.29,0.6,0.98,1.58,2.45,1.86c2.13,0.39,4.25-1.83,5-2.69c0.48-0.56,1.1-1.3,1.5-1.78
		c0.15-0.14,0.3-0.25,0.41-0.21c0.36,0.02-0.17,1.54-0.12,2.71c0.01,0.42,0.12,1.62,1.05,1.92c0.48,0.16,1.33,0.25,2.15-0.42
		c1.38-1.13,2.59-2.8,4.97-4.82c1.14-0.98,2.2-1.9,3.14-2.76c-0.16,0.26-0.26,0.42-0.26,0.42l-1.16,2.15
		c-0.48,1.03-0.86,2.19-0.62,3.16l0,0c0,0,0.01,0.04,0.03,0.11c0.04,0.13,0.09,0.25,0.15,0.37c0.29,0.6,0.98,1.58,2.45,1.86
		c2.13,0.39,4.25-1.83,5-2.69c0.48-0.56,1.1-1.3,1.5-1.78c0.15-0.14,0.3-0.25,0.41-0.21c0.36,0.02-0.17,1.54-0.12,2.71
		c0.01,0.42,0.12,1.62,1.05,1.92c0.48,0.16,1.33,0.25,2.15-0.42c1.38-1.13,2.59-2.8,4.97-4.82c0.85-0.72,1.64-1.42,2.39-2.08
		c-0.93,2.05-1.44,4.98,0.04,6.34c0.01,0.01,0.02,0.02,0.03,0.03c0.01,0.01,0.02,0.02,0.03,0.03c0.1,0.09,0.27,0.22,0.37,0.28
		c0.1,0.05,0.21,0.09,0.31,0.14c0.03,0.01,0.05,0.03,0.08,0.04c0.08,0.03,0.16,0.05,0.24,0.08c0.03,0.01,0.05,0.02,0.08,0.02
		c2.12,0.62,4.49-0.53,6.04-1.54c1.05-0.68,3.61-2.97,6.54-5.78c-0.92,1.55-2.14,3.5-2.36,3.88c-0.45,0.76-0.95,1.86-0.4,2.61l0,0
		c0,0,0.02,0.03,0.07,0.09c0,0,0.01,0.01,0.01,0.01c0,0,0,0,0,0c0.3,0.35,1.52,1.44,4.33,0.36c2.94-1.14,4.43-2.83,5.67-4.25
		c0.15-0.17,0.27-0.32,0.38-0.46c0.35-0.36,0.61-0.59-0.04,0.75c-0.7,1.44-0.96,2.61-0.67,3.48l0,0c0,0,0.04,0.15,0.16,0.35
		c0,0,0,0.01,0.01,0.01c0,0,0,0,0,0c0.17,0.27,0.48,0.6,1.07,0.78c1.05,0.31,2.55-0.01,3.52-0.75c0.89-0.69,5.81-6.09,6.51-6.87
		l6.58-7.3c1.14,0,3.25-0.01,3.81-0.01l-2.13,3.07c-1.71,2.5-3.52,4.89-5.28,7.31c-1.02,1.41-1.25,3.03-0.03,3.95
		c1.37,1.14,3.06,1.03,4.56,0.15c0,0,0.64-0.41,1.03-0.76c0.18-0.16,0.75-0.71,0.75-0.71l1.99-2.03c-0.12,0.59-0.05,1.23,0.24,1.87
		c0.64,1.39,2.35,2.73,4.73,2.58c1.07-0.07,2.04-0.37,2.98-0.94c1.3-0.75,2.63-1.94,3.55-3.33c2.88-1.44,6.39-3.81,12.02-9.34
		C247.34,80.12,247.08,80.05,247.08,80.05z M186.1,82.08c2.17-2.5,3.76-4.44,6.5-6.19c2.63-1.42,2.93-0.27,2.96,0.09
		c0.01,2.8-3.74,6.39-6.47,7.71c-0.46,0.19-1.91,0.68-5.05,0.92C184.68,83.75,185.39,82.9,186.1,82.08z M92.53,80.67
		c0.16-1.77,2.27-4.95,4.33-4.18c1.79,0.66,0.9,2.65,0.5,3.38l-2.35,3.97c0,0-0.26,0.43-0.67,1.09
		C91.93,83.64,92.53,80.67,92.53,80.67z M105.78,88.76c-0.07,0.09-0.13,0.18-0.18,0.26c-0.57,0.79-2.55,3.37-4.3,3.93
		c-1.58,0.51-2.65-0.13-2.94-1.02c-0.18-0.89,0.2-1.79,0.66-2.57l5.29-8.17c1.43-2.03,3.03-3.88,4.43-4.75
		c2.85-1.34,3.17,1.32,3.16,1.66c0,0.02,0,0.04,0,0.07C111.78,80.54,107.1,86.9,105.78,88.76z M120.69,91.97L120.69,91.97
		c0,0-2.36,2.52-4.98,1.17c-0.86-0.46-1.48-1.15-1.81-1.85c-0.46-1.01-0.34-2.03,0.34-2.72c1.41-1.45,3.37-0.39,5.45,0.74
		c0.75,0.41,1.51,0.81,2.25,1.09C121.55,90.95,121.13,91.47,120.69,91.97z M122.13,90.11c-0.74-0.27-1.51-0.69-2.28-1.11
		c-1.56-0.85-3.17-1.72-4.54-1.42c4.7-4.07,7.65-7.17,7.93-7.47c0.17,1.06,0.22,1.36,0.43,2.4
		C124.33,85.7,123.45,88.13,122.13,90.11z M133.28,91.97L133.28,91.97c0,0-2.35,2.51-4.98,1.17c-0.86-0.46-1.49-1.15-1.81-1.85
		c-0.46-1.01-0.34-2.03,0.34-2.72c0.07-0.07,0.15-0.14,0.22-0.2c0.07-0.05,0.15-0.11,0.23-0.16c1.37-0.87,3.14,0.08,5,1.1
		c0.75,0.41,1.51,0.81,2.25,1.09C134.13,90.95,133.71,91.47,133.28,91.97z M134.71,90.11c-0.74-0.27-1.51-0.69-2.28-1.11
		c-1.47-0.8-2.97-1.61-4.29-1.46c2.04-1.6,4.46-3.92,7.64-7.78c0,0.06,0.01,0.11,0.01,0.17c0.2,1.2,0.23,1.48,0.46,2.57
		C136.91,85.7,136.04,88.13,134.71,90.11z M150.53,88.76c-0.07,0.1-0.13,0.18-0.18,0.26c-0.58,0.79-2.55,3.37-4.3,3.93
		c-1.58,0.51-2.65-0.13-2.94-1.02c-0.18-0.89,0.2-1.79,0.66-2.57l5.29-8.17c1.43-2.03,3.03-3.88,4.43-4.75
		c2.85-1.34,3.17,1.32,3.16,1.66c0,0.02,0,0.04,0,0.07C156.53,80.54,151.86,86.9,150.53,88.76z M169.23,88.76
		c-0.07,0.1-0.13,0.18-0.18,0.26c-0.58,0.79-2.55,3.37-4.3,3.93c-1.58,0.51-2.65-0.13-2.94-1.02c-0.18-0.89,0.2-1.79,0.66-2.57
		l5.29-8.17c1.43-2.03,3.03-3.88,4.43-4.75c2.85-1.34,3.17,1.32,3.16,1.66c0,0.02,0,0.04,0,0.07
		C175.23,80.54,170.56,86.9,169.23,88.76z M230.88,91.97L230.88,91.97c0,0-2.35,2.51-4.98,1.17c-0.86-0.46-1.49-1.15-1.81-1.85
		c-0.39-0.84-0.36-1.69,0.05-2.35l0.7-0.71c1.37-0.9,3.15,0.06,5.03,1.08c0.75,0.41,1.51,0.81,2.25,1.09
		C231.74,90.96,231.31,91.48,230.88,91.97z M232.32,90.12c-0.74-0.27-1.51-0.69-2.28-1.11c-1.57-0.85-3.19-1.73-4.57-1.42l7.91-8.05
		c0.01,0.12,0.02,0.25,0.02,0.4c0.2,1.2,0.23,1.48,0.46,2.57C234.51,85.71,233.64,88.14,232.32,90.12z"/>
	<g>
		<g>
			<path class="st0" d="M39.29,169.61v2.34c-0.3,0.22-0.63,0.38-0.97,0.49s-0.72,0.16-1.12,0.16c-0.49,0-0.92-0.08-1.32-0.23
				c-0.39-0.15-0.73-0.36-1-0.63c-0.28-0.27-0.49-0.59-0.64-0.97c-0.15-0.38-0.22-0.79-0.22-1.24c0-0.46,0.07-0.87,0.22-1.25
				c0.14-0.38,0.35-0.7,0.62-0.97c0.27-0.27,0.59-0.48,0.97-0.63s0.81-0.22,1.28-0.22c0.24,0,0.46,0.02,0.67,0.05
				s0.4,0.09,0.57,0.15c0.18,0.07,0.34,0.15,0.49,0.24c0.15,0.09,0.29,0.2,0.42,0.32l-0.26,0.4c-0.04,0.06-0.09,0.1-0.15,0.12
				c-0.06,0.02-0.13,0-0.21-0.05c-0.07-0.04-0.15-0.09-0.24-0.15s-0.19-0.11-0.31-0.16c-0.12-0.05-0.26-0.09-0.42-0.12
				c-0.16-0.03-0.35-0.05-0.57-0.05c-0.33,0-0.63,0.05-0.89,0.16s-0.49,0.26-0.68,0.46c-0.19,0.2-0.33,0.44-0.43,0.73
				c-0.1,0.28-0.15,0.6-0.15,0.95c0,0.37,0.05,0.7,0.16,0.99c0.11,0.29,0.26,0.54,0.45,0.74s0.43,0.36,0.71,0.46
				c0.28,0.11,0.59,0.16,0.93,0.16c0.13,0,0.26-0.01,0.37-0.02s0.23-0.04,0.33-0.07c0.11-0.03,0.21-0.06,0.31-0.1
				c0.1-0.04,0.2-0.09,0.29-0.14v-1.26H37.6c-0.06,0-0.1-0.02-0.14-0.05c-0.03-0.03-0.05-0.08-0.05-0.12v-0.51H39.29z"/>
			<path class="st0" d="M40.2,168.87c0.24-0.23,0.49-0.39,0.77-0.51c0.28-0.11,0.58-0.17,0.91-0.17c0.24,0,0.46,0.04,0.64,0.12
				c0.19,0.08,0.34,0.19,0.47,0.33c0.13,0.14,0.23,0.31,0.29,0.51s0.1,0.42,0.1,0.66v2.71h-0.36c-0.08,0-0.14-0.01-0.18-0.04
				s-0.08-0.08-0.1-0.15l-0.09-0.37c-0.11,0.1-0.22,0.19-0.32,0.27c-0.11,0.08-0.22,0.14-0.33,0.2c-0.12,0.05-0.24,0.1-0.37,0.12
				c-0.13,0.03-0.28,0.04-0.44,0.04c-0.17,0-0.32-0.02-0.47-0.07s-0.27-0.12-0.38-0.21c-0.11-0.09-0.19-0.21-0.26-0.36
				c-0.06-0.14-0.09-0.31-0.09-0.5c0-0.17,0.05-0.33,0.14-0.48c0.09-0.15,0.24-0.29,0.44-0.42c0.21-0.12,0.47-0.22,0.8-0.3
				s0.74-0.12,1.22-0.13v-0.31c0-0.32-0.07-0.56-0.21-0.72c-0.14-0.16-0.34-0.24-0.6-0.24c-0.18,0-0.33,0.02-0.45,0.07
				c-0.12,0.04-0.23,0.09-0.31,0.15s-0.16,0.1-0.23,0.15c-0.07,0.04-0.13,0.07-0.2,0.07c-0.06,0-0.1-0.02-0.14-0.05
				c-0.04-0.03-0.07-0.07-0.1-0.11L40.2,168.87z M42.59,170.64c-0.33,0.01-0.61,0.04-0.85,0.08c-0.23,0.04-0.42,0.09-0.56,0.16
				c-0.15,0.07-0.25,0.15-0.31,0.24c-0.06,0.09-0.1,0.19-0.1,0.3c0,0.11,0.02,0.2,0.05,0.27c0.03,0.08,0.08,0.14,0.14,0.19
				s0.13,0.08,0.21,0.11s0.17,0.03,0.26,0.03c0.13,0,0.24-0.01,0.35-0.04c0.1-0.03,0.2-0.06,0.3-0.11c0.09-0.05,0.18-0.1,0.26-0.17
				c0.08-0.07,0.17-0.14,0.25-0.23V170.64z"/>
			<path class="st0" d="M44.49,172.53v-4.25h0.49c0.11,0,0.19,0.05,0.21,0.16l0.06,0.41c0.16-0.19,0.33-0.34,0.52-0.46
				c0.19-0.12,0.42-0.18,0.67-0.18c0.28,0,0.51,0.08,0.69,0.23c0.18,0.15,0.3,0.36,0.39,0.63c0.06-0.15,0.14-0.28,0.24-0.39
				c0.1-0.11,0.21-0.2,0.33-0.27s0.25-0.12,0.38-0.16c0.14-0.03,0.27-0.05,0.41-0.05c0.23,0,0.43,0.04,0.6,0.11s0.33,0.18,0.45,0.31
				c0.12,0.14,0.22,0.3,0.28,0.51c0.06,0.2,0.1,0.43,0.1,0.69v2.71h-0.82v-2.71c0-0.32-0.07-0.56-0.21-0.72s-0.34-0.24-0.6-0.24
				c-0.12,0-0.23,0.02-0.33,0.06c-0.11,0.04-0.2,0.1-0.28,0.18s-0.14,0.18-0.19,0.3c-0.05,0.12-0.07,0.26-0.07,0.42v2.71h-0.82
				v-2.71c0-0.33-0.07-0.57-0.2-0.73c-0.13-0.16-0.32-0.23-0.58-0.23c-0.18,0-0.34,0.05-0.49,0.14c-0.15,0.09-0.29,0.22-0.41,0.38
				v3.16H44.49z"/>
			<path class="st0" d="M52.22,168.87c0.18-0.2,0.38-0.35,0.6-0.47c0.22-0.12,0.48-0.18,0.76-0.18c0.25,0,0.47,0.05,0.67,0.14
				c0.2,0.1,0.37,0.23,0.51,0.41s0.25,0.4,0.32,0.66s0.11,0.55,0.11,0.87c0,0.34-0.04,0.66-0.13,0.94
				c-0.08,0.28-0.21,0.52-0.36,0.72s-0.35,0.36-0.58,0.47c-0.23,0.11-0.48,0.17-0.76,0.17c-0.14,0-0.26-0.01-0.38-0.04
				s-0.22-0.06-0.32-0.12c-0.1-0.05-0.19-0.11-0.27-0.18c-0.08-0.07-0.16-0.16-0.23-0.25l-0.04,0.36c-0.02,0.11-0.09,0.17-0.21,0.17
				h-0.53v-6.18h0.82V168.87z M52.22,171.49c0.13,0.18,0.28,0.3,0.44,0.37c0.16,0.07,0.33,0.1,0.51,0.1c0.38,0,0.67-0.14,0.88-0.41
				s0.31-0.68,0.31-1.23c0-0.5-0.09-0.88-0.27-1.11c-0.18-0.24-0.44-0.35-0.77-0.35c-0.23,0-0.44,0.05-0.61,0.16
				c-0.17,0.11-0.33,0.26-0.48,0.45V171.49z"/>
			<path class="st0" d="M56.95,166.35v6.18h-0.82v-6.18H56.95z"/>
			<path class="st0" d="M61.6,171.93c-0.1,0.12-0.22,0.22-0.35,0.3c-0.13,0.08-0.27,0.15-0.42,0.21c-0.15,0.05-0.3,0.09-0.46,0.12
				c-0.16,0.03-0.31,0.04-0.47,0.04c-0.29,0-0.56-0.05-0.81-0.15c-0.25-0.1-0.47-0.24-0.65-0.44c-0.18-0.19-0.32-0.43-0.43-0.71
				s-0.15-0.61-0.15-0.98c0-0.3,0.05-0.57,0.14-0.83c0.09-0.25,0.22-0.48,0.4-0.67c0.17-0.19,0.38-0.34,0.63-0.45
				c0.25-0.11,0.53-0.16,0.84-0.16c0.26,0,0.5,0.04,0.72,0.13c0.22,0.08,0.41,0.21,0.57,0.37s0.28,0.36,0.37,0.6
				s0.14,0.51,0.14,0.81c0,0.13-0.01,0.21-0.04,0.25c-0.03,0.04-0.08,0.06-0.15,0.06h-2.79c0.01,0.25,0.04,0.48,0.11,0.66
				c0.06,0.19,0.15,0.35,0.27,0.47c0.11,0.12,0.25,0.22,0.4,0.28s0.33,0.09,0.52,0.09c0.18,0,0.34-0.02,0.47-0.06
				c0.13-0.04,0.25-0.09,0.34-0.14s0.18-0.09,0.24-0.14s0.12-0.06,0.17-0.06c0.07,0,0.12,0.03,0.15,0.08L61.6,171.93z M60.93,169.93
				c0-0.16-0.02-0.31-0.07-0.45c-0.05-0.14-0.11-0.26-0.2-0.36c-0.09-0.1-0.2-0.18-0.33-0.23c-0.13-0.06-0.28-0.08-0.44-0.08
				c-0.34,0-0.61,0.1-0.81,0.3s-0.32,0.47-0.37,0.82H60.93z"/>
			<path class="st0" d="M69.33,172.53h-0.8c-0.16,0-0.27-0.06-0.35-0.19l-1.49-2.08c-0.05-0.07-0.1-0.12-0.15-0.15
				c-0.06-0.03-0.14-0.04-0.25-0.04h-0.58v2.46h-0.89v-6.01h1.73c0.39,0,0.72,0.04,1,0.12c0.28,0.08,0.51,0.19,0.69,0.34
				c0.18,0.15,0.32,0.32,0.41,0.53s0.13,0.44,0.13,0.69c0,0.21-0.03,0.41-0.1,0.59c-0.06,0.18-0.16,0.35-0.28,0.5
				c-0.12,0.15-0.28,0.27-0.45,0.38c-0.18,0.11-0.38,0.19-0.61,0.24c0.11,0.07,0.21,0.16,0.29,0.28L69.33,172.53z M66.53,169.42
				c0.23,0,0.43-0.03,0.6-0.08c0.17-0.06,0.32-0.13,0.44-0.24c0.12-0.1,0.21-0.22,0.26-0.36c0.06-0.14,0.09-0.3,0.09-0.47
				c0-0.35-0.11-0.61-0.34-0.78c-0.23-0.18-0.57-0.26-1.02-0.26h-0.84v2.2H66.53z"/>
			<path class="st0" d="M73.15,171.93c-0.1,0.12-0.22,0.22-0.35,0.3c-0.13,0.08-0.27,0.15-0.42,0.21c-0.15,0.05-0.3,0.09-0.46,0.12
				c-0.16,0.03-0.31,0.04-0.47,0.04c-0.29,0-0.56-0.05-0.81-0.15c-0.25-0.1-0.47-0.24-0.65-0.44c-0.18-0.19-0.32-0.43-0.43-0.71
				s-0.15-0.61-0.15-0.98c0-0.3,0.05-0.57,0.14-0.83c0.09-0.25,0.22-0.48,0.4-0.67c0.17-0.19,0.38-0.34,0.63-0.45
				c0.25-0.11,0.53-0.16,0.84-0.16c0.26,0,0.5,0.04,0.72,0.13c0.22,0.08,0.41,0.21,0.57,0.37s0.28,0.36,0.37,0.6
				s0.14,0.51,0.14,0.81c0,0.13-0.01,0.21-0.04,0.25c-0.03,0.04-0.08,0.06-0.15,0.06h-2.79c0.01,0.25,0.04,0.48,0.11,0.66
				c0.06,0.19,0.15,0.35,0.27,0.47c0.11,0.12,0.25,0.22,0.4,0.28s0.33,0.09,0.52,0.09c0.18,0,0.34-0.02,0.47-0.06
				c0.13-0.04,0.25-0.09,0.34-0.14s0.18-0.09,0.24-0.14s0.12-0.06,0.17-0.06c0.07,0,0.12,0.03,0.15,0.08L73.15,171.93z
				 M72.48,169.93c0-0.16-0.02-0.31-0.07-0.45c-0.05-0.14-0.11-0.26-0.2-0.36c-0.09-0.1-0.2-0.18-0.33-0.23
				c-0.13-0.06-0.28-0.08-0.44-0.08c-0.34,0-0.61,0.1-0.81,0.3s-0.32,0.47-0.37,0.82H72.48z"/>
			<path class="st0" d="M76.6,169.01c-0.02,0.04-0.05,0.06-0.07,0.08c-0.02,0.02-0.06,0.02-0.1,0.02c-0.04,0-0.09-0.01-0.15-0.05
				c-0.05-0.03-0.12-0.06-0.2-0.1c-0.08-0.04-0.17-0.07-0.27-0.1c-0.1-0.03-0.23-0.05-0.37-0.05c-0.12,0-0.22,0.01-0.32,0.04
				s-0.18,0.07-0.25,0.12c-0.07,0.05-0.12,0.11-0.15,0.18s-0.05,0.15-0.05,0.23c0,0.11,0.03,0.19,0.09,0.26
				c0.06,0.07,0.15,0.13,0.25,0.18c0.1,0.05,0.22,0.1,0.35,0.14c0.13,0.04,0.26,0.08,0.4,0.13c0.14,0.04,0.27,0.1,0.4,0.15
				c0.13,0.06,0.25,0.13,0.35,0.21c0.1,0.08,0.18,0.19,0.25,0.31c0.06,0.12,0.09,0.27,0.09,0.44c0,0.2-0.04,0.38-0.11,0.55
				s-0.18,0.31-0.31,0.44c-0.14,0.12-0.31,0.22-0.51,0.29c-0.2,0.07-0.44,0.11-0.7,0.11c-0.29,0-0.56-0.05-0.81-0.15
				c-0.25-0.1-0.46-0.22-0.62-0.37l0.19-0.31c0.02-0.04,0.05-0.07,0.08-0.09c0.03-0.02,0.08-0.03,0.13-0.03
				c0.05,0,0.11,0.02,0.16,0.06c0.06,0.04,0.12,0.08,0.2,0.13s0.17,0.09,0.28,0.13c0.11,0.04,0.25,0.06,0.42,0.06
				c0.14,0,0.26-0.02,0.36-0.05s0.19-0.08,0.26-0.14c0.07-0.06,0.12-0.13,0.15-0.21s0.05-0.16,0.05-0.25c0-0.11-0.03-0.2-0.09-0.28
				c-0.06-0.07-0.15-0.14-0.25-0.19c-0.1-0.05-0.22-0.1-0.35-0.14c-0.13-0.04-0.27-0.08-0.4-0.13c-0.14-0.04-0.27-0.1-0.4-0.15
				c-0.13-0.06-0.25-0.13-0.35-0.22c-0.1-0.09-0.18-0.2-0.25-0.33c-0.06-0.13-0.09-0.28-0.09-0.47c0-0.16,0.03-0.32,0.1-0.47
				s0.17-0.28,0.3-0.4s0.29-0.21,0.48-0.27c0.19-0.07,0.41-0.1,0.65-0.1c0.28,0,0.54,0.04,0.76,0.13c0.23,0.09,0.42,0.21,0.58,0.37
				L76.6,169.01z"/>
			<path class="st0" d="M78.5,168.92c0.09-0.11,0.19-0.2,0.29-0.29c0.1-0.09,0.21-0.16,0.33-0.23c0.12-0.06,0.24-0.11,0.37-0.15
				c0.13-0.04,0.27-0.05,0.42-0.05c0.24,0,0.46,0.05,0.66,0.14c0.2,0.09,0.36,0.23,0.5,0.42c0.14,0.18,0.25,0.41,0.32,0.68
				c0.08,0.27,0.11,0.58,0.11,0.93c0,0.32-0.04,0.61-0.13,0.88c-0.08,0.27-0.21,0.5-0.36,0.7c-0.16,0.2-0.35,0.35-0.58,0.47
				c-0.23,0.11-0.48,0.17-0.77,0.17c-0.25,0-0.47-0.04-0.65-0.13c-0.18-0.08-0.34-0.2-0.49-0.35v1.85h-0.82v-5.68h0.49
				c0.11,0,0.19,0.05,0.21,0.16L78.5,168.92z M78.55,171.49c0.13,0.18,0.28,0.3,0.43,0.37c0.15,0.07,0.33,0.1,0.52,0.1
				c0.37,0,0.66-0.13,0.87-0.4c0.21-0.27,0.31-0.66,0.31-1.18c0-0.27-0.02-0.5-0.07-0.69c-0.05-0.19-0.11-0.35-0.2-0.47
				c-0.09-0.12-0.2-0.21-0.32-0.27c-0.13-0.06-0.27-0.09-0.44-0.09c-0.24,0-0.44,0.05-0.62,0.16c-0.17,0.11-0.34,0.26-0.48,0.45
				V171.49z"/>
			<path class="st0" d="M84.25,168.21c0.31,0,0.59,0.05,0.85,0.15c0.25,0.1,0.47,0.25,0.64,0.44c0.18,0.19,0.31,0.42,0.41,0.69
				c0.1,0.27,0.14,0.57,0.14,0.91c0,0.33-0.05,0.64-0.14,0.91c-0.09,0.27-0.23,0.5-0.41,0.69c-0.18,0.19-0.39,0.33-0.64,0.44
				c-0.25,0.1-0.54,0.15-0.85,0.15c-0.32,0-0.6-0.05-0.85-0.15c-0.25-0.1-0.47-0.25-0.65-0.44c-0.18-0.19-0.32-0.42-0.41-0.69
				c-0.1-0.27-0.14-0.57-0.14-0.91c0-0.33,0.05-0.64,0.14-0.91c0.1-0.27,0.23-0.5,0.41-0.69c0.18-0.19,0.39-0.34,0.65-0.44
				C83.65,168.26,83.93,168.21,84.25,168.21z M84.25,171.96c0.4,0,0.7-0.14,0.9-0.41s0.3-0.65,0.3-1.14s-0.1-0.87-0.3-1.14
				c-0.2-0.27-0.5-0.41-0.9-0.41c-0.41,0-0.71,0.14-0.91,0.41c-0.2,0.27-0.3,0.65-0.3,1.14s0.1,0.87,0.3,1.14
				C83.54,171.82,83.84,171.96,84.25,171.96z"/>
			<path class="st0" d="M87.97,168.87c0.09-0.1,0.19-0.19,0.29-0.27c0.1-0.08,0.21-0.15,0.32-0.21c0.11-0.06,0.23-0.1,0.36-0.13
				s0.27-0.05,0.42-0.05c0.23,0,0.44,0.04,0.62,0.12s0.33,0.19,0.45,0.33c0.12,0.14,0.21,0.31,0.27,0.51s0.09,0.42,0.09,0.66v2.71
				h-0.82v-2.71c0-0.3-0.07-0.54-0.21-0.71c-0.14-0.17-0.35-0.25-0.64-0.25c-0.21,0-0.41,0.05-0.59,0.15
				c-0.18,0.1-0.35,0.23-0.51,0.4v3.12H87.2v-4.25h0.49c0.11,0,0.19,0.05,0.21,0.16L87.97,168.87z"/>
			<path class="st0" d="M94.39,169.01c-0.02,0.04-0.05,0.06-0.07,0.08c-0.02,0.02-0.06,0.02-0.1,0.02c-0.04,0-0.09-0.01-0.15-0.05
				c-0.05-0.03-0.12-0.06-0.2-0.1c-0.08-0.04-0.17-0.07-0.27-0.1c-0.1-0.03-0.23-0.05-0.37-0.05c-0.12,0-0.22,0.01-0.32,0.04
				s-0.18,0.07-0.25,0.12c-0.07,0.05-0.12,0.11-0.15,0.18s-0.05,0.15-0.05,0.23c0,0.11,0.03,0.19,0.09,0.26
				c0.06,0.07,0.15,0.13,0.25,0.18c0.1,0.05,0.22,0.1,0.35,0.14c0.13,0.04,0.26,0.08,0.4,0.13c0.14,0.04,0.27,0.1,0.4,0.15
				c0.13,0.06,0.25,0.13,0.35,0.21c0.1,0.08,0.18,0.19,0.25,0.31c0.06,0.12,0.09,0.27,0.09,0.44c0,0.2-0.04,0.38-0.11,0.55
				s-0.18,0.31-0.31,0.44c-0.14,0.12-0.31,0.22-0.51,0.29c-0.2,0.07-0.44,0.11-0.7,0.11c-0.29,0-0.56-0.05-0.81-0.15
				c-0.25-0.1-0.46-0.22-0.62-0.37l0.19-0.31c0.02-0.04,0.05-0.07,0.08-0.09c0.03-0.02,0.08-0.03,0.13-0.03
				c0.05,0,0.11,0.02,0.16,0.06c0.06,0.04,0.12,0.08,0.2,0.13s0.17,0.09,0.28,0.13c0.11,0.04,0.25,0.06,0.42,0.06
				c0.14,0,0.26-0.02,0.36-0.05s0.19-0.08,0.26-0.14c0.07-0.06,0.12-0.13,0.15-0.21s0.05-0.16,0.05-0.25c0-0.11-0.03-0.2-0.09-0.28
				c-0.06-0.07-0.15-0.14-0.25-0.19c-0.1-0.05-0.22-0.1-0.35-0.14c-0.13-0.04-0.27-0.08-0.4-0.13c-0.14-0.04-0.27-0.1-0.4-0.15
				c-0.13-0.06-0.25-0.13-0.35-0.22c-0.1-0.09-0.18-0.2-0.25-0.33c-0.06-0.13-0.09-0.28-0.09-0.47c0-0.16,0.03-0.32,0.1-0.47
				s0.17-0.28,0.3-0.4s0.29-0.21,0.48-0.27c0.19-0.07,0.41-0.1,0.65-0.1c0.28,0,0.54,0.04,0.76,0.13c0.23,0.09,0.42,0.21,0.58,0.37
				L94.39,169.01z"/>
			<path class="st0" d="M96.53,166.97c0,0.08-0.02,0.15-0.05,0.22s-0.07,0.13-0.12,0.18s-0.11,0.09-0.18,0.12s-0.14,0.04-0.22,0.04
				c-0.08,0-0.15-0.01-0.21-0.04s-0.13-0.07-0.18-0.12s-0.09-0.11-0.12-0.18s-0.04-0.14-0.04-0.22c0-0.08,0.01-0.15,0.04-0.22
				s0.07-0.13,0.12-0.18c0.05-0.05,0.11-0.09,0.18-0.12s0.14-0.04,0.21-0.04c0.08,0,0.15,0.01,0.22,0.04s0.13,0.07,0.18,0.12
				c0.05,0.05,0.09,0.11,0.12,0.18S96.53,166.89,96.53,166.97z M96.38,168.28v4.25h-0.82v-4.25H96.38z"/>
			<path class="st0" d="M98.38,168.87c0.18-0.2,0.38-0.35,0.6-0.47c0.22-0.12,0.48-0.18,0.76-0.18c0.25,0,0.47,0.05,0.67,0.14
				c0.2,0.1,0.37,0.23,0.51,0.41s0.25,0.4,0.32,0.66s0.11,0.55,0.11,0.87c0,0.34-0.04,0.66-0.13,0.94
				c-0.08,0.28-0.21,0.52-0.36,0.72s-0.35,0.36-0.58,0.47c-0.23,0.11-0.48,0.17-0.76,0.17c-0.14,0-0.26-0.01-0.38-0.04
				s-0.22-0.06-0.32-0.12c-0.1-0.05-0.19-0.11-0.27-0.18c-0.08-0.07-0.16-0.16-0.23-0.25l-0.04,0.36c-0.02,0.11-0.09,0.17-0.21,0.17
				h-0.53v-6.18h0.82V168.87z M98.38,171.49c0.13,0.18,0.28,0.3,0.44,0.37c0.16,0.07,0.33,0.1,0.51,0.1c0.38,0,0.67-0.14,0.88-0.41
				s0.31-0.68,0.31-1.23c0-0.5-0.09-0.88-0.27-1.11c-0.18-0.24-0.44-0.35-0.77-0.35c-0.23,0-0.44,0.05-0.61,0.16
				c-0.17,0.11-0.33,0.26-0.48,0.45V171.49z"/>
			<path class="st0" d="M103.1,166.35v6.18h-0.82v-6.18H103.1z"/>
			<path class="st0" d="M107.98,168.28l-2.36,5.49c-0.03,0.06-0.06,0.11-0.1,0.14s-0.1,0.05-0.18,0.05h-0.61l0.78-1.69l-1.75-3.98
				h0.71c0.07,0,0.12,0.02,0.16,0.05s0.07,0.07,0.08,0.11l1.08,2.55c0.02,0.06,0.04,0.13,0.06,0.19c0.02,0.07,0.04,0.13,0.05,0.2
				c0.02-0.07,0.04-0.13,0.06-0.2c0.02-0.07,0.05-0.13,0.07-0.19l1.04-2.55c0.02-0.05,0.05-0.09,0.09-0.12
				c0.04-0.03,0.09-0.05,0.14-0.05H107.98z"/>
		</g>
		<circle class="st0" cx="114.82" cy="170.08" r="1.19"/>
		<g>
			<path class="st0" d="M127.53,168.28l-1.37,4.25h-0.65c-0.08,0-0.13-0.05-0.16-0.16l-0.9-2.77c-0.02-0.07-0.04-0.14-0.06-0.21
				s-0.03-0.14-0.05-0.21c-0.03,0.14-0.06,0.29-0.1,0.42l-0.91,2.76c-0.03,0.1-0.09,0.16-0.18,0.16h-0.62l-1.37-4.25h0.64
				c0.06,0,0.12,0.01,0.16,0.05c0.04,0.03,0.07,0.07,0.09,0.12l0.77,2.61c0.02,0.11,0.05,0.21,0.07,0.31s0.04,0.2,0.05,0.3
				c0.02-0.1,0.05-0.2,0.08-0.3s0.06-0.2,0.09-0.31l0.85-2.63c0.01-0.05,0.04-0.09,0.08-0.12s0.09-0.04,0.14-0.04h0.36
				c0.06,0,0.11,0.01,0.15,0.04s0.07,0.07,0.08,0.12l0.83,2.63c0.03,0.11,0.06,0.21,0.09,0.31c0.03,0.1,0.05,0.21,0.08,0.31
				c0.02-0.1,0.04-0.2,0.06-0.3c0.02-0.1,0.05-0.21,0.08-0.32l0.78-2.61c0.01-0.05,0.04-0.09,0.09-0.12
				c0.04-0.03,0.09-0.05,0.15-0.05H127.53z"/>
			<path class="st0" d="M134.14,168.28l-1.37,4.25h-0.65c-0.08,0-0.13-0.05-0.16-0.16l-0.9-2.77c-0.02-0.07-0.04-0.14-0.06-0.21
				s-0.03-0.14-0.05-0.21c-0.03,0.14-0.06,0.29-0.1,0.42l-0.91,2.76c-0.03,0.1-0.09,0.16-0.18,0.16h-0.62l-1.37-4.25h0.64
				c0.06,0,0.12,0.01,0.16,0.05c0.04,0.03,0.07,0.07,0.09,0.12l0.77,2.61c0.03,0.11,0.05,0.21,0.07,0.31s0.04,0.2,0.05,0.3
				c0.03-0.1,0.05-0.2,0.08-0.3s0.06-0.2,0.09-0.31l0.85-2.63c0.01-0.05,0.04-0.09,0.08-0.12s0.09-0.04,0.14-0.04h0.36
				c0.06,0,0.11,0.01,0.15,0.04c0.04,0.03,0.07,0.07,0.08,0.12l0.83,2.63c0.03,0.11,0.06,0.21,0.09,0.31
				c0.03,0.1,0.05,0.21,0.08,0.31c0.02-0.1,0.04-0.2,0.06-0.3c0.02-0.1,0.05-0.21,0.08-0.32l0.78-2.61
				c0.01-0.05,0.04-0.09,0.09-0.12c0.04-0.03,0.09-0.05,0.15-0.05H134.14z"/>
			<path class="st0" d="M140.75,168.28l-1.37,4.25h-0.65c-0.08,0-0.13-0.05-0.16-0.16l-0.9-2.77c-0.02-0.07-0.04-0.14-0.06-0.21
				s-0.03-0.14-0.05-0.21c-0.03,0.14-0.06,0.29-0.1,0.42l-0.91,2.76c-0.03,0.1-0.09,0.16-0.18,0.16h-0.62l-1.37-4.25h0.64
				c0.06,0,0.12,0.01,0.16,0.05c0.04,0.03,0.07,0.07,0.09,0.12l0.77,2.61c0.03,0.11,0.05,0.21,0.07,0.31s0.04,0.2,0.05,0.3
				c0.03-0.1,0.05-0.2,0.08-0.3s0.06-0.2,0.09-0.31l0.85-2.63c0.01-0.05,0.04-0.09,0.08-0.12s0.09-0.04,0.14-0.04h0.36
				c0.06,0,0.11,0.01,0.15,0.04c0.04,0.03,0.07,0.07,0.08,0.12l0.83,2.63c0.03,0.11,0.06,0.21,0.09,0.31
				c0.03,0.1,0.05,0.21,0.08,0.31c0.02-0.1,0.04-0.2,0.06-0.3c0.02-0.1,0.05-0.21,0.08-0.32l0.78-2.61
				c0.01-0.05,0.04-0.09,0.09-0.12c0.04-0.03,0.09-0.05,0.15-0.05H140.75z"/>
			<path class="st0" d="M141.13,172.04c0-0.08,0.01-0.15,0.04-0.21c0.03-0.07,0.07-0.13,0.12-0.18s0.11-0.09,0.17-0.12
				c0.07-0.03,0.14-0.04,0.22-0.04c0.08,0,0.15,0.01,0.21,0.04s0.13,0.07,0.18,0.12s0.09,0.11,0.12,0.18s0.04,0.14,0.04,0.21
				c0,0.08-0.01,0.15-0.04,0.22c-0.03,0.07-0.07,0.13-0.12,0.18c-0.05,0.05-0.11,0.09-0.18,0.12c-0.07,0.03-0.14,0.04-0.21,0.04
				c-0.08,0-0.15-0.01-0.22-0.04c-0.07-0.03-0.12-0.07-0.17-0.12c-0.05-0.05-0.09-0.11-0.12-0.18
				C141.14,172.19,141.13,172.12,141.13,172.04z"/>
			<path class="st0" d="M144.05,168.87c0.18-0.2,0.38-0.35,0.6-0.47c0.22-0.12,0.48-0.18,0.76-0.18c0.25,0,0.47,0.05,0.67,0.14
				c0.2,0.1,0.37,0.23,0.51,0.41c0.14,0.18,0.25,0.4,0.32,0.66c0.08,0.26,0.11,0.55,0.11,0.87c0,0.34-0.04,0.66-0.13,0.94
				c-0.08,0.28-0.21,0.52-0.36,0.72c-0.16,0.2-0.35,0.36-0.58,0.47c-0.23,0.11-0.48,0.17-0.76,0.17c-0.14,0-0.26-0.01-0.38-0.04
				c-0.12-0.03-0.22-0.06-0.32-0.12c-0.1-0.05-0.18-0.11-0.27-0.18s-0.16-0.16-0.23-0.25l-0.04,0.36c-0.02,0.11-0.09,0.17-0.21,0.17
				h-0.53v-6.18h0.82V168.87z M144.05,171.49c0.13,0.18,0.28,0.3,0.44,0.37c0.16,0.07,0.33,0.1,0.51,0.1c0.38,0,0.67-0.14,0.88-0.41
				s0.31-0.68,0.31-1.23c0-0.5-0.09-0.88-0.27-1.11c-0.18-0.24-0.44-0.35-0.77-0.35c-0.23,0-0.44,0.05-0.61,0.16
				c-0.17,0.11-0.33,0.26-0.48,0.45V171.49z"/>
			<path class="st0" d="M151.43,171.93c-0.1,0.12-0.22,0.22-0.35,0.3s-0.27,0.15-0.42,0.21c-0.15,0.05-0.3,0.09-0.46,0.12
				c-0.16,0.03-0.31,0.04-0.47,0.04c-0.29,0-0.56-0.05-0.81-0.15c-0.25-0.1-0.47-0.24-0.65-0.44s-0.33-0.43-0.43-0.71
				s-0.15-0.61-0.15-0.98c0-0.3,0.05-0.57,0.14-0.83c0.09-0.25,0.22-0.48,0.4-0.67c0.17-0.19,0.38-0.34,0.63-0.45
				c0.25-0.11,0.53-0.16,0.84-0.16c0.26,0,0.5,0.04,0.72,0.13c0.22,0.08,0.41,0.21,0.57,0.37s0.28,0.36,0.38,0.6
				c0.09,0.24,0.14,0.51,0.14,0.81c0,0.13-0.01,0.21-0.04,0.25c-0.03,0.04-0.08,0.06-0.16,0.06h-2.79c0.01,0.25,0.04,0.48,0.11,0.66
				c0.06,0.19,0.15,0.35,0.27,0.47c0.11,0.12,0.25,0.22,0.4,0.28s0.33,0.09,0.52,0.09c0.18,0,0.34-0.02,0.47-0.06
				s0.25-0.09,0.34-0.14c0.1-0.05,0.18-0.09,0.24-0.14s0.12-0.06,0.17-0.06c0.07,0,0.12,0.03,0.16,0.08L151.43,171.93z
				 M150.76,169.93c0-0.16-0.02-0.31-0.07-0.45s-0.11-0.26-0.2-0.36c-0.09-0.1-0.2-0.18-0.33-0.23c-0.13-0.06-0.28-0.08-0.44-0.08
				c-0.34,0-0.61,0.1-0.81,0.3s-0.32,0.47-0.38,0.82H150.76z"/>
			<path class="st0" d="M156,168.44v0.31c0,0.1-0.06,0.16-0.19,0.19l-0.46,0.07c0.04,0.09,0.07,0.18,0.09,0.27
				c0.02,0.1,0.03,0.2,0.03,0.3c0,0.21-0.04,0.4-0.12,0.57s-0.19,0.31-0.33,0.43c-0.14,0.12-0.31,0.21-0.51,0.28
				c-0.2,0.06-0.41,0.1-0.65,0.1c-0.19,0-0.37-0.02-0.54-0.06c-0.08,0.05-0.15,0.11-0.19,0.17c-0.04,0.06-0.06,0.12-0.06,0.18
				c0,0.1,0.04,0.17,0.12,0.22c0.08,0.05,0.19,0.08,0.32,0.1c0.13,0.02,0.29,0.03,0.46,0.04c0.17,0,0.35,0.01,0.52,0.03
				c0.18,0.01,0.35,0.03,0.52,0.07s0.32,0.08,0.46,0.16s0.24,0.17,0.32,0.29s0.12,0.29,0.12,0.48c0,0.18-0.05,0.36-0.14,0.54
				s-0.22,0.33-0.4,0.46s-0.38,0.24-0.63,0.32s-0.53,0.12-0.85,0.12s-0.59-0.03-0.82-0.09c-0.23-0.06-0.43-0.14-0.58-0.25
				c-0.15-0.1-0.27-0.22-0.35-0.36c-0.08-0.14-0.12-0.28-0.12-0.43c0-0.21,0.06-0.38,0.19-0.53s0.31-0.26,0.53-0.34
				c-0.12-0.06-0.22-0.13-0.29-0.23c-0.07-0.1-0.11-0.22-0.11-0.38c0-0.06,0.01-0.12,0.03-0.19c0.02-0.07,0.06-0.13,0.1-0.2
				s0.1-0.13,0.17-0.19s0.15-0.11,0.24-0.16c-0.21-0.12-0.37-0.27-0.49-0.47c-0.12-0.19-0.18-0.42-0.18-0.68
				c0-0.21,0.04-0.4,0.12-0.56c0.08-0.17,0.19-0.31,0.34-0.43s0.32-0.21,0.51-0.28c0.2-0.06,0.42-0.1,0.66-0.1
				c0.37,0,0.69,0.08,0.95,0.23H156z M155.17,172.75c0-0.1-0.03-0.18-0.08-0.24c-0.06-0.06-0.13-0.11-0.23-0.14
				c-0.1-0.04-0.21-0.06-0.34-0.08c-0.13-0.02-0.26-0.03-0.4-0.04c-0.14-0.01-0.29-0.02-0.43-0.02c-0.15-0.01-0.29-0.02-0.43-0.04
				c-0.14,0.07-0.26,0.16-0.36,0.26s-0.14,0.22-0.14,0.36c0,0.09,0.02,0.17,0.07,0.25s0.12,0.15,0.21,0.2
				c0.1,0.06,0.22,0.1,0.36,0.13s0.32,0.05,0.53,0.05c0.2,0,0.38-0.02,0.53-0.05s0.28-0.08,0.39-0.15s0.18-0.14,0.24-0.22
				C155.14,172.95,155.17,172.86,155.17,172.75z M153.87,170.41c0.15,0,0.27-0.02,0.38-0.06s0.2-0.09,0.28-0.17
				c0.07-0.07,0.13-0.16,0.17-0.26c0.04-0.1,0.06-0.21,0.06-0.33c0-0.25-0.08-0.44-0.22-0.59s-0.37-0.22-0.66-0.22
				c-0.29,0-0.51,0.07-0.66,0.22c-0.15,0.15-0.22,0.34-0.22,0.59c0,0.12,0.02,0.23,0.06,0.33s0.09,0.18,0.17,0.25
				c0.07,0.07,0.17,0.13,0.28,0.17S153.73,170.41,153.87,170.41z"/>
			<path class="st0" d="M156.63,168.87c0.24-0.23,0.49-0.39,0.77-0.51c0.28-0.11,0.58-0.17,0.92-0.17c0.24,0,0.46,0.04,0.64,0.12
				c0.19,0.08,0.34,0.19,0.47,0.33c0.13,0.14,0.23,0.31,0.29,0.51s0.1,0.42,0.1,0.66v2.71h-0.36c-0.08,0-0.14-0.01-0.18-0.04
				c-0.04-0.03-0.08-0.08-0.1-0.15l-0.09-0.37c-0.11,0.1-0.22,0.19-0.32,0.27c-0.11,0.08-0.22,0.14-0.33,0.2
				c-0.12,0.05-0.24,0.1-0.37,0.12c-0.13,0.03-0.28,0.04-0.44,0.04c-0.17,0-0.32-0.02-0.47-0.07s-0.27-0.12-0.38-0.21
				c-0.11-0.09-0.19-0.21-0.26-0.36s-0.09-0.31-0.09-0.5c0-0.17,0.05-0.33,0.14-0.48c0.09-0.15,0.24-0.29,0.44-0.42
				c0.21-0.12,0.47-0.22,0.8-0.3s0.74-0.12,1.22-0.13v-0.31c0-0.32-0.07-0.56-0.21-0.72c-0.14-0.16-0.34-0.24-0.6-0.24
				c-0.18,0-0.33,0.02-0.45,0.07c-0.12,0.04-0.23,0.09-0.31,0.15s-0.17,0.1-0.23,0.15s-0.13,0.07-0.2,0.07
				c-0.06,0-0.1-0.02-0.14-0.05c-0.04-0.03-0.07-0.07-0.1-0.11L156.63,168.87z M159.03,170.64c-0.33,0.01-0.61,0.04-0.84,0.08
				c-0.23,0.04-0.42,0.09-0.57,0.16c-0.15,0.07-0.25,0.15-0.31,0.24c-0.06,0.09-0.1,0.19-0.1,0.3c0,0.11,0.02,0.2,0.05,0.27
				c0.04,0.08,0.08,0.14,0.14,0.19c0.06,0.05,0.13,0.08,0.21,0.11c0.08,0.02,0.17,0.03,0.26,0.03c0.12,0,0.24-0.01,0.34-0.04
				s0.2-0.06,0.29-0.11c0.09-0.05,0.18-0.1,0.26-0.17c0.08-0.07,0.17-0.14,0.25-0.23V170.64z"/>
			<path class="st0" d="M160.92,172.53v-4.25h0.49c0.11,0,0.19,0.05,0.21,0.16l0.06,0.41c0.16-0.19,0.33-0.34,0.52-0.46
				c0.19-0.12,0.42-0.18,0.67-0.18c0.28,0,0.51,0.08,0.69,0.23c0.18,0.15,0.3,0.36,0.38,0.63c0.06-0.15,0.14-0.28,0.24-0.39
				c0.1-0.11,0.21-0.2,0.33-0.27c0.12-0.07,0.25-0.12,0.38-0.16c0.13-0.03,0.27-0.05,0.41-0.05c0.23,0,0.43,0.04,0.6,0.11
				s0.33,0.18,0.45,0.31s0.22,0.3,0.28,0.51s0.1,0.43,0.1,0.69v2.71h-0.82v-2.71c0-0.32-0.07-0.56-0.21-0.72
				c-0.14-0.16-0.34-0.24-0.6-0.24c-0.12,0-0.23,0.02-0.33,0.06c-0.11,0.04-0.2,0.1-0.28,0.18c-0.08,0.08-0.14,0.18-0.19,0.3
				c-0.05,0.12-0.07,0.26-0.07,0.42v2.71h-0.82v-2.71c0-0.33-0.07-0.57-0.2-0.73s-0.32-0.23-0.58-0.23c-0.18,0-0.34,0.05-0.49,0.14
				c-0.15,0.09-0.29,0.22-0.41,0.38v3.16H160.92z"/>
			<path class="st0" d="M168.66,168.87c0.18-0.2,0.38-0.35,0.6-0.47c0.22-0.12,0.48-0.18,0.76-0.18c0.25,0,0.47,0.05,0.67,0.14
				c0.2,0.1,0.37,0.23,0.51,0.41c0.14,0.18,0.25,0.4,0.32,0.66c0.08,0.26,0.11,0.55,0.11,0.87c0,0.34-0.04,0.66-0.13,0.94
				c-0.08,0.28-0.21,0.52-0.36,0.72c-0.16,0.2-0.35,0.36-0.58,0.47c-0.23,0.11-0.48,0.17-0.76,0.17c-0.14,0-0.26-0.01-0.38-0.04
				c-0.12-0.03-0.22-0.06-0.32-0.12c-0.1-0.05-0.18-0.11-0.27-0.18s-0.16-0.16-0.23-0.25l-0.04,0.36c-0.02,0.11-0.09,0.17-0.21,0.17
				h-0.53v-6.18h0.82V168.87z M168.66,171.49c0.13,0.18,0.28,0.3,0.44,0.37c0.16,0.07,0.33,0.1,0.51,0.1c0.38,0,0.67-0.14,0.88-0.41
				s0.31-0.68,0.31-1.23c0-0.5-0.09-0.88-0.27-1.11c-0.18-0.24-0.44-0.35-0.77-0.35c-0.23,0-0.44,0.05-0.61,0.16
				c-0.17,0.11-0.33,0.26-0.48,0.45V171.49z"/>
			<path class="st0" d="M173.38,166.35v6.18h-0.82v-6.18H173.38z"/>
			<path class="st0" d="M178.04,171.93c-0.1,0.12-0.22,0.22-0.35,0.3s-0.27,0.15-0.42,0.21c-0.15,0.05-0.3,0.09-0.46,0.12
				c-0.16,0.03-0.31,0.04-0.47,0.04c-0.29,0-0.56-0.05-0.81-0.15c-0.25-0.1-0.47-0.24-0.65-0.44s-0.33-0.43-0.43-0.71
				s-0.15-0.61-0.15-0.98c0-0.3,0.05-0.57,0.14-0.83c0.09-0.25,0.22-0.48,0.4-0.67c0.17-0.19,0.38-0.34,0.63-0.45
				c0.25-0.11,0.53-0.16,0.84-0.16c0.26,0,0.5,0.04,0.72,0.13c0.22,0.08,0.41,0.21,0.57,0.37s0.28,0.36,0.38,0.6
				c0.09,0.24,0.14,0.51,0.14,0.81c0,0.13-0.01,0.21-0.04,0.25c-0.03,0.04-0.08,0.06-0.16,0.06h-2.79c0.01,0.25,0.04,0.48,0.11,0.66
				c0.06,0.19,0.15,0.35,0.27,0.47c0.11,0.12,0.25,0.22,0.4,0.28s0.33,0.09,0.52,0.09c0.18,0,0.34-0.02,0.47-0.06
				s0.25-0.09,0.34-0.14c0.1-0.05,0.18-0.09,0.24-0.14s0.12-0.06,0.17-0.06c0.07,0,0.12,0.03,0.16,0.08L178.04,171.93z
				 M177.37,169.93c0-0.16-0.02-0.31-0.07-0.45s-0.11-0.26-0.2-0.36c-0.09-0.1-0.2-0.18-0.33-0.23c-0.13-0.06-0.28-0.08-0.44-0.08
				c-0.34,0-0.61,0.1-0.81,0.3s-0.32,0.47-0.38,0.82H177.37z"/>
			<path class="st0" d="M178.87,168.87c0.24-0.23,0.49-0.39,0.77-0.51c0.28-0.11,0.58-0.17,0.92-0.17c0.24,0,0.46,0.04,0.64,0.12
				c0.19,0.08,0.34,0.19,0.47,0.33c0.13,0.14,0.23,0.31,0.29,0.51s0.1,0.42,0.1,0.66v2.71h-0.36c-0.08,0-0.14-0.01-0.18-0.04
				c-0.04-0.03-0.08-0.08-0.1-0.15l-0.09-0.37c-0.11,0.1-0.22,0.19-0.32,0.27c-0.11,0.08-0.22,0.14-0.33,0.2
				c-0.12,0.05-0.24,0.1-0.37,0.12c-0.13,0.03-0.28,0.04-0.44,0.04c-0.17,0-0.32-0.02-0.47-0.07s-0.27-0.12-0.38-0.21
				c-0.11-0.09-0.19-0.21-0.26-0.36s-0.09-0.31-0.09-0.5c0-0.17,0.05-0.33,0.14-0.48c0.09-0.15,0.24-0.29,0.44-0.42
				c0.21-0.12,0.47-0.22,0.8-0.3s0.74-0.12,1.22-0.13v-0.31c0-0.32-0.07-0.56-0.21-0.72c-0.14-0.16-0.34-0.24-0.6-0.24
				c-0.18,0-0.33,0.02-0.45,0.07c-0.12,0.04-0.23,0.09-0.31,0.15s-0.17,0.1-0.23,0.15s-0.13,0.07-0.2,0.07
				c-0.06,0-0.1-0.02-0.14-0.05c-0.04-0.03-0.07-0.07-0.1-0.11L178.87,168.87z M181.27,170.64c-0.33,0.01-0.61,0.04-0.84,0.08
				c-0.23,0.04-0.42,0.09-0.57,0.16c-0.15,0.07-0.25,0.15-0.31,0.24c-0.06,0.09-0.1,0.19-0.1,0.3c0,0.11,0.02,0.2,0.05,0.27
				c0.04,0.08,0.08,0.14,0.14,0.19c0.06,0.05,0.13,0.08,0.21,0.11c0.08,0.02,0.17,0.03,0.26,0.03c0.12,0,0.24-0.01,0.34-0.04
				s0.2-0.06,0.29-0.11c0.09-0.05,0.18-0.1,0.26-0.17c0.08-0.07,0.17-0.14,0.25-0.23V170.64z"/>
			<path class="st0" d="M189.05,168.28l-1.37,4.25h-0.65c-0.08,0-0.13-0.05-0.16-0.16l-0.9-2.77c-0.02-0.07-0.04-0.14-0.06-0.21
				s-0.03-0.14-0.05-0.21c-0.03,0.14-0.06,0.29-0.1,0.42l-0.91,2.76c-0.03,0.1-0.09,0.16-0.18,0.16h-0.62l-1.37-4.25h0.64
				c0.06,0,0.12,0.01,0.16,0.05c0.04,0.03,0.07,0.07,0.09,0.12l0.77,2.61c0.03,0.11,0.05,0.21,0.07,0.31s0.04,0.2,0.05,0.3
				c0.03-0.1,0.05-0.2,0.08-0.3s0.06-0.2,0.09-0.31l0.85-2.63c0.01-0.05,0.04-0.09,0.08-0.12s0.09-0.04,0.14-0.04h0.36
				c0.06,0,0.11,0.01,0.15,0.04c0.04,0.03,0.07,0.07,0.08,0.12l0.83,2.63c0.03,0.11,0.06,0.21,0.09,0.31
				c0.03,0.1,0.05,0.21,0.08,0.31c0.02-0.1,0.04-0.2,0.06-0.3c0.02-0.1,0.05-0.21,0.08-0.32l0.78-2.61
				c0.01-0.05,0.04-0.09,0.09-0.12c0.04-0.03,0.09-0.05,0.15-0.05H189.05z"/>
			<path class="st0" d="M189.58,168.87c0.24-0.23,0.49-0.39,0.77-0.51c0.28-0.11,0.58-0.17,0.92-0.17c0.24,0,0.46,0.04,0.64,0.12
				c0.19,0.08,0.34,0.19,0.47,0.33c0.13,0.14,0.23,0.31,0.29,0.51s0.1,0.42,0.1,0.66v2.71h-0.36c-0.08,0-0.14-0.01-0.18-0.04
				c-0.04-0.03-0.08-0.08-0.1-0.15l-0.09-0.37c-0.11,0.1-0.22,0.19-0.32,0.27c-0.11,0.08-0.22,0.14-0.33,0.2
				c-0.12,0.05-0.24,0.1-0.37,0.12c-0.13,0.03-0.28,0.04-0.44,0.04c-0.17,0-0.32-0.02-0.47-0.07s-0.27-0.12-0.38-0.21
				c-0.11-0.09-0.19-0.21-0.26-0.36s-0.09-0.31-0.09-0.5c0-0.17,0.05-0.33,0.14-0.48c0.09-0.15,0.24-0.29,0.44-0.42
				c0.21-0.12,0.47-0.22,0.8-0.3s0.74-0.12,1.22-0.13v-0.31c0-0.32-0.07-0.56-0.21-0.72c-0.14-0.16-0.34-0.24-0.6-0.24
				c-0.18,0-0.33,0.02-0.45,0.07c-0.12,0.04-0.23,0.09-0.31,0.15s-0.17,0.1-0.23,0.15s-0.13,0.07-0.2,0.07
				c-0.06,0-0.1-0.02-0.14-0.05c-0.04-0.03-0.07-0.07-0.1-0.11L189.58,168.87z M191.98,170.64c-0.33,0.01-0.61,0.04-0.84,0.08
				c-0.23,0.04-0.42,0.09-0.57,0.16c-0.15,0.07-0.25,0.15-0.31,0.24c-0.06,0.09-0.1,0.19-0.1,0.3c0,0.11,0.02,0.2,0.05,0.27
				c0.04,0.08,0.08,0.14,0.14,0.19c0.06,0.05,0.13,0.08,0.21,0.11c0.08,0.02,0.17,0.03,0.26,0.03c0.12,0,0.24-0.01,0.34-0.04
				s0.2-0.06,0.29-0.11c0.09-0.05,0.18-0.1,0.26-0.17c0.08-0.07,0.17-0.14,0.25-0.23V170.64z"/>
			<path class="st0" d="M194.64,169.1c0.14-0.28,0.3-0.5,0.49-0.66c0.19-0.16,0.42-0.24,0.69-0.24c0.09,0,0.18,0.01,0.26,0.03
				c0.08,0.02,0.15,0.05,0.22,0.09l-0.05,0.62c-0.02,0.08-0.07,0.11-0.14,0.11c-0.04,0-0.1-0.01-0.18-0.02s-0.16-0.02-0.25-0.02
				c-0.13,0-0.25,0.02-0.35,0.06c-0.1,0.04-0.19,0.09-0.27,0.17c-0.08,0.07-0.15,0.16-0.21,0.27c-0.06,0.11-0.12,0.23-0.17,0.37
				v2.66h-0.82v-4.25h0.47c0.09,0,0.15,0.02,0.18,0.05c0.03,0.03,0.05,0.09,0.07,0.17L194.64,169.1z"/>
			<path class="st0" d="M200.27,171.93c-0.1,0.12-0.22,0.22-0.35,0.3s-0.27,0.15-0.42,0.21c-0.15,0.05-0.3,0.09-0.46,0.12
				c-0.16,0.03-0.31,0.04-0.47,0.04c-0.29,0-0.56-0.05-0.81-0.15c-0.25-0.1-0.47-0.24-0.65-0.44s-0.33-0.43-0.43-0.71
				s-0.15-0.61-0.15-0.98c0-0.3,0.05-0.57,0.14-0.83c0.09-0.25,0.22-0.48,0.4-0.67c0.17-0.19,0.38-0.34,0.63-0.45
				c0.25-0.11,0.53-0.16,0.84-0.16c0.26,0,0.5,0.04,0.72,0.13c0.22,0.08,0.41,0.21,0.57,0.37s0.28,0.36,0.38,0.6
				c0.09,0.24,0.14,0.51,0.14,0.81c0,0.13-0.01,0.21-0.04,0.25c-0.03,0.04-0.08,0.06-0.16,0.06h-2.79c0.01,0.25,0.04,0.48,0.11,0.66
				c0.06,0.19,0.15,0.35,0.27,0.47c0.11,0.12,0.25,0.22,0.4,0.28s0.33,0.09,0.52,0.09c0.18,0,0.34-0.02,0.47-0.06
				s0.25-0.09,0.34-0.14c0.1-0.05,0.18-0.09,0.24-0.14s0.12-0.06,0.17-0.06c0.07,0,0.12,0.03,0.16,0.08L200.27,171.93z
				 M199.6,169.93c0-0.16-0.02-0.31-0.07-0.45s-0.11-0.26-0.2-0.36c-0.09-0.1-0.2-0.18-0.33-0.23c-0.13-0.06-0.28-0.08-0.44-0.08
				c-0.34,0-0.61,0.1-0.81,0.3s-0.32,0.47-0.38,0.82H199.6z"/>
			<path class="st0" d="M201.08,172.04c0-0.08,0.01-0.15,0.04-0.21c0.03-0.07,0.07-0.13,0.12-0.18s0.11-0.09,0.17-0.12
				c0.07-0.03,0.14-0.04,0.22-0.04c0.08,0,0.15,0.01,0.21,0.04s0.13,0.07,0.18,0.12s0.09,0.11,0.12,0.18s0.04,0.14,0.04,0.21
				c0,0.08-0.01,0.15-0.04,0.22c-0.03,0.07-0.07,0.13-0.12,0.18c-0.05,0.05-0.11,0.09-0.18,0.12c-0.07,0.03-0.14,0.04-0.21,0.04
				c-0.08,0-0.15-0.01-0.22-0.04c-0.07-0.03-0.12-0.07-0.17-0.12c-0.05-0.05-0.09-0.11-0.12-0.18
				C201.09,172.19,201.08,172.12,201.08,172.04z"/>
			<path class="st0" d="M205,168.21c0.31,0,0.59,0.05,0.85,0.15c0.25,0.1,0.47,0.25,0.64,0.44c0.18,0.19,0.31,0.42,0.41,0.69
				c0.09,0.27,0.14,0.57,0.14,0.91c0,0.33-0.05,0.64-0.14,0.91c-0.09,0.27-0.23,0.5-0.41,0.69c-0.18,0.19-0.39,0.33-0.64,0.44
				c-0.25,0.1-0.54,0.15-0.85,0.15c-0.32,0-0.6-0.05-0.85-0.15c-0.25-0.1-0.47-0.25-0.65-0.44c-0.18-0.19-0.32-0.42-0.41-0.69
				c-0.1-0.27-0.14-0.57-0.14-0.91c0-0.33,0.05-0.64,0.14-0.91c0.1-0.27,0.23-0.5,0.41-0.69c0.18-0.19,0.39-0.34,0.65-0.44
				C204.4,168.26,204.69,168.21,205,168.21z M205,171.96c0.4,0,0.7-0.14,0.9-0.41c0.2-0.27,0.3-0.65,0.3-1.14s-0.1-0.87-0.3-1.14
				c-0.2-0.27-0.5-0.41-0.9-0.41c-0.41,0-0.71,0.14-0.91,0.41c-0.2,0.27-0.3,0.65-0.3,1.14s0.1,0.87,0.3,1.14
				C204.29,171.82,204.59,171.96,205,171.96z"/>
			<path class="st0" d="M208.72,169.1c0.14-0.28,0.3-0.5,0.49-0.66c0.19-0.16,0.42-0.24,0.69-0.24c0.09,0,0.18,0.01,0.26,0.03
				c0.08,0.02,0.15,0.05,0.22,0.09l-0.05,0.62c-0.02,0.08-0.07,0.11-0.14,0.11c-0.04,0-0.1-0.01-0.18-0.02s-0.16-0.02-0.25-0.02
				c-0.13,0-0.25,0.02-0.35,0.06c-0.1,0.04-0.19,0.09-0.27,0.17c-0.08,0.07-0.15,0.16-0.21,0.27c-0.06,0.11-0.12,0.23-0.17,0.37
				v2.66h-0.82v-4.25h0.47c0.09,0,0.15,0.02,0.18,0.05c0.03,0.03,0.05,0.09,0.07,0.17L208.72,169.1z"/>
			<path class="st0" d="M214.56,168.44v0.31c0,0.1-0.06,0.16-0.19,0.19l-0.46,0.07c0.04,0.09,0.07,0.18,0.09,0.27
				c0.02,0.1,0.03,0.2,0.03,0.3c0,0.21-0.04,0.4-0.12,0.57s-0.19,0.31-0.33,0.43c-0.14,0.12-0.31,0.21-0.51,0.28
				c-0.2,0.06-0.41,0.1-0.65,0.1c-0.19,0-0.37-0.02-0.54-0.06c-0.08,0.05-0.15,0.11-0.19,0.17c-0.04,0.06-0.06,0.12-0.06,0.18
				c0,0.1,0.04,0.17,0.12,0.22c0.08,0.05,0.19,0.08,0.32,0.1c0.13,0.02,0.29,0.03,0.46,0.04c0.17,0,0.35,0.01,0.52,0.03
				c0.18,0.01,0.35,0.03,0.52,0.07s0.32,0.08,0.46,0.16s0.24,0.17,0.32,0.29s0.12,0.29,0.12,0.48c0,0.18-0.05,0.36-0.14,0.54
				s-0.22,0.33-0.4,0.46s-0.38,0.24-0.63,0.32s-0.53,0.12-0.85,0.12s-0.59-0.03-0.82-0.09c-0.23-0.06-0.43-0.14-0.58-0.25
				c-0.15-0.1-0.27-0.22-0.35-0.36c-0.08-0.14-0.12-0.28-0.12-0.43c0-0.21,0.06-0.38,0.19-0.53s0.31-0.26,0.53-0.34
				c-0.12-0.06-0.22-0.13-0.29-0.23c-0.07-0.1-0.11-0.22-0.11-0.38c0-0.06,0.01-0.12,0.03-0.19c0.02-0.07,0.06-0.13,0.1-0.2
				s0.1-0.13,0.17-0.19s0.15-0.11,0.24-0.16c-0.21-0.12-0.37-0.27-0.49-0.47c-0.12-0.19-0.18-0.42-0.18-0.68
				c0-0.21,0.04-0.4,0.12-0.56c0.08-0.17,0.19-0.31,0.34-0.43s0.32-0.21,0.51-0.28c0.2-0.06,0.42-0.1,0.66-0.1
				c0.37,0,0.69,0.08,0.95,0.23H214.56z M213.73,172.75c0-0.1-0.03-0.18-0.08-0.24c-0.06-0.06-0.13-0.11-0.23-0.14
				c-0.1-0.04-0.21-0.06-0.34-0.08c-0.13-0.02-0.26-0.03-0.4-0.04c-0.14-0.01-0.29-0.02-0.43-0.02c-0.15-0.01-0.29-0.02-0.43-0.04
				c-0.14,0.07-0.26,0.16-0.36,0.26s-0.14,0.22-0.14,0.36c0,0.09,0.02,0.17,0.07,0.25s0.12,0.15,0.21,0.2
				c0.1,0.06,0.22,0.1,0.36,0.13s0.32,0.05,0.53,0.05c0.2,0,0.38-0.02,0.53-0.05s0.28-0.08,0.39-0.15s0.18-0.14,0.24-0.22
				C213.7,172.95,213.73,172.86,213.73,172.75z M212.43,170.41c0.15,0,0.27-0.02,0.38-0.06s0.2-0.09,0.28-0.17
				c0.07-0.07,0.13-0.16,0.17-0.26c0.04-0.1,0.06-0.21,0.06-0.33c0-0.25-0.08-0.44-0.22-0.59s-0.37-0.22-0.66-0.22
				c-0.29,0-0.51,0.07-0.66,0.22c-0.15,0.15-0.22,0.34-0.22,0.59c0,0.12,0.02,0.23,0.06,0.33s0.09,0.18,0.17,0.25
				c0.07,0.07,0.17,0.13,0.28,0.17S212.29,170.41,212.43,170.41z"/>
		</g>
	</g>
</g>
</svg>
