<?xml version="1.0" encoding="UTF-8"?>
<svg id="Layer_1" xmlns="http://www.w3.org/2000/svg" version="1.1" viewBox="0 0 288 96">
  <!-- Generator: Adobe Illustrator 29.0.0, SVG Export Plug-In . SVG Version: 2.1.0 Build 186)  -->
  <defs>
    <style>
      .st0 {
        fill: #fff;
      }

      .st1 {
        fill: #de3333;
      }
    </style>
  </defs>
  <rect class="st1" x=".68" width="286.64" height="96" rx="8.92" ry="8.92"/>
  <g>
    <path class="st0" d="M118.07,36.51c0-10.67-8.65-19.32-19.32-19.32h-49.4c-10.67,0-19.32,8.65-19.32,19.32v22.99c0,10.67,8.65,19.32,19.32,19.32h49.4c10.67,0,19.32-8.65,19.32-19.32v-22.99ZM89.02,49.72l-22.15,10.96c-.87.47-3.82-.16-3.82-1.15v-22.5c0-1,2.97-1.63,3.84-1.13l21.2,11.54c.89.51,1.82,1.79.92,2.28Z"/>
    <g>
      <path class="st0" d="M143.4,58.23v-7.97l1.03,2.73-8.58-14.26h4.79l6.57,10.95h-2.76l6.6-10.95h4.43l-8.58,14.26,1-2.73v7.97h-4.51Z"/>
      <path class="st0" d="M162.54,58.45c-1.6,0-3.01-.33-4.25-1-1.23-.67-2.21-1.58-2.92-2.74-.71-1.16-1.07-2.48-1.07-3.97s.36-2.84,1.07-4c.71-1.16,1.69-2.07,2.92-2.73,1.24-.66,2.65-.99,4.25-.99s2.99.33,4.23.99,2.22,1.56,2.93,2.72c.7,1.15,1.06,2.49,1.06,4.01s-.35,2.81-1.06,3.97c-.71,1.16-1.68,2.08-2.93,2.74-1.24.67-2.66,1-4.23,1ZM162.54,54.88c.72,0,1.38-.17,1.95-.5.58-.33,1.03-.81,1.37-1.43.34-.62.5-1.36.5-2.22s-.17-1.62-.5-2.23-.79-1.09-1.37-1.42-1.23-.5-1.95-.5-1.38.17-1.95.5-1.04.81-1.38,1.42-.51,1.36-.51,2.23.17,1.59.51,2.22c.34.62.8,1.1,1.38,1.43.58.34,1.23.5,1.95.5Z"/>
      <path class="st0" d="M179.98,58.45c-1.25,0-2.35-.24-3.33-.72-.98-.48-1.73-1.22-2.27-2.22-.54-.99-.81-2.26-.81-3.8v-8.47h4.35v7.83c0,1.24.26,2.16.79,2.74.53.58,1.28.88,2.24.88.67,0,1.26-.14,1.78-.43s.93-.73,1.23-1.34.45-1.36.45-2.27v-7.41h4.35v14.99h-4.12v-4.12l.75,1.2c-.5,1.04-1.24,1.82-2.22,2.35-.97.53-2.04.79-3.19.79Z"/>
      <path class="st0" d="M191.02,46.91v-3.34h10.39v3.34h-10.39ZM198.93,58.45c-1.77,0-3.14-.45-4.12-1.35-.98-.9-1.48-2.24-1.48-4.03v-13.15h4.35v13.1c0,.63.17,1.12.5,1.46.33.34.79.52,1.37.52.69,0,1.27-.19,1.75-.56l1.17,3.07c-.45.32-.98.55-1.6.71-.62.16-1.27.24-1.94.24Z"/>
      <path class="st0" d="M211.24,58.45c-1.25,0-2.35-.24-3.33-.72-.98-.48-1.73-1.22-2.27-2.22s-.81-2.26-.81-3.8v-8.47h4.35v7.83c0,1.24.26,2.16.79,2.74.53.58,1.28.88,2.24.88.67,0,1.26-.14,1.78-.43.52-.29.93-.73,1.23-1.34.3-.6.45-1.36.45-2.27v-7.41h4.35v14.99h-4.12v-4.12l.75,1.2c-.5,1.04-1.24,1.82-2.22,2.35s-2.04.79-3.19.79Z"/>
      <path class="st0" d="M224.06,58.23v-20.67h4.35v8.72l-.28,4.43.08,4.46v3.06h-4.15ZM232.92,58.45c-1.32,0-2.45-.28-3.4-.83-.95-.56-1.67-1.41-2.17-2.55-.5-1.14-.75-2.59-.75-4.33s.26-3.21.79-4.35,1.27-1.98,2.22-2.54c.95-.56,2.05-.84,3.32-.84,1.41,0,2.68.32,3.8.95,1.12.63,2.01,1.52,2.68,2.68.66,1.15.99,2.52.99,4.09s-.33,2.92-.99,4.07c-.66,1.15-1.55,2.05-2.68,2.69s-2.39.96-3.8.96ZM232.17,54.88c.72,0,1.37-.17,1.94-.5.57-.33,1.02-.81,1.36-1.43.34-.62.52-1.36.52-2.22s-.17-1.62-.52-2.23-.8-1.09-1.36-1.42c-.57-.33-1.21-.5-1.94-.5s-1.38.17-1.95.5c-.58.33-1.03.81-1.36,1.42-.34.61-.5,1.36-.5,2.23s.17,1.59.5,2.22c.33.62.79,1.1,1.36,1.43.58.34,1.23.5,1.95.5Z"/>
      <path class="st0" d="M250.72,58.45c-1.71,0-3.21-.33-4.5-1-1.29-.67-2.29-1.58-2.99-2.74-.71-1.16-1.06-2.48-1.06-3.97s.35-2.84,1.05-4c.7-1.16,1.65-2.07,2.86-2.73,1.21-.66,2.57-.99,4.09-.99s2.79.31,3.97.93c1.18.62,2.11,1.51,2.8,2.67.69,1.16,1.03,2.55,1.03,4.17,0,.17,0,.36-.03.57-.02.21-.04.41-.06.6h-12.17v-2.54h9.89l-1.67.75c0-.78-.16-1.46-.47-2.03-.32-.58-.75-1.03-1.31-1.35-.56-.33-1.21-.49-1.95-.49s-1.4.16-1.97.49c-.57.32-1.01.78-1.32,1.36-.32.58-.47,1.28-.47,2.08v.67c0,.82.18,1.54.54,2.16.36.62.87,1.1,1.53,1.42.66.33,1.43.49,2.33.49.8,0,1.5-.12,2.1-.36s1.16-.6,1.66-1.09l2.31,2.51c-.69.78-1.55,1.38-2.59,1.8s-2.24.63-3.59.63Z"/>
    </g>
  </g>
</svg>
