<?xml version="1.0" encoding="UTF-8"?>
<svg id="_002" data-name="002" xmlns="http://www.w3.org/2000/svg" viewBox="0 0 333.75 70.45">
  <defs>
    <style>
      .cls-1 {
        fill: #fff;
      }

      .cls-2 {
        fill: #cc2027;
      }
    </style>
  </defs>
  <path class="cls-1" d="m63.36,35.35c0-2.38.23-4.71.66-6.98h-17l-10.35,13.41h16.43s.54.02,1.08.1c3.08.35,5.49,2.99,5.49,6.13s-2.35,5.73-5.49,6.11h-9.76c-10.56,0-19.15-8.29-19.15-18.84,0-1.39.15-2.75.45-4.09.21-.94,1.03-3.96,2.68-6.55,3.35-5.24,9.3-8.61,15.95-8.61h11s0-.02.01-.02h7.84s10.38-13.69,10.38-13.69h-29.84C25.68,2.32,10.98,17.08,10.98,35.23s14.72,32.91,32.81,32.91h22.24c3.79,0,6.86-3.01,6.86-6.8v-1.18c-5.93-6.63-9.54-15.32-9.54-24.81Z"/>
  <path class="cls-2" d="m122.13,15.96l10.35-13.65h-31.58c-10.91,0-20.6,5.38-26.56,13.65h47.79Z"/>
  <path class="cls-1" d="m123.18,28.37h-19.62l-10.35,13.41h17.04s.54.02,1.08.1c3.08.35,5.49,2.99,5.49,6.13s-2.35,5.73-5.49,6.11h-9.76c-10.56,0-19.15-8.29-19.15-18.84,0-1.39.15-2.75.45-4.09.12-.52.42-1.69.95-3.06h-14.93c-.5,2.29-.77,4.66-.77,7.1,0,18.15,14.72,32.91,32.81,32.91h22.24c3.79,0,6.86-3.01,6.86-6.8v-26.05c0-3.79-3.08-6.91-6.86-6.91Z"/>
  <path class="cls-1" d="m247.15,49.27c0,8.64,7.03,15.71,15.67,15.71h18.83v-7.23h-18.83c-3.44,0-6.4-2.03-7.74-4.97h26.57v-7.23h-26.49c1.37-2.71,4.29-4.75,7.66-4.75h18.83v-7.23h-18.83c-8.64,0-15.67,7.07-15.67,15.71Z"/>
  <path class="cls-1" d="m195.46,32.53c-9.6,0-17.38,7.78-17.38,17.38s7.78,17.38,17.38,17.38,17.38-7.78,17.38-17.38-7.78-17.38-17.38-17.38Zm0,28.55c-6.16,0-11.16-5.01-11.16-11.16s5.01-11.16,11.16-11.16,11.16,5.01,11.16,11.16-5.01,11.16-11.16,11.16Z"/>
  <path class="cls-1" d="m321.14,45.05c0-6.27-5.04-11.49-11.23-11.49h-24.42v31.42h6.55v-25.09h17.86c2.67,0,4.92,2.48,4.92,5.31s-2.28,5.31-4.97,5.31h-10.81c-.45,0-.96.21-1.36.5-.59.44-.98,1.16-.98,1.95s.3,1.51.98,1.95v.02l14.46,10.04h10.62l-12.46-8.46c6.22,0,10.83-5.19,10.83-11.47Z"/>
  <path class="cls-1" d="m164.25,56.6c6.22,0,10.85-5.24,10.85-11.51s-5.02-11.53-11.21-11.53h-24.42v31.42h6.55v-25.09h17.86c2.67,0,4.92,2.48,4.92,5.31s-2.28,5.31-4.97,5.31h-14.65v6.1l15.06-.02Z"/>
  <rect class="cls-1" x="216.32" y="33.56" width="6.55" height="31.42"/>
  <path class="cls-1" d="m250.9,64.75h-9.72l-15.35-12.57c-.83-.64-1.38-1.76-1.38-3.06,0,0-.05-1.83,1.42-3.18l15.17-12.39h9.85l-17.47,14.36c-.31.31-.5.75-.5,1.22s.19.88.5,1.19l17.47,14.42Z"/>
</svg>