<?xml version="1.0" encoding="UTF-8"?>
<svg id="_002" data-name="002" xmlns="http://www.w3.org/2000/svg" viewBox="0 0 200.68 63.44">
  <defs>
    <style>
      .cls-1 {
        fill: #fff;
      }
    </style>
  </defs>
  <polygon class="cls-1" points="6.82 1.3 35.11 16.91 63.4 1.3 6.82 1.3"/>
  <polygon class="cls-1" points="33.39 62.15 33.39 20.3 4.1 4.16 33.39 62.15"/>
  <polygon class="cls-1" points="36.83 62.15 36.83 20.3 66.12 4.16 36.83 62.15"/>
  <g>
    <path class="cls-1" d="m77.26,19c-.95,0-1.42.24-1.42.72s.47.7,1.42.7h7.1c3.79,0,5.68,1.89,5.68,5.68,0,4.74-2.37,7.1-7.1,7.1h-12.78v-5.68h12.78c.95,0,1.42-.22,1.42-.65,0-.51-.47-.77-1.42-.77h-5.68c-4.74,0-7.1-1.89-7.1-5.68,0-4.74,2.37-7.1,7.1-7.1h12.78v5.68h-12.78Z"/>
    <path class="cls-1" d="m91.46,13.31h19.89v5.68h-19.89v-5.68Zm0,7.1h19.89v5.68h-19.89v-5.68Zm0,12.78v-5.68h19.89v5.68h-19.89Z"/>
    <path class="cls-1" d="m112.77,23.26c0-6.63,3.31-9.94,9.94-9.94s9.94,3.05,9.94,9.15h-5.68c0-2.31-1.42-3.47-4.26-3.47s-4.26,1.42-4.26,4.26,1.42,4.26,4.26,4.26,4.26-1.17,4.26-3.52h5.68c0,6.14-3.31,9.21-9.94,9.21s-9.94-3.31-9.94-9.94Z"/>
    <path class="cls-1" d="m142.6,26.1h-2.84v7.1h-5.68V13.31h12.78c4.74,0,7.1,2.37,7.1,7.1,0,2.61-1.13,4.33-3.38,5.14l11.9,11.9h-8.52l-11.36-11.36Zm-2.84-7.1v1.42h7.1c.95,0,1.42-.23,1.42-.7s-.47-.72-1.42-.72h-7.1Z"/>
    <path class="cls-1" d="m155.39,13.31h19.89v5.68h-19.89v-5.68Zm0,7.1h19.89v5.68h-19.89v-5.68Zm0,12.78v-5.68h19.89v5.68h-19.89Z"/>
    <path class="cls-1" d="m176.7,13.31h19.89v5.68h-7.1v14.21h-5.68v-14.21h-7.1v-5.68Z"/>
    <path class="cls-1" d="m134.08,39.16h5.68v14.21h14.21v5.68h-19.89v-19.89Z"/>
    <path class="cls-1" d="m155.39,59.05v-9.94c0-6.63,3.31-9.94,9.94-9.94s9.94,3.31,9.94,9.94v9.94h-5.68v-4.26h-8.52v4.26h-5.68Zm14.21-9.94c0-2.84-1.42-4.26-4.26-4.26s-4.26,1.42-4.26,4.26h8.52Z"/>
    <path class="cls-1" d="m176.7,59.05v-19.89h12.78c4.74,0,7.1,2.37,7.1,7.1,0,1.89-.95,2.84-2.84,2.84,1.89,0,2.84.95,2.84,2.84,0,4.74-2.37,7.1-7.1,7.1h-12.78Zm12.78-12.78c.95,0,1.42-.24,1.42-.71s-.47-.71-1.42-.71h-7.1v1.42h7.1Zm0,7.1c.95,0,1.42-.24,1.42-.71s-.47-.71-1.42-.71h-7.1v1.42h7.1Z"/>
  </g>
</svg>