<?xml version="1.0" encoding="UTF-8"?>
<svg id="_002" data-name="002" xmlns="http://www.w3.org/2000/svg" viewBox="0 0 193.16 126.71">
  <defs>
    <style>
      .cls-1 {
        fill: #fff;
      }
    </style>
  </defs>
  <g>
    <path class="cls-1" d="m3.32,119.8c-.26-.13-.27-.2-.27-.7,0-.91.07-1.65.09-1.94.02-.2.06-.29.15-.29.11,0,.13.05.13.2,0,.16,0,.42.05.68.28,1.35,1.48,1.87,2.71,1.87,1.76,0,2.62-1.27,2.62-2.44,0-1.26-.53-2-2.11-3.3l-.82-.68c-1.94-1.59-2.38-2.73-2.38-3.98,0-1.96,1.47-3.3,3.8-3.3.72,0,1.25.07,1.7.19.35.07.49.09.64.09s.18.04.18.13-.07.7-.07,1.94c0,.29-.04.42-.13.42-.11,0-.13-.09-.15-.24-.02-.22-.13-.71-.24-.92-.11-.2-.6-.97-2.29-.97-1.27,0-2.26.79-2.26,2.12,0,1.05.48,1.71,2.24,3.08l.51.4c2.16,1.7,2.68,2.84,2.68,4.31,0,.75-.29,2.14-1.56,3.04-.79.55-1.78.77-2.77.77-.86,0-1.7-.13-2.46-.5"/>
    <path class="cls-1" d="m23.29,115.51c0,1.5.02,2.73.09,3.37.06.46.09.75.59.83.22.04.59.07.71.07.11,0,.15.07.15.13,0,.07-.09.13-.27.13-.88,0-1.91-.05-2-.05-.07,0-1.12.05-1.6.05-.18,0-.26-.04-.26-.13,0-.05.04-.13.13-.13.15,0,.33-.04.48-.07.33-.07.39-.39.44-.85.07-.64.07-1.81.07-3.32v-1.56c0-.07-.04-.09-.09-.09h-6.73c-.05,0-.09.02-.09.09v1.56c0,1.5,0,2.69.07,3.33.05.46.11.75.59.83.24.04.59.07.73.07.09,0,.13.07.13.13,0,.07-.07.13-.26.13-.9,0-1.92-.05-2-.05-.09,0-1.12.05-1.61.05-.16,0-.26-.04-.26-.13,0-.05.04-.13.13-.13.15,0,.35-.04.5-.07.31-.07.35-.37.42-.83.09-.64.09-1.87.09-3.37v-2.75c0-2.42,0-2.86-.04-3.35-.04-.53-.13-.79-.66-.86-.13-.02-.4-.04-.55-.04-.05,0-.13-.07-.13-.13,0-.09.07-.13.26-.13.73,0,1.76.04,1.85.04.07,0,1.1-.04,1.59-.04.18,0,.26.04.26.13,0,.05-.07.13-.13.13-.11,0-.22,0-.4.04-.44.09-.53.31-.57.86-.02.5-.02.97-.02,3.39v.33c0,.09.04.09.09.09h6.73c.05,0,.09,0,.09-.09v-.33c0-2.42-.02-2.9-.04-3.39-.04-.53-.11-.79-.64-.86-.13-.02-.4-.04-.55-.04-.07,0-.13-.07-.13-.13,0-.09.07-.13.26-.13.71,0,1.76.04,1.83.04.09,0,1.12-.04,1.59-.04.18,0,.28.04.28.13,0,.05-.07.13-.15.13-.11,0-.2,0-.4.04-.42.09-.51.31-.55.86-.04.5-.04.93-.04,3.35v2.75Z"/>
    <path class="cls-1" d="m32.85,108.56c.2-.51.27-.6.38-.6.17,0,.22.22.39.57.29.66,2.88,7.09,3.87,9.46.59,1.39,1.03,1.59,1.37,1.7.24.07.48.09.64.09.09,0,.2.04.2.13s-.18.13-.37.13c-.24,0-1.43,0-2.55-.04-.31-.02-.57-.02-.57-.11,0-.07.04-.07.11-.11.09-.04.26-.16.15-.42l-1.45-3.57c-.04-.07-.06-.09-.15-.09h-3.72c-.07,0-.13.04-.17.13l-.91,2.49c-.15.39-.24.77-.24,1.04,0,.31.27.42.55.42h.15c.13,0,.16.06.16.13,0,.09-.09.13-.24.13-.38,0-1.27-.06-1.45-.06-.17,0-.97.06-1.63.06-.2,0-.31-.04-.31-.13,0-.07.07-.13.15-.13.11,0,.35-.02.48-.04.73-.09,1.05-.64,1.36-1.43l3.79-9.75Zm1.79,6.49c.07,0,.07-.04.06-.11l-1.59-4.27c-.09-.24-.18-.24-.27,0l-1.5,4.27c-.02.07,0,.11.05.11h3.26Z"/>
    <path class="cls-1" d="m56.04,118.02c.05.55.16,1.39.82,1.61.46.15.88.15,1.04.15.07,0,.13.04.13.11,0,.09-.15.15-.33.15-.36,0-2.16-.04-2.75-.09-.39-.04-.46-.09-.46-.17,0-.05.04-.11.11-.13.09-.02.11-.26.07-.55l-.77-7.88h-.04l-3.88,7.95c-.33.68-.42.82-.57.82s-.24-.15-.55-.71c-.42-.77-1.48-2.77-1.89-3.61-.48-.99-1.78-3.61-2.05-4.25h-.07l-.63,7.04c-.02.24-.02.53-.02.79,0,.24.15.39.39.44.27.07.51.09.62.09.06,0,.13.06.13.11,0,.11-.11.15-.29.15-.61,0-1.37-.06-1.5-.06-.15,0-.92.06-1.36.06-.17,0-.28-.04-.28-.15,0-.05.08-.11.17-.11.13,0,.24-.02.48-.05.53-.09.55-.66.62-1.25l1.17-10.17c.02-.16.09-.27.18-.27.11,0,.24.05.33.24l4.87,9.68,4.69-9.66c.07-.15.15-.26.26-.26s.2.13.24.42l1.1,9.57Z"/>
    <path class="cls-1" d="m61.81,112.76c0-2.42,0-2.86-.04-3.35-.04-.53-.13-.82-.66-.9-.13-.02-.4-.04-.55-.04-.05,0-.13-.04-.13-.09,0-.09.07-.13.26-.13.73,0,1.78.03,1.87.03.38,0,1.13-.03,1.89-.03,2.7,0,3.39,1.56,3.39,2.38,0,1.23-.81,2-1.63,2.73,1.23.37,2.84,1.48,2.84,3.24s-1.3,3.47-4.05,3.47c-.29,0-.88-.02-1.39-.06-.51-.02-.97-.04-1.04-.04-.04,0-.33.02-.66.02-.33.02-.72.04-.97.04-.16,0-.26-.04-.26-.13,0-.05.04-.09.13-.09.15,0,.35-.05.49-.07.31-.05.35-.4.42-.86.09-.64.09-1.87.09-3.37v-2.75Zm1.39.33c0,.11.04.15.11.17.09.02.38.07.99.07.9,0,1.25-.04,1.58-.4.35-.38.62-.92.62-1.67,0-1.19-.66-2.51-2.27-2.51-.18,0-.57.02-.82.07-.15.04-.2.07-.2.17v4.1Zm0,1.73c0,1.21,0,3.08.02,3.32.06.75.06.93.55,1.17.44.2,1.12.22,1.41.22,1.06,0,2.36-.4,2.36-2.4,0-.7-.27-2.04-1.54-2.84-.55-.35-1.06-.33-1.45-.4-.2-.04-1.01-.04-1.27-.04-.05,0-.09.04-.09.11v.86Z"/>
    <path class="cls-1" d="m76.33,108.56c.2-.51.27-.6.38-.6.17,0,.22.22.39.57.29.66,2.88,7.09,3.87,9.46.59,1.39,1.03,1.59,1.37,1.7.24.07.48.09.64.09.09,0,.12.04.12.13s-.1.13-.28.13c-.24,0-1.43,0-2.55-.04-.31-.02-.57-.02-.57-.11,0-.07.04-.07.11-.11.09-.04.26-.16.15-.42l-1.45-3.57c-.04-.07-.05-.09-.15-.09h-3.72c-.07,0-.13.04-.16.13l-.92,2.49c-.14.39-.24.77-.24,1.04,0,.31.28.42.55.42h.15c.13,0,.16.06.16.13,0,.09-.09.13-.24.13-.39,0-1.26-.06-1.45-.06-.17,0-.97.06-1.63.06-.2,0-.31-.04-.31-.13,0-.07.07-.13.15-.13.11,0,.35-.02.48-.04.73-.09,1.05-.64,1.36-1.43l3.79-9.75Zm1.79,6.49c.07,0,.07-.04.05-.11l-1.59-4.27c-.09-.24-.18-.24-.27,0l-1.5,4.27c-.02.07,0,.11.05.11h3.26Z"/>
    <path class="cls-1" d="m88.18,115.55c0,2.29.04,3.23.33,3.5.26.26.88.37,2.14.37.84,0,1.56-.02,1.94-.48.2-.24.33-.57.39-.88.02-.11.07-.2.17-.2.07,0,.11.07.11.24s-.11,1.1-.24,1.56c-.11.37-.16.42-1.02.42-1.16,0-2.05-.02-2.81-.06-.73-.02-1.28-.04-1.76-.04-.07,0-.35,0-.66.02-.33.02-.68.04-.93.04-.16,0-.25-.04-.25-.13,0-.05.04-.13.13-.13.14,0,.35-.04.49-.07.31-.07.35-.37.42-.83.09-.64.09-1.87.09-3.37v-2.75c0-2.42,0-2.86-.04-3.35-.04-.53-.13-.79-.66-.86-.13-.02-.4-.04-.55-.04-.05,0-.13-.07-.13-.13,0-.09.07-.13.26-.13.73,0,1.74.03,1.83.03.07,0,1.28-.03,1.78-.03.16,0,.26.03.26.13,0,.05-.07.11-.13.11-.11,0-.35.02-.53.03-.48.09-.57.33-.61.88-.02.5-.02.93-.02,3.35v2.79Z"/>
    <path class="cls-1" d="m98.36,115.55c0,2.29.04,3.23.33,3.5.26.26.88.37,2.14.37.84,0,1.56-.02,1.94-.48.2-.24.33-.57.39-.88.02-.11.07-.2.16-.2.07,0,.11.07.11.24s-.11,1.1-.24,1.56c-.11.37-.16.42-1.03.42-1.15,0-2.05-.02-2.8-.06-.73-.02-1.28-.04-1.76-.04-.07,0-.35,0-.66.02-.33.02-.68.04-.94.04-.16,0-.26-.04-.26-.13,0-.05.04-.13.13-.13.15,0,.35-.04.5-.07.31-.07.35-.37.42-.83.09-.64.09-1.87.09-3.37v-2.75c0-2.42,0-2.86-.04-3.35-.04-.53-.13-.79-.66-.86-.13-.02-.4-.04-.55-.04-.05,0-.13-.07-.13-.13,0-.09.07-.13.26-.13.73,0,1.74.03,1.83.03.08,0,1.28-.03,1.78-.03.17,0,.26.03.26.13,0,.05-.07.11-.13.11-.11,0-.35.02-.53.03-.48.09-.57.33-.61.88-.02.5-.02.93-.02,3.35v2.79Z"/>
    <path class="cls-1" d="m111.48,108.56c.2-.51.27-.6.38-.6.17,0,.22.22.39.57.29.66,2.88,7.09,3.87,9.46.59,1.39,1.03,1.59,1.38,1.7.24.07.48.09.64.09.09,0,.2.04.2.13s-.18.13-.37.13c-.24,0-1.43,0-2.55-.04-.31-.02-.57-.02-.57-.11,0-.07.04-.07.11-.11.09-.04.26-.16.15-.42l-1.45-3.57c-.04-.07-.05-.09-.15-.09h-3.72c-.07,0-.13.04-.16.13l-.91,2.49c-.15.39-.24.77-.24,1.04,0,.31.28.42.55.42h.15c.13,0,.16.06.16.13,0,.09-.09.13-.24.13-.38,0-1.27-.06-1.45-.06-.16,0-.97.06-1.63.06-.2,0-.31-.04-.31-.13,0-.07.07-.13.15-.13.11,0,.35-.02.48-.04.74-.09,1.04-.64,1.36-1.43l3.8-9.75Zm1.79,6.49c.07,0,.07-.04.06-.11l-1.59-4.27c-.09-.24-.18-.24-.28,0l-1.5,4.27c-.02.07,0,.11.05.11h3.26Z"/>
    <path class="cls-1" d="m129.96,115.89c0,2.97,0,4.1-.55,5.41-.39.92-1.19,1.78-2.68,2.81-.24.16-.53.37-.71.46-.04.02-.07.04-.13.04-.05,0-.13-.04-.13-.11,0-.11.09-.17.26-.28.22-.13.48-.35.64-.51,1.19-1.21,1.76-2.18,1.76-6.91v-5.3c0-2.86,0-3.37-.04-3.96-.04-.62-.18-.91-.79-1.04-.15-.04-.46-.05-.62-.05-.07,0-.15-.04-.15-.11,0-.11.09-.15.29-.15.82,0,1.98.05,2.07.05s1.25-.05,1.8-.05c.2,0,.29.04.29.15,0,.07-.07.11-.15.11-.13,0-.24.02-.46.05-.49.09-.64.4-.68,1.04-.04.59-.04,1.1-.04,3.96v4.4Z"/>
    <path class="cls-1" d="m134.97,112.76c0-2.42,0-2.86-.04-3.35-.04-.53-.13-.79-.66-.86-.13-.02-.4-.04-.55-.04-.05,0-.13-.07-.13-.13,0-.09.07-.13.26-.13.73,0,1.78.03,1.87.03.11,0,3.48.02,3.85,0,.31-.02.6-.07.73-.09.07-.02.15-.07.22-.07.06,0,.07.07.07.15,0,.11-.09.29-.13.73-.02.15-.05.84-.09,1.03-.02.07-.07.16-.15.16-.09,0-.13-.07-.13-.2,0-.11-.02-.37-.09-.55-.11-.26-.27-.37-1.16-.48-.27-.04-2.14-.06-2.33-.06-.07,0-.09.06-.09.17v4.23c0,.11,0,.16.09.16.2,0,2.33,0,2.69-.04.38-.04.62-.05.79-.22.11-.11.18-.2.24-.2s.09.04.09.13-.09.35-.13.86c-.04.31-.07.9-.07,1.01,0,.13-.04.29-.15.29-.07,0-.11-.05-.11-.15,0-.15,0-.31-.08-.51-.05-.22-.2-.4-.82-.48-.44-.05-2.16-.07-2.44-.07-.09,0-.11.06-.11.11v1.3c0,.53-.02,2.35,0,2.66.04,1.04.33,1.25,1.92,1.25.42,0,1.19,0,1.61-.17.42-.18.64-.46.73-1.08.04-.18.07-.24.16-.24s.11.13.11.24-.13,1.17-.22,1.5c-.11.4-.27.4-.9.4-1.21,0-2.14-.04-2.8-.06-.68-.04-1.1-.04-1.34-.04-.04,0-.35,0-.7.02-.31.02-.68.04-.93.04-.16,0-.26-.04-.26-.13,0-.05.04-.13.13-.13.15,0,.35-.05.5-.07.31-.06.35-.37.42-.83.09-.64.09-1.87.09-3.37v-2.75Z"/>
    <path class="cls-1" d="m156.27,117.73h.07c.4-1.28,1.85-5.79,2.42-7.79.16-.59.18-.77.18-.97,0-.28-.13-.46-.86-.46-.09,0-.15-.09-.15-.15,0-.07.07-.11.27-.11.82,0,1.5.03,1.65.03.11,0,.81-.03,1.3-.03.15,0,.22.03.22.09,0,.07-.04.16-.15.16-.05,0-.37.02-.55.07-.48.16-.73.79-1.05,1.65-.71,1.98-2.31,6.93-2.95,8.67-.42,1.15-.51,1.34-.69,1.34-.17,0-.31-.2-.53-.81l-3.15-8.52c-.55,1.35-2.73,7.05-3.32,8.5-.27.66-.39.82-.57.82-.16,0-.29-.16-.62-1.23l-2.86-9.24c-.25-.82-.42-1.03-.84-1.17-.22-.08-.62-.09-.73-.09-.07,0-.15-.06-.15-.15,0-.07.11-.11.26-.11.84,0,1.74.03,1.91.03.14,0,.88-.03,1.69-.03.22,0,.29.03.29.11,0,.09-.09.15-.16.15-.13,0-.39,0-.57.09-.11.03-.22.13-.22.33s.13.75.31,1.45c.26.99,1.91,6.71,2.11,7.35h.04l3.37-8.71c.24-.62.35-.71.44-.71.11,0,.24.2.44.73l3.15,8.69Z"/>
    <path class="cls-1" d="m165.03,112.76c0-2.42,0-2.86-.04-3.35-.04-.53-.13-.79-.66-.86-.13-.02-.4-.04-.55-.04-.05,0-.13-.07-.13-.13,0-.09.07-.13.26-.13.73,0,1.78.03,1.87.03.11,0,3.48.02,3.85,0,.31-.02.61-.07.73-.09.07-.02.15-.07.22-.07.05,0,.07.07.07.15,0,.11-.09.29-.13.73-.02.15-.05.84-.09,1.03-.02.07-.07.16-.15.16-.09,0-.13-.07-.13-.2,0-.11-.02-.37-.09-.55-.11-.26-.28-.37-1.15-.48-.27-.04-2.14-.06-2.33-.06-.07,0-.09.06-.09.17v4.23c0,.11,0,.16.09.16.2,0,2.33,0,2.69-.04.38-.04.62-.05.79-.22.11-.11.18-.2.24-.2s.09.04.09.13-.09.35-.13.86c-.04.31-.07.9-.07,1.01,0,.13-.04.29-.15.29-.08,0-.11-.05-.11-.15,0-.15,0-.31-.07-.51-.06-.22-.2-.4-.82-.48-.44-.05-2.16-.07-2.44-.07-.09,0-.11.06-.11.11v1.3c0,.53-.02,2.35,0,2.66.04,1.04.33,1.25,1.93,1.25.42,0,1.19,0,1.61-.17.42-.18.64-.46.73-1.08.04-.18.07-.24.16-.24s.11.13.11.24-.13,1.17-.22,1.5c-.11.4-.28.4-.9.4-1.21,0-2.14-.04-2.8-.06-.68-.04-1.1-.04-1.34-.04-.04,0-.35,0-.69.02-.31.02-.68.04-.93.04-.17,0-.26-.04-.26-.13,0-.05.04-.13.13-.13.15,0,.35-.05.49-.07.31-.06.35-.37.42-.83.09-.64.09-1.87.09-3.37v-2.75Z"/>
    <path class="cls-1" d="m176.15,115.55c0,2.29.04,3.23.33,3.5.26.26.88.37,2.14.37.84,0,1.56-.02,1.94-.48.2-.24.33-.57.38-.88.02-.11.07-.2.17-.2.07,0,.11.07.11.24s-.11,1.1-.24,1.56c-.11.37-.16.42-1.02.42-1.16,0-2.05-.02-2.81-.06-.73-.02-1.28-.04-1.76-.04-.07,0-.35,0-.66.02-.33.02-.68.04-.93.04-.17,0-.26-.04-.26-.13,0-.05.04-.13.13-.13.15,0,.35-.04.49-.07.31-.07.35-.37.42-.83.09-.64.09-1.87.09-3.37v-2.75c0-2.42,0-2.86-.04-3.35-.04-.53-.13-.79-.66-.86-.13-.02-.4-.04-.55-.04-.06,0-.13-.07-.13-.13,0-.09.07-.13.26-.13.73,0,1.74.03,1.83.03.07,0,1.28-.03,1.78-.03.16,0,.26.03.26.13,0,.05-.07.11-.13.11-.11,0-.35.02-.53.03-.48.09-.57.33-.6.88-.02.5-.02.93-.02,3.35v2.79Z"/>
    <path class="cls-1" d="m183.7,119.82c-.22-.11-.24-.16-.24-.58,0-.77.07-1.39.09-1.65,0-.16.04-.26.13-.26s.15.05.15.19,0,.35.05.57c.26,1.13,1.47,1.54,2.55,1.54,1.59,0,2.42-.9,2.42-2.07s-.6-1.65-2.03-2.71l-.73-.55c-1.74-1.3-2.31-2.25-2.31-3.34,0-1.83,1.45-2.93,3.58-2.93.64,0,1.28.09,1.67.18.31.07.44.07.57.07s.16.02.16.11c0,.07-.07.59-.07,1.65,0,.24-.02.35-.13.35s-.13-.07-.15-.2c-.02-.18-.15-.61-.24-.77-.11-.18-.64-.77-2.09-.77-1.17,0-2.14.59-2.14,1.69,0,.99.49,1.56,2.09,2.64l.46.31c1.96,1.34,2.64,2.42,2.64,3.76,0,.92-.35,1.91-1.5,2.66-.68.44-1.69.55-2.57.55-.75,0-1.69-.11-2.35-.42"/>
  </g>
  <g>
    <path class="cls-1" d="m99,51.63c-.66.66-1.4.72-1.4,1.46,0,.34.17.56,1.08.56l-.08,1.53h-4.04l-.07-1.53c.9,0,1.08-.22,1.08-.56,0-.74-.74-.8-1.41-1.46-.66-.66-.73-1.41-1.46-1.41-.34,0-.56.17-.56,1.08l-1.53-.08v-4.04l1.53-.08c0,.91.22,1.08.56,1.08.74,0,.79-.74,1.46-1.4.66-.66,1.41-.73,1.41-1.46,0-.34-.17-.56-1.08-.56l.08-1.53h4.04l.07,1.53c-.9,0-1.08.22-1.08.56,0,.74.74.8,1.41,1.46.66.66.73,1.41,1.46,1.41.34,0,.56-.17.56-1.08l1.53.08v4.04l-1.53.07c0-.91-.22-1.08-.56-1.08-.74,0-.8.75-1.46,1.41Z"/>
    <polygon class="cls-1" points="98.54 41.97 96.58 2.11 94.61 41.97 98.54 41.97"/>
    <polygon class="cls-1" points="98.54 56.43 96.58 96.29 94.61 56.43 98.54 56.43"/>
    <path class="cls-1" d="m104.04,28.54c0,2.43-1.96,6.53-4.1,12.48-.29.91-.48,1.45.58.34,1.06-1.11,4.86-4.84,7.82-7.92,2.97-3.08,3.59-3.8,3.59-4.89s-.62-1.81-3.59-4.89c-2.97-3.08-6.76-6.81-7.82-7.92-1.06-1.11-.89-.61-.58.34,2.15,5.94,4.1,10.05,4.1,12.48Z"/>
    <path class="cls-1" d="m104,28.52c0,3.08-1.96,6.53-4.1,12.47-.29.91-.48,1.45.58.34,1.06-1.11,4.86-4.84,7.82-7.92,2.96-3.08,3.59-3.8,3.59-4.89s-.62-1.81-3.59-4.89c-2.97-3.08-6.77-6.81-7.82-7.92-1.06-1.11-.89-.61-.58.34,2.15,5.94,4.1,9.39,4.1,12.48Z"/>
    <path class="cls-1" d="m89.11,28.51c0-3.09,1.96-6.53,4.1-12.48.29-.91.48-1.45-.58-.34-1.06,1.11-4.86,4.84-7.82,7.92-2.97,3.08-3.59,3.8-3.59,4.89s.63,1.81,3.59,4.89c2.97,3.08,6.77,6.81,7.82,7.92,1.06,1.11.89.61.58-.34-2.15-5.94-4.1-9.39-4.1-12.47Z"/>
    <path class="cls-1" d="m104,69.84c0,3.08-1.96,6.53-4.1,12.48-.29.91-.48,1.45.58.34,1.06-1.11,4.86-4.84,7.82-7.92,2.96-3.08,3.59-3.8,3.59-4.89s-.62-1.81-3.59-4.89c-2.97-3.08-6.77-6.81-7.82-7.92-1.06-1.11-.89-.61-.58.34,2.15,5.94,4.1,9.39,4.1,12.48Z"/>
    <path class="cls-1" d="m89.11,69.83c0-3.08,1.96-6.53,4.1-12.47.29-.91.48-1.45-.58-.34-1.06,1.11-4.86,4.84-7.82,7.92-2.97,3.08-3.59,3.8-3.59,4.89s.63,1.81,3.59,4.89c2.97,3.08,6.77,6.81,7.82,7.92,1.06,1.11.89.61.58-.34-2.15-5.94-4.1-9.39-4.1-12.48Z"/>
    <polygon class="cls-1" points="89.35 47.23 49.49 49.19 89.35 51.16 89.35 47.23"/>
    <polygon class="cls-1" points="103.81 47.23 143.67 49.19 103.81 51.16 103.81 47.23"/>
    <path class="cls-1" d="m75.9,41.72c3.08,0,6.53,1.96,12.47,4.1.91.29,1.45.48.34-.58-1.11-1.06-4.84-4.86-7.92-7.82-3.08-2.97-3.8-3.59-4.89-3.59s-1.81.63-4.89,3.59c-3.08,2.97-6.81,6.77-7.92,7.82-1.11,1.06-.61.89.34.58,5.94-2.15,9.39-4.1,12.48-4.1Z"/>
    <path class="cls-1" d="m75.89,56.62c-3.08,0-6.53-1.96-12.48-4.1-.91-.29-1.45-.48-.34.58,1.11,1.06,4.84,4.86,7.92,7.82,3.08,2.97,3.8,3.59,4.89,3.59s1.81-.62,4.89-3.59c3.08-2.97,6.81-6.76,7.92-7.82,1.11-1.06.61-.89-.34-.58-5.94,2.15-9.39,4.1-12.47,4.1Z"/>
    <path class="cls-1" d="m117.22,41.72c3.08,0,6.53,1.96,12.48,4.1.91.29,1.45.48.34-.58-1.11-1.06-4.84-4.86-7.92-7.82-3.08-2.97-3.8-3.59-4.89-3.59s-1.81.63-4.89,3.59c-3.08,2.97-6.81,6.77-7.92,7.82-1.11,1.06-.61.89.34.58,5.94-2.15,9.39-4.1,12.47-4.1Z"/>
    <path class="cls-1" d="m117.21,56.62c-3.08,0-6.53-1.96-12.48-4.1-.91-.29-1.45-.48-.34.58,1.11,1.06,4.84,4.86,7.92,7.82,3.08,2.97,3.8,3.59,4.89,3.59s1.81-.62,4.89-3.59c3.08-2.97,6.81-6.76,7.92-7.82,1.11-1.06.61-.89-.34-.58-5.94,2.15-9.39,4.1-12.48,4.1Z"/>
  </g>
</svg>